<svg xmlns="http://www.w3.org/2000/svg" id="canvas" viewBox="211.368 441.200 796.395 135.113"><path d="M 215.32,502.96 C 215.85 502.72, 216.25 502.30, 217.02 501.25 C 217.80 500.20, 218.21 499.53, 219.17 497.71 C 220.13 495.90, 220.73 494.70, 221.85 492.16 C 222.96 489.63, 223.49 488.08, 224.74 485.03 C 225.99 481.99, 226.72 480.22, 228.10 476.94 C 229.48 473.66, 230.25 471.84, 231.63 468.62 C 233.02 465.40, 233.77 463.71, 235.01 460.85 C 236.25 458.00, 236.90 456.57, 237.82 454.35 C 238.74 452.14, 239.17 451.12, 239.62 449.77 C 240.07 448.43, 240.07 447.84, 240.05 447.63 C 240.03 447.42, 239.71 447.56, 239.50 448.70 C 239.29 449.85, 239.04 450.81, 239.00 453.36 C 238.95 455.90, 239.18 457.61, 239.29 461.43 C 239.40 465.26, 239.45 467.65, 239.53 472.48 C 239.62 477.31, 239.61 480.15, 239.69 485.57 C 239.78 490.99, 239.81 494.02, 239.95 499.57 C 240.10 505.12, 240.20 508.13, 240.43 513.33 C 240.66 518.52, 240.82 521.19, 241.09 525.56 C 241.36 529.94, 241.44 532.02, 241.80 535.21 C 242.16 538.40, 242.44 539.88, 242.88 541.52 C 243.33 543.15, 243.69 543.32, 244.03 543.39 C 244.38 543.46, 244.61 542.65, 244.60 541.85 C 244.60 541.06, 244.46 539.82, 244.01 539.42 C 243.55 539.02, 242.54 539.26, 242.33 539.83 C 242.11 540.40, 242.55 541.57, 242.94 542.28 C 243.32 542.99, 243.90 543.60, 244.24 543.39 C 244.59 543.19, 244.73 542.93, 244.67 541.25 C 244.61 539.56, 244.32 538.13, 243.95 534.96 C 243.57 531.80, 243.19 529.77, 242.79 525.43 C 242.39 521.09, 242.22 518.43, 241.95 513.25 C 241.68 508.07, 241.57 505.07, 241.44 499.53 C 241.31 493.99, 241.29 490.96, 241.28 485.55 C 241.27 480.14, 241.31 477.31, 241.40 472.49 C 241.50 467.66, 241.62 465.28, 241.77 461.45 C 241.93 457.62, 242.24 455.93, 242.16 453.34 C 242.09 450.75, 241.87 449.76, 241.40 448.50 C 240.93 447.24, 240.54 446.98, 239.82 447.05 C 239.09 447.12, 238.67 447.60, 237.80 448.85 C 236.93 450.10, 236.48 451.11, 235.46 453.32 C 234.45 455.53, 233.91 457.01, 232.72 459.88 C 231.53 462.76, 230.86 464.49, 229.50 467.71 C 228.14 470.93, 227.36 472.75, 225.92 476.00 C 224.48 479.25, 223.70 480.99, 222.30 483.95 C 220.89 486.91, 220.08 488.33, 218.89 490.81 C 217.71 493.30, 217.16 494.51, 216.37 496.39 C 215.59 498.26, 215.35 498.97, 214.95 500.17 C 214.55 501.38, 214.31 501.86, 214.38 502.42 C 214.46 502.98, 214.79 503.19, 215.32 502.96" style="stroke: black; fill: black;"/><path d="M 215.38,510.82 C 215.68 511.19, 215.97 511.43, 217.02 511.68 C 218.08 511.93, 218.81 512.11, 220.64 512.08 C 222.47 512.05, 223.73 511.96, 226.17 511.55 C 228.61 511.13, 230.13 510.77, 232.86 510.00 C 235.58 509.23, 237.12 508.67, 239.82 507.70 C 242.52 506.72, 243.98 506.11, 246.37 505.13 C 248.77 504.15, 249.98 503.49, 251.79 502.81 C 253.59 502.12, 254.32 501.72, 255.41 501.71 C 256.51 501.71, 256.77 501.82, 257.26 502.79 C 257.75 503.76, 257.74 504.55, 257.86 506.57 C 257.98 508.59, 257.88 510.05, 257.87 512.88 C 257.85 515.70, 257.85 517.60, 257.80 520.69 C 257.75 523.79, 257.55 525.66, 257.62 528.34 C 257.68 531.02, 257.75 532.43, 258.13 534.09 C 258.51 535.74, 258.85 536.36, 259.50 536.63 C 260.16 536.90, 260.67 536.59, 261.39 535.42 C 262.11 534.25, 262.52 533.08, 263.10 530.79 C 263.68 528.49, 263.84 526.77, 264.27 523.95 C 264.71 521.13, 264.87 519.37, 265.26 516.70 C 265.65 514.03, 265.85 512.62, 266.22 510.61 C 266.59 508.60, 266.75 507.75, 267.12 506.63 C 267.50 505.50, 267.59 505.28, 268.09 504.98 C 268.59 504.69, 268.78 504.98, 269.63 505.16 C 270.49 505.34, 271.02 505.76, 272.34 505.87 C 273.66 505.99, 274.55 506.13, 276.24 505.74 C 277.93 505.36, 278.94 505.12, 280.81 503.94 C 282.67 502.77, 283.75 502.02, 285.58 499.87 C 287.41 497.71, 288.28 496.29, 289.97 493.18 C 291.65 490.07, 292.51 488.15, 294.03 484.33 C 295.54 480.50, 296.28 478.20, 297.53 474.07 C 298.79 469.94, 299.37 467.54, 300.31 463.67 C 301.26 459.80, 301.81 457.77, 302.27 454.72 C 302.73 451.68, 302.76 450.08, 302.61 448.45 C 302.46 446.82, 302.03 446.31, 301.50 446.58 C 300.98 446.85, 300.41 447.56, 299.98 449.81 C 299.54 452.06, 299.53 453.82, 299.34 457.84 C 299.16 461.86, 299.18 464.58, 299.06 469.92 C 298.94 475.25, 298.87 478.54, 298.75 484.52 C 298.64 490.51, 298.55 493.92, 298.48 499.82 C 298.41 505.72, 298.39 508.93, 298.38 514.05 C 298.38 519.17, 298.31 521.72, 298.45 525.43 C 298.60 529.14, 298.72 530.83, 299.12 532.61 C 299.53 534.39, 300.03 534.72, 300.47 534.31 C 300.91 533.90, 301.28 532.76, 301.31 530.56 C 301.35 528.36, 301.15 526.43, 300.64 523.32 C 300.14 520.22, 299.59 518.09, 298.79 515.03 C 297.98 511.96, 297.49 510.27, 296.62 508.00 C 295.75 505.73, 295.19 504.84, 294.44 503.70 C 293.68 502.55, 293.22 502.36, 292.84 502.26 C 292.47 502.16, 292.21 502.59, 292.55 503.19 C 292.89 503.79, 293.26 504.53, 294.53 505.26 C 295.80 505.99, 296.85 506.45, 298.92 506.85 C 300.98 507.24, 302.32 507.33, 304.85 507.23 C 307.38 507.13, 308.85 506.95, 311.55 506.36 C 314.24 505.77, 315.77 505.25, 318.32 504.26 C 320.87 503.27, 322.32 502.45, 324.31 501.40 C 326.29 500.35, 327.17 499.56, 328.25 498.99 C 329.33 498.42, 329.49 498.13, 329.70 498.56 C 329.91 498.99, 329.62 499.49, 329.29 501.14 C 328.96 502.78, 328.46 504.13, 328.06 506.79 C 327.67 509.44, 327.47 511.39, 327.31 514.41 C 327.16 517.43, 327.01 519.22, 327.30 521.86 C 327.58 524.51, 327.83 526.00, 328.72 527.63 C 329.62 529.26, 330.38 529.98, 331.76 530.01 C 333.13 530.05, 334.22 529.22, 335.59 527.83 C 336.96 526.43, 337.81 525.01, 338.62 523.06 C 339.43 521.10, 339.69 519.16, 339.63 518.05 C 339.56 516.94, 339.08 516.80, 338.29 517.51 C 337.49 518.23, 336.60 519.89, 335.64 521.62 C 334.67 523.36, 334.25 524.77, 333.46 526.18 C 332.67 527.59, 332.25 528.54, 331.69 528.68 C 331.12 528.82, 330.92 528.29, 330.63 526.89 C 330.35 525.49, 330.28 524.14, 330.27 521.69 C 330.25 519.24, 330.30 517.53, 330.55 514.63 C 330.81 511.74, 331.30 509.89, 331.56 507.21 C 331.82 504.54, 332.03 503.13, 331.85 501.24 C 331.67 499.36, 331.49 498.60, 330.66 497.77 C 329.82 496.94, 329.20 496.89, 327.69 497.10 C 326.17 497.31, 325.17 497.95, 323.08 498.82 C 321.00 499.68, 319.68 500.53, 317.25 501.45 C 314.81 502.36, 313.40 502.87, 310.91 503.40 C 308.42 503.92, 307.05 504.06, 304.78 504.07 C 302.51 504.08, 301.38 503.78, 299.56 503.44 C 297.75 503.10, 296.97 502.66, 295.71 502.36 C 294.45 502.06, 293.94 501.90, 293.25 501.93 C 292.55 501.96, 292.34 501.99, 292.22 502.51 C 292.09 503.03, 292.27 503.26, 292.63 504.53 C 292.99 505.80, 293.38 506.63, 294.02 508.87 C 294.66 511.11, 295.15 512.74, 295.81 515.75 C 296.47 518.76, 296.73 520.89, 297.32 523.92 C 297.90 526.94, 298.18 528.80, 298.73 530.87 C 299.28 532.95, 299.68 533.97, 300.08 534.29 C 300.47 534.61, 300.65 534.24, 300.71 532.46 C 300.77 530.67, 300.52 529.04, 300.36 525.35 C 300.20 521.67, 300.00 519.14, 299.90 514.03 C 299.81 508.93, 299.82 505.73, 299.89 499.84 C 299.96 493.94, 300.04 490.53, 300.24 484.56 C 300.43 478.59, 300.55 475.30, 300.85 469.99 C 301.15 464.67, 301.42 461.97, 301.74 457.99 C 302.05 454.00, 302.40 452.32, 302.43 450.06 C 302.45 447.81, 302.19 447.06, 301.88 446.71 C 301.57 446.36, 301.29 446.78, 300.88 448.31 C 300.47 449.83, 300.34 451.35, 299.82 454.33 C 299.31 457.31, 299.15 459.38, 298.31 463.21 C 297.47 467.04, 296.88 469.42, 295.63 473.48 C 294.38 477.55, 293.61 479.82, 292.05 483.52 C 290.49 487.21, 289.55 489.07, 287.81 491.95 C 286.07 494.83, 285.06 496.01, 283.35 497.93 C 281.65 499.85, 280.83 500.55, 279.28 501.55 C 277.73 502.55, 276.98 502.64, 275.61 502.94 C 274.25 503.24, 273.64 503.04, 272.46 503.05 C 271.27 503.07, 270.74 502.89, 269.70 503.01 C 268.66 503.13, 268.15 503.10, 267.27 503.65 C 266.39 504.21, 266.02 504.52, 265.29 505.79 C 264.57 507.06, 264.28 507.92, 263.66 509.99 C 263.04 512.06, 262.76 513.47, 262.18 516.14 C 261.60 518.82, 261.26 520.56, 260.76 523.37 C 260.27 526.18, 259.96 527.87, 259.70 530.17 C 259.45 532.47, 259.45 533.65, 259.49 534.87 C 259.52 536.09, 259.69 536.44, 259.86 536.26 C 260.02 536.07, 260.17 535.51, 260.32 533.93 C 260.47 532.35, 260.52 530.99, 260.62 528.36 C 260.71 525.72, 260.68 523.86, 260.78 520.77 C 260.88 517.67, 261.15 515.79, 261.13 512.87 C 261.10 509.95, 261.12 508.42, 260.67 506.19 C 260.21 503.96, 259.86 502.98, 258.85 501.72 C 257.84 500.45, 257.16 500.12, 255.60 499.86 C 254.03 499.60, 253.08 499.88, 251.03 500.40 C 248.98 500.93, 247.78 501.58, 245.34 502.48 C 242.91 503.38, 241.51 504.02, 238.85 504.91 C 236.19 505.80, 234.69 506.27, 232.04 506.93 C 229.39 507.59, 227.93 507.83, 225.61 508.23 C 223.28 508.62, 222.11 508.66, 220.40 508.89 C 218.70 509.13, 218.07 509.21, 217.09 509.40 C 216.11 509.59, 215.85 509.56, 215.50 509.84 C 215.16 510.13, 215.07 510.46, 215.38 510.82" style="stroke: black; fill: black;"/><path d="M 333.26,471.21 C 332.99 471.51, 332.66 472.07, 332.62 472.24 C 332.59 472.41, 332.72 472.51, 333.08 472.08 C 333.43 471.65, 334.07 470.54, 334.39 470.08 C 334.70 469.63, 334.73 469.66, 334.65 469.79 C 334.57 469.93, 334.25 470.47, 333.97 470.76 C 333.70 471.04, 333.53 470.91, 333.26 471.21" style="stroke: black; fill: black;"/><path d="M 366.55,474.84 C 367.14 474.54, 367.78 474.06, 368.53 472.78 C 369.28 471.49, 369.75 470.47, 370.30 468.41 C 370.85 466.34, 371.16 464.86, 371.26 462.47 C 371.37 460.07, 371.26 458.61, 370.84 456.41 C 370.42 454.21, 370.07 453.03, 369.18 451.48 C 368.28 449.92, 367.63 449.19, 366.35 448.66 C 365.07 448.12, 364.20 448.03, 362.77 448.79 C 361.34 449.55, 360.41 450.18, 359.20 452.47 C 357.99 454.77, 357.54 456.36, 356.70 460.26 C 355.86 464.17, 355.54 466.63, 354.99 472.00 C 354.44 477.38, 354.22 480.62, 353.94 487.13 C 353.66 493.64, 353.63 497.41, 353.59 504.55 C 353.55 511.69, 353.63 515.69, 353.74 522.83 C 353.86 529.97, 353.97 533.80, 354.14 540.23 C 354.31 546.66, 354.44 549.90, 354.59 554.97 C 354.73 560.03, 354.62 562.36, 354.85 565.55 C 355.09 568.73, 355.38 569.98, 355.74 570.90 C 356.11 571.82, 356.55 571.59, 356.69 570.15 C 356.82 568.71, 356.78 567.05, 356.43 563.70 C 356.07 560.35, 355.55 557.85, 354.90 553.41 C 354.25 548.97, 353.81 546.12, 353.17 541.49 C 352.53 536.87, 352.20 534.34, 351.71 530.29 C 351.22 526.24, 351.06 524.32, 350.73 521.23 C 350.41 518.14, 350.25 516.90, 350.08 514.84 C 349.91 512.79, 349.77 512.07, 349.89 510.97 C 350.01 509.86, 350.07 509.68, 350.69 509.30 C 351.31 508.91, 351.73 509.11, 352.99 509.04 C 354.24 508.97, 355.12 509.12, 356.97 508.97 C 358.82 508.83, 360.03 508.75, 362.25 508.32 C 364.48 507.89, 365.78 507.58, 368.10 506.82 C 370.42 506.07, 371.70 505.54, 373.86 504.53 C 376.02 503.52, 377.16 502.86, 378.89 501.75 C 380.62 500.65, 381.49 499.88, 382.51 499.01 C 383.53 498.14, 383.76 497.56, 384.00 497.40 C 384.24 497.25, 383.95 497.32, 383.70 498.23 C 383.45 499.13, 383.07 499.98, 382.75 501.94 C 382.43 503.91, 382.19 505.42, 382.11 508.04 C 382.04 510.67, 382.07 512.42, 382.37 515.08 C 382.68 517.73, 382.90 519.20, 383.63 521.32 C 384.36 523.45, 384.84 524.49, 386.04 525.69 C 387.24 526.89, 388.06 527.31, 389.62 527.33 C 391.18 527.35, 392.13 526.99, 393.84 525.79 C 395.54 524.59, 396.50 523.55, 398.15 521.32 C 399.79 519.09, 400.54 517.44, 402.04 514.64 C 403.54 511.84, 404.32 510.05, 405.65 507.31 C 406.99 504.56, 407.68 503.04, 408.72 500.91 C 409.77 498.78, 410.16 497.83, 410.86 496.67 C 411.57 495.51, 411.76 495.26, 412.25 495.10 C 412.74 494.94, 412.81 495.28, 413.32 495.85 C 413.84 496.43, 414.04 497.16, 414.81 497.96 C 415.58 498.76, 416.12 499.32, 417.18 499.87 C 418.24 500.43, 418.94 500.68, 420.09 500.74 C 421.24 500.80, 421.95 500.71, 422.95 500.17 C 423.94 499.63, 424.48 499.07, 425.07 498.03 C 425.66 496.99, 425.90 496.22, 425.90 494.98 C 425.91 493.75, 425.74 492.88, 425.10 491.86 C 424.45 490.83, 423.83 490.24, 422.67 489.85 C 421.51 489.46, 420.68 489.39, 419.29 489.89 C 417.89 490.38, 417.06 490.88, 415.71 492.33 C 414.36 493.78, 413.60 494.84, 412.53 497.13 C 411.46 499.42, 410.93 500.95, 410.36 503.78 C 409.80 506.61, 409.61 508.36, 409.70 511.26 C 409.79 514.16, 409.99 515.81, 410.79 518.28 C 411.59 520.74, 412.23 521.99, 413.70 523.59 C 415.17 525.18, 416.17 525.82, 418.15 526.25 C 420.13 526.68, 421.34 526.57, 423.59 525.75 C 425.83 524.92, 427.13 524.09, 429.37 522.12 C 431.60 520.15, 432.71 518.61, 434.78 515.89 C 436.85 513.17, 437.93 511.37, 439.71 508.52 C 441.48 505.68, 442.49 503.93, 443.65 501.66 C 444.81 499.39, 445.11 498.16, 445.50 497.17 C 445.90 496.18, 445.74 496.08, 445.63 496.71 C 445.52 497.34, 445.14 498.28, 444.96 500.30 C 444.78 502.32, 444.56 504.05, 444.73 506.82 C 444.91 509.59, 445.16 511.48, 445.82 514.15 C 446.48 516.81, 446.91 518.25, 448.03 520.15 C 449.15 522.05, 449.86 522.88, 451.41 523.64 C 452.97 524.41, 453.96 524.52, 455.80 523.99 C 457.64 523.46, 458.74 522.76, 460.63 520.99 C 462.53 519.21, 463.46 517.77, 465.27 515.12 C 467.07 512.46, 467.98 510.62, 469.64 507.70 C 471.31 504.79, 472.29 503.06, 473.60 500.54 C 474.91 498.03, 475.46 496.73, 476.19 495.13 C 476.92 493.53, 477.07 492.96, 477.24 492.54 C 477.42 492.12, 477.18 492.31, 477.07 493.04 C 476.95 493.77, 476.65 494.61, 476.68 496.20 C 476.71 497.79, 476.74 499.04, 477.21 500.97 C 477.69 502.91, 478.10 504.15, 479.06 505.86 C 480.03 507.56, 480.66 508.50, 482.04 509.50 C 483.42 510.49, 484.32 510.85, 485.96 510.82 C 487.60 510.80, 488.61 510.46, 490.24 509.36 C 491.87 508.25, 492.79 507.27, 494.12 505.31 C 495.45 503.35, 496.13 501.94, 496.89 499.56 C 497.66 497.18, 497.94 495.68, 497.94 493.42 C 497.93 491.17, 497.74 489.89, 496.86 488.28 C 495.99 486.67, 495.21 485.93, 493.57 485.37 C 491.94 484.81, 490.74 484.82, 488.69 485.49 C 486.63 486.17, 485.35 486.97, 483.32 488.72 C 481.30 490.48, 480.18 491.83, 478.56 494.25 C 476.95 496.67, 476.14 498.26, 475.24 500.82 C 474.34 503.38, 474.04 504.86, 474.07 507.04 C 474.11 509.23, 474.44 510.33, 475.42 511.73 C 476.40 513.13, 477.24 513.66, 478.97 514.04 C 480.71 514.42, 481.91 514.29, 484.09 513.63 C 486.27 512.96, 487.59 512.23, 489.87 510.72 C 492.15 509.21, 493.51 507.94, 495.50 506.08 C 497.49 504.22, 498.52 502.92, 499.82 501.42 C 501.11 499.91, 501.49 499.07, 501.98 498.56 C 502.48 498.06, 502.34 498.10, 502.28 498.88 C 502.22 499.67, 501.83 500.62, 501.69 502.51 C 501.55 504.40, 501.33 505.98, 501.59 508.34 C 501.85 510.71, 502.14 512.28, 503.01 514.35 C 503.87 516.42, 504.46 517.51, 505.91 518.69 C 507.37 519.86, 508.32 520.29, 510.29 520.22 C 512.26 520.14, 513.51 519.87, 515.75 518.32 C 517.98 516.78, 519.15 515.47, 521.47 512.51 C 523.78 509.54, 525.00 507.57, 527.32 503.49 C 529.64 499.40, 530.90 496.90, 533.06 492.09 C 535.23 487.27, 536.36 484.43, 538.13 479.42 C 539.90 474.41, 540.73 471.61, 541.91 467.02 C 543.08 462.43, 543.58 460.06, 544.01 456.45 C 544.44 452.85, 544.52 451.20, 544.08 448.98 C 543.64 446.76, 543.07 445.92, 541.80 445.35 C 540.53 444.77, 539.44 444.81, 537.74 446.11 C 536.03 447.40, 534.95 448.68, 533.28 451.83 C 531.60 454.98, 530.76 457.27, 529.37 461.84 C 527.98 466.41, 527.21 469.33, 526.33 474.69 C 525.46 480.04, 525.08 483.22, 525.00 488.62 C 524.91 494.01, 525.06 496.94, 525.90 501.68 C 526.74 506.43, 527.40 508.74, 529.20 512.35 C 530.99 515.96, 532.17 517.63, 534.85 519.74 C 537.54 521.85, 539.64 522.32, 542.62 522.91 C 545.61 523.51, 547.37 523.13, 549.79 522.69 C 552.21 522.25, 553.80 521.31, 554.73 520.71 C 555.66 520.12, 555.49 519.75, 554.45 519.70 C 553.40 519.65, 551.78 520.29, 549.50 520.46 C 547.23 520.64, 545.75 521.02, 543.06 520.55 C 540.38 520.09, 538.53 519.94, 536.07 518.14 C 533.61 516.34, 532.47 514.91, 530.76 511.56 C 529.04 508.22, 528.31 505.99, 527.47 501.40 C 526.63 496.82, 526.45 493.93, 526.55 488.64 C 526.65 483.36, 527.03 480.21, 527.97 474.97 C 528.91 469.73, 529.76 466.85, 531.27 462.46 C 532.78 458.07, 533.95 455.99, 535.53 453.03 C 537.10 450.07, 538.00 448.99, 539.16 447.65 C 540.32 446.32, 540.72 446.04, 541.32 446.35 C 541.93 446.67, 542.04 447.27, 542.18 449.24 C 542.33 451.22, 542.42 452.75, 542.04 456.23 C 541.66 459.70, 541.36 462.08, 540.29 466.62 C 539.21 471.15, 538.39 473.94, 536.64 478.90 C 534.90 483.85, 533.75 486.67, 531.56 491.40 C 529.36 496.12, 528.06 498.60, 525.67 502.52 C 523.28 506.44, 521.92 508.29, 519.62 511.01 C 517.32 513.73, 516.07 514.70, 514.17 516.12 C 512.27 517.54, 511.48 517.93, 510.12 518.13 C 508.76 518.33, 508.21 518.05, 507.35 517.11 C 506.49 516.17, 506.22 515.25, 505.80 513.42 C 505.37 511.60, 505.42 510.19, 505.23 507.98 C 505.03 505.77, 505.13 504.30, 504.83 502.38 C 504.54 500.46, 504.41 499.40, 503.74 498.39 C 503.06 497.37, 502.61 497.10, 501.45 497.31 C 500.28 497.51, 499.54 498.14, 497.91 499.40 C 496.28 500.67, 495.28 501.92, 493.30 503.65 C 491.32 505.38, 490.06 506.57, 488.02 508.04 C 485.99 509.51, 484.86 510.21, 483.11 510.99 C 481.36 511.78, 480.50 512.02, 479.28 511.96 C 478.07 511.90, 477.58 511.66, 477.03 510.69 C 476.47 509.73, 476.33 508.90, 476.52 507.14 C 476.70 505.37, 477.03 504.09, 477.97 501.87 C 478.90 499.65, 479.70 498.20, 481.19 496.03 C 482.68 493.87, 483.73 492.66, 485.42 491.04 C 487.11 489.41, 488.14 488.67, 489.65 487.92 C 491.17 487.17, 491.95 487.02, 493.00 487.28 C 494.04 487.53, 494.45 488.00, 494.88 489.20 C 495.31 490.40, 495.34 491.42, 495.14 493.30 C 494.95 495.17, 494.65 496.50, 493.92 498.56 C 493.19 500.63, 492.57 501.89, 491.51 503.62 C 490.45 505.36, 489.76 506.25, 488.63 507.26 C 487.50 508.27, 486.89 508.61, 485.87 508.69 C 484.85 508.78, 484.34 508.52, 483.52 507.70 C 482.70 506.87, 482.32 506.08, 481.77 504.58 C 481.21 503.07, 481.12 501.93, 480.73 500.15 C 480.34 498.38, 480.27 497.24, 479.83 495.72 C 479.39 494.20, 479.15 493.35, 478.52 492.55 C 477.89 491.75, 477.55 491.44, 476.69 491.72 C 475.83 492.00, 475.36 492.46, 474.23 493.95 C 473.10 495.43, 472.44 496.68, 471.05 499.16 C 469.66 501.65, 468.92 503.49, 467.28 506.35 C 465.65 509.21, 464.60 510.95, 462.85 513.47 C 461.11 515.98, 460.13 517.23, 458.57 518.94 C 457.01 520.64, 456.31 521.36, 455.06 521.98 C 453.80 522.59, 453.25 522.59, 452.29 522.01 C 451.33 521.43, 450.92 520.75, 450.26 519.05 C 449.60 517.36, 449.36 516.02, 449.00 513.52 C 448.65 511.02, 448.71 509.22, 448.49 506.54 C 448.27 503.87, 448.27 502.21, 447.90 500.16 C 447.53 498.11, 447.33 497.08, 446.62 496.29 C 445.91 495.50, 445.45 495.42, 444.36 496.22 C 443.27 497.01, 442.57 498.07, 441.18 500.25 C 439.80 502.44, 439.15 504.33, 437.45 507.13 C 435.75 509.94, 434.68 511.71, 432.67 514.26 C 430.66 516.82, 429.42 518.10, 427.40 519.93 C 425.39 521.75, 424.37 522.56, 422.61 523.41 C 420.84 524.26, 420.01 524.43, 418.57 524.17 C 417.14 523.90, 416.47 523.42, 415.43 522.10 C 414.39 520.77, 413.92 519.70, 413.37 517.52 C 412.82 515.35, 412.67 513.84, 412.69 511.22 C 412.71 508.60, 412.91 506.97, 413.45 504.42 C 414.00 501.86, 414.52 500.48, 415.42 498.45 C 416.32 496.42, 416.98 495.52, 417.96 494.26 C 418.93 493.00, 419.48 492.62, 420.28 492.16 C 421.08 491.69, 421.44 491.75, 421.95 491.93 C 422.46 492.11, 422.61 492.46, 422.83 493.06 C 423.05 493.66, 423.07 494.18, 423.04 494.93 C 423.01 495.69, 422.94 496.20, 422.69 496.84 C 422.44 497.48, 422.25 497.86, 421.79 498.15 C 421.33 498.44, 421.01 498.46, 420.40 498.30 C 419.78 498.14, 419.42 497.86, 418.70 497.34 C 417.98 496.83, 417.64 496.37, 416.79 495.73 C 415.93 495.09, 415.42 494.54, 414.44 494.14 C 413.45 493.75, 412.92 493.49, 411.88 493.74 C 410.84 494.00, 410.36 494.24, 409.25 495.42 C 408.14 496.60, 407.56 497.51, 406.34 499.64 C 405.11 501.76, 404.48 503.33, 403.11 506.05 C 401.74 508.76, 400.98 510.54, 399.47 513.23 C 397.96 515.91, 397.00 517.35, 395.54 519.46 C 394.09 521.58, 393.38 522.59, 392.18 523.80 C 390.98 525.01, 390.47 525.40, 389.54 525.52 C 388.62 525.64, 388.23 525.37, 387.57 524.39 C 386.90 523.41, 386.61 522.51, 386.21 520.60 C 385.81 518.69, 385.66 517.31, 385.57 514.83 C 385.47 512.34, 385.62 510.69, 385.71 508.16 C 385.80 505.63, 386.03 504.21, 386.02 502.19 C 386.00 500.18, 386.02 499.26, 385.63 498.09 C 385.24 496.92, 384.93 496.56, 384.06 496.34 C 383.18 496.13, 382.58 496.41, 381.26 497.01 C 379.93 497.61, 379.15 498.37, 377.43 499.34 C 375.71 500.32, 374.69 500.98, 372.65 501.90 C 370.60 502.82, 369.39 503.28, 367.20 503.95 C 365.00 504.61, 363.79 504.83, 361.67 505.22 C 359.55 505.61, 358.44 505.60, 356.62 505.88 C 354.79 506.16, 353.92 506.18, 352.53 506.61 C 351.14 507.04, 350.54 507.21, 349.67 508.02 C 348.80 508.83, 348.53 509.26, 348.18 510.65 C 347.84 512.03, 347.87 512.80, 347.94 514.96 C 348.01 517.13, 348.16 518.37, 348.53 521.48 C 348.90 524.59, 349.25 526.48, 349.80 530.53 C 350.34 534.58, 350.70 537.11, 351.26 541.74 C 351.81 546.38, 352.09 549.24, 352.58 553.71 C 353.08 558.17, 353.19 560.73, 353.72 564.06 C 354.26 567.40, 354.69 569.01, 355.27 570.37 C 355.84 571.73, 356.29 571.86, 356.60 570.87 C 356.91 569.88, 356.92 568.63, 356.80 565.44 C 356.69 562.25, 356.31 559.95, 356.02 554.90 C 355.73 549.85, 355.58 546.61, 355.36 540.19 C 355.13 533.77, 355.01 529.94, 354.89 522.81 C 354.78 515.68, 354.70 511.68, 354.78 504.56 C 354.86 497.43, 354.92 493.67, 355.30 487.20 C 355.67 480.73, 355.93 477.48, 356.66 472.20 C 357.38 466.93, 357.90 464.50, 358.91 460.80 C 359.91 457.10, 360.68 455.79, 361.67 453.72 C 362.66 451.64, 363.06 451.11, 363.84 450.41 C 364.63 449.71, 364.95 449.77, 365.57 450.20 C 366.20 450.62, 366.51 451.19, 366.98 452.52 C 367.45 453.85, 367.72 454.89, 367.91 456.84 C 368.11 458.79, 368.10 460.10, 367.94 462.27 C 367.78 464.44, 367.45 465.78, 367.11 467.69 C 366.76 469.61, 366.53 470.53, 366.23 471.85 C 365.93 473.17, 365.53 473.69, 365.60 474.29 C 365.66 474.89, 365.96 475.14, 366.55 474.84" style="stroke: black; fill: black;"/><path d="M 613.59,444.52 C 613.30 444.92, 613.23 445.17, 613.04 446.49 C 612.84 447.82, 612.66 448.64, 612.62 451.14 C 612.57 453.63, 612.77 455.26, 612.79 458.96 C 612.81 462.67, 612.80 465.01, 612.72 469.66 C 612.63 474.32, 612.51 477.08, 612.36 482.24 C 612.22 487.40, 612.11 490.33, 612.00 495.45 C 611.89 500.57, 611.84 503.32, 611.82 507.83 C 611.79 512.33, 611.72 514.58, 611.88 517.97 C 612.04 521.35, 612.24 522.73, 612.61 524.75 C 612.97 526.78, 613.31 527.24, 613.71 528.08 C 614.10 528.93, 614.33 528.85, 614.58 529.00 C 614.82 529.14, 614.88 529.05, 614.93 528.81 C 614.97 528.57, 614.86 528.66, 614.80 527.79 C 614.74 526.93, 614.80 526.47, 614.63 524.48 C 614.46 522.49, 614.17 521.18, 613.96 517.85 C 613.74 514.52, 613.62 512.29, 613.55 507.82 C 613.48 503.34, 613.52 500.59, 613.62 495.48 C 613.72 490.38, 613.83 487.45, 614.04 482.30 C 614.25 477.15, 614.41 474.39, 614.66 469.73 C 614.91 465.08, 615.09 462.74, 615.31 459.03 C 615.53 455.31, 615.76 453.67, 615.75 451.16 C 615.73 448.64, 615.48 447.79, 615.23 446.45 C 614.99 445.12, 614.86 444.87, 614.53 444.48 C 614.20 444.09, 613.89 444.11, 613.59 444.52" style="stroke: black; fill: black;"/><path d="M 626.09,498.85 C 625.73 499.40, 625.58 500.07, 625.35 501.62 C 625.12 503.17, 625.03 504.28, 624.96 506.58 C 624.89 508.87, 624.87 510.53, 625.00 513.10 C 625.14 515.67, 625.23 517.23, 625.64 519.44 C 626.06 521.64, 626.31 522.80, 627.08 524.12 C 627.85 525.44, 628.38 525.92, 629.49 526.03 C 630.60 526.14, 631.32 525.84, 632.61 524.67 C 633.90 523.49, 634.64 522.38, 635.93 520.16 C 637.23 517.94, 637.85 516.24, 639.09 513.59 C 640.33 510.93, 641.14 509.18, 642.15 506.88 C 643.17 504.58, 643.62 503.30, 644.16 502.07 C 644.70 500.85, 644.74 500.51, 644.85 500.75 C 644.96 501.00, 644.77 501.66, 644.70 503.30 C 644.63 504.94, 644.44 506.43, 644.52 508.97 C 644.61 511.51, 644.70 513.31, 645.14 515.99 C 645.58 518.67, 645.85 520.25, 646.72 522.37 C 647.59 524.49, 648.14 525.58, 649.50 526.59 C 650.86 527.60, 651.77 527.88, 653.52 527.41 C 655.28 526.95, 656.42 526.30, 658.28 524.28 C 660.15 522.25, 661.01 520.69, 662.85 517.28 C 664.68 513.87, 665.65 511.64, 667.46 507.23 C 669.27 502.83, 670.22 500.15, 671.90 495.26 C 673.58 490.36, 674.41 487.55, 675.86 482.76 C 677.31 477.98, 677.99 475.39, 679.14 471.33 C 680.28 467.26, 680.98 465.31, 681.58 462.45 C 682.19 459.58, 682.25 458.26, 682.18 457.00 C 682.11 455.74, 681.72 455.48, 681.22 456.15 C 680.72 456.82, 680.12 457.75, 679.70 460.36 C 679.27 462.97, 679.31 464.99, 679.09 469.21 C 678.86 473.42, 678.75 476.24, 678.56 481.43 C 678.38 486.62, 678.26 489.76, 678.17 495.17 C 678.09 500.57, 678.07 503.61, 678.15 508.46 C 678.22 513.31, 678.21 515.78, 678.55 519.41 C 678.89 523.03, 679.13 524.70, 679.86 526.58 C 680.58 528.47, 681.28 528.96, 682.17 528.85 C 683.07 528.74, 683.70 527.91, 684.34 526.05 C 684.97 524.18, 685.30 522.43, 685.34 519.51 C 685.38 516.58, 685.10 514.51, 684.55 511.42 C 684.00 508.34, 683.58 506.50, 682.58 504.08 C 681.58 501.65, 680.83 500.56, 679.55 499.30 C 678.27 498.04, 677.40 497.79, 676.18 497.78 C 674.96 497.78, 674.16 498.26, 673.46 499.29 C 672.76 500.33, 672.44 501.36, 672.70 502.96 C 672.96 504.56, 673.43 505.72, 674.74 507.27 C 676.06 508.82, 677.10 509.70, 679.27 510.72 C 681.45 511.74, 682.88 512.19, 685.61 512.37 C 688.34 512.55, 689.98 512.38, 692.92 511.61 C 695.85 510.85, 697.48 510.11, 700.29 508.55 C 703.10 506.99, 704.62 505.90, 706.99 503.83 C 709.35 501.75, 710.54 500.43, 712.10 498.18 C 713.66 495.94, 714.26 494.61, 714.78 492.62 C 715.31 490.63, 715.26 489.56, 714.73 488.26 C 714.19 486.95, 713.47 486.33, 712.09 486.10 C 710.71 485.87, 709.55 486.02, 707.83 487.09 C 706.10 488.15, 704.98 489.15, 703.45 491.43 C 701.92 493.70, 701.17 495.37, 700.19 498.47 C 699.21 501.58, 698.81 503.56, 698.56 506.96 C 698.31 510.35, 698.31 512.35, 698.94 515.45 C 699.56 518.54, 700.14 520.21, 701.67 522.42 C 703.20 524.62, 704.32 525.60, 706.57 526.47 C 708.83 527.33, 710.29 527.50, 712.96 526.75 C 715.62 526.01, 717.11 525.08, 719.88 522.74 C 722.66 520.41, 724.11 518.69, 726.82 515.06 C 729.53 511.43, 730.92 509.13, 733.42 504.59 C 735.93 500.06, 737.20 497.34, 739.34 492.40 C 741.47 487.46, 742.50 484.60, 744.10 479.89 C 745.70 475.17, 746.41 472.68, 747.35 468.83 C 748.28 464.98, 748.69 463.21, 748.77 460.65 C 748.85 458.09, 748.53 457.05, 747.76 456.02 C 746.99 454.99, 746.25 454.82, 744.93 455.49 C 743.61 456.16, 742.53 456.96, 741.18 459.37 C 739.82 461.78, 739.25 463.68, 738.15 467.56 C 737.04 471.45, 736.46 473.99, 735.66 478.80 C 734.85 483.61, 734.44 486.55, 734.12 491.62 C 733.79 496.70, 733.73 499.56, 734.02 504.18 C 734.31 508.80, 734.58 511.16, 735.56 514.72 C 736.54 518.27, 737.21 519.91, 738.91 521.94 C 740.61 523.98, 741.82 524.61, 744.07 524.89 C 746.33 525.17, 747.76 524.85, 750.19 523.35 C 752.61 521.84, 753.87 520.43, 756.20 517.36 C 758.53 514.29, 759.71 512.18, 761.83 508.00 C 763.95 503.82, 765.01 501.20, 766.78 496.46 C 768.56 491.72, 769.41 488.95, 770.72 484.28 C 772.02 479.61, 772.56 477.05, 773.31 473.11 C 774.06 469.17, 774.45 467.29, 774.48 464.58 C 774.51 461.87, 774.20 460.77, 773.44 459.55 C 772.69 458.33, 771.99 458.04, 770.69 458.49 C 769.39 458.94, 768.34 459.60, 766.96 461.79 C 765.58 463.99, 764.93 465.77, 763.79 469.46 C 762.64 473.15, 762.08 475.62, 761.24 480.25 C 760.40 484.88, 759.97 487.73, 759.60 492.62 C 759.23 497.51, 759.14 500.27, 759.38 504.69 C 759.61 509.12, 759.85 511.37, 760.78 514.75 C 761.72 518.13, 762.40 519.63, 764.06 521.60 C 765.72 523.57, 766.88 524.20, 769.08 524.61 C 771.29 525.01, 772.65 524.75, 775.07 523.64 C 777.49 522.53, 778.82 521.33, 781.17 519.04 C 783.53 516.76, 784.75 515.01, 786.86 512.20 C 788.97 509.40, 790.16 507.61, 791.73 505.01 C 793.30 502.42, 793.98 500.87, 794.70 499.23 C 795.42 497.58, 795.39 496.93, 795.35 496.79 C 795.30 496.65, 794.86 497.14, 794.46 498.52 C 794.06 499.89, 793.58 501.24, 793.36 503.67 C 793.13 506.11, 793.08 507.98, 793.35 510.69 C 793.62 513.40, 793.92 515.01, 794.71 517.23 C 795.51 519.44, 796.02 520.53, 797.34 521.78 C 798.66 523.04, 799.56 523.46, 801.30 523.51 C 803.04 523.56, 804.12 523.20, 806.04 522.02 C 807.97 520.84, 809.07 519.78, 810.92 517.61 C 812.77 515.44, 813.67 513.81, 815.29 511.17 C 816.92 508.52, 817.91 506.76, 819.03 504.39 C 820.14 502.03, 820.50 500.62, 820.87 499.32 C 821.24 498.03, 821.05 497.68, 820.88 497.91 C 820.71 498.14, 820.26 498.86, 820.03 500.48 C 819.80 502.11, 819.48 503.65, 819.73 506.03 C 819.97 508.41, 820.30 510.11, 821.25 512.39 C 822.20 514.68, 822.92 515.92, 824.49 517.47 C 826.06 519.02, 827.07 519.65, 829.09 520.14 C 831.11 520.64, 832.35 520.60, 834.60 519.95 C 836.84 519.30, 838.16 518.56, 840.32 516.89 C 842.48 515.22, 843.67 513.92, 845.38 511.60 C 847.08 509.27, 847.94 507.73, 848.84 505.27 C 849.74 502.80, 850.04 501.35, 849.89 499.28 C 849.74 497.22, 849.32 496.17, 848.09 494.93 C 846.85 493.69, 845.76 493.22, 843.71 493.10 C 841.66 492.98, 840.20 493.29, 837.84 494.33 C 835.47 495.37, 834.03 496.38, 831.88 498.28 C 829.74 500.18, 828.59 501.54, 827.09 503.83 C 825.60 506.12, 824.94 507.51, 824.40 509.75 C 823.86 511.99, 823.87 513.19, 824.41 515.03 C 824.95 516.88, 825.59 517.74, 827.09 518.97 C 828.60 520.20, 829.74 520.63, 831.93 521.17 C 834.11 521.70, 835.54 521.69, 838.03 521.67 C 840.53 521.64, 842.00 521.35, 844.41 521.04 C 846.81 520.73, 848.12 520.30, 850.07 520.13 C 852.02 519.95, 852.88 519.72, 854.14 520.16 C 855.39 520.60, 855.80 520.95, 856.36 522.33 C 856.92 523.71, 856.93 524.67, 856.93 527.07 C 856.92 529.47, 856.83 531.06, 856.34 534.32 C 855.84 537.59, 855.43 539.66, 854.45 543.39 C 853.47 547.12, 852.76 549.32, 851.43 552.96 C 850.09 556.60, 849.23 558.58, 847.78 561.58 C 846.34 564.59, 845.45 566.02, 844.21 567.99 C 842.98 569.97, 842.44 570.75, 841.60 571.46 C 840.76 572.18, 840.46 572.20, 840.01 571.58 C 839.55 570.97, 839.45 570.24, 839.32 568.38 C 839.20 566.53, 839.16 565.13, 839.36 562.30 C 839.56 559.46, 839.57 557.64, 840.34 554.20 C 841.10 550.76, 841.71 548.76, 843.17 545.09 C 844.63 541.42, 845.61 539.45, 847.64 535.86 C 849.68 532.28, 850.91 530.49, 853.34 527.17 C 855.77 523.85, 857.18 522.24, 859.82 519.27 C 862.45 516.29, 863.92 514.88, 866.52 512.29 C 869.12 509.70, 870.50 508.52, 872.82 506.31 C 875.13 504.10, 876.34 503.11, 878.10 501.24 C 879.86 499.36, 880.64 498.48, 881.62 496.93 C 882.60 495.37, 882.91 494.66, 883.02 493.46 C 883.13 492.26, 882.91 491.64, 882.17 490.91 C 881.43 490.18, 880.68 489.82, 879.32 489.81 C 877.95 489.81, 876.93 490.01, 875.34 490.88 C 873.74 491.75, 872.78 492.50, 871.34 494.18 C 869.91 495.87, 869.14 497.03, 868.16 499.30 C 867.18 501.58, 866.73 503.04, 866.45 505.57 C 866.16 508.09, 866.20 509.60, 866.73 511.94 C 867.27 514.28, 867.81 515.54, 869.13 517.27 C 870.45 518.99, 871.41 519.76, 873.32 520.56 C 875.23 521.35, 876.45 521.51, 878.70 521.24 C 880.95 520.97, 882.25 520.49, 884.57 519.23 C 886.90 517.98, 888.16 516.95, 890.32 514.96 C 892.49 512.97, 893.61 511.57, 895.41 509.28 C 897.20 506.99, 898.14 505.47, 899.29 503.49 C 900.43 501.51, 900.78 500.36, 901.12 499.37 C 901.47 498.38, 901.27 498.18, 901.02 498.55 C 900.77 498.93, 900.32 499.65, 899.89 501.25 C 899.46 502.86, 899.07 504.31, 898.86 506.57 C 898.66 508.84, 898.65 510.44, 898.86 512.58 C 899.08 514.71, 899.26 515.86, 899.93 517.24 C 900.61 518.63, 901.10 519.18, 902.22 519.51 C 903.34 519.83, 904.09 519.71, 905.52 518.87 C 906.94 518.03, 907.82 517.13, 909.36 515.31 C 910.90 513.49, 911.77 512.04, 913.23 509.77 C 914.69 507.50, 915.51 505.95, 916.66 503.97 C 917.80 501.99, 918.33 500.89, 918.95 499.86 C 919.57 498.83, 919.65 498.56, 919.76 498.81 C 919.87 499.07, 919.63 499.68, 919.50 501.14 C 919.38 502.61, 919.14 503.93, 919.15 506.15 C 919.16 508.37, 919.17 509.94, 919.55 512.25 C 919.93 514.57, 920.19 515.91, 921.04 517.71 C 921.89 519.51, 922.44 520.37, 923.79 521.26 C 925.15 522.14, 926.02 522.37, 927.80 522.12 C 929.59 521.88, 930.69 521.40, 932.70 520.03 C 934.70 518.66, 935.81 517.47, 937.84 515.26 C 939.87 513.05, 940.93 511.46, 942.87 508.96 C 944.80 506.46, 945.93 505.00, 947.52 502.77 C 949.11 500.54, 949.86 499.37, 950.82 497.81 C 951.78 496.26, 952.08 495.68, 952.32 494.98 C 952.55 494.28, 952.40 494.18, 952.00 494.31 C 951.59 494.45, 951.06 494.72, 950.29 495.65 C 949.52 496.57, 948.98 497.34, 948.16 498.93 C 947.34 500.53, 946.93 501.64, 946.18 503.62 C 945.44 505.60, 944.98 506.76, 944.44 508.85 C 943.91 510.93, 943.61 512.09, 943.49 514.02 C 943.37 515.96, 943.38 516.98, 943.85 518.52 C 944.32 520.07, 944.74 520.81, 945.83 521.74 C 946.92 522.67, 947.70 523.01, 949.30 523.15 C 950.91 523.30, 951.92 523.14, 953.86 522.47 C 955.79 521.80, 956.91 521.18, 958.99 519.79 C 961.07 518.40, 962.23 517.42, 964.27 515.52 C 966.31 513.62, 967.42 512.42, 969.18 510.29 C 970.94 508.15, 971.83 506.93, 973.07 504.85 C 974.31 502.78, 974.83 501.71, 975.37 499.93 C 975.90 498.15, 975.99 497.25, 975.74 495.95 C 975.50 494.64, 975.11 494.04, 974.14 493.40 C 973.17 492.76, 972.34 492.54, 970.89 492.75 C 969.45 492.96, 968.47 493.32, 966.93 494.45 C 965.39 495.57, 964.51 496.49, 963.20 498.38 C 961.89 500.27, 961.19 501.52, 960.38 503.91 C 959.57 506.29, 959.22 507.75, 959.16 510.30 C 959.11 512.85, 959.26 514.32, 960.10 516.66 C 960.95 519.00, 961.66 520.22, 963.39 521.99 C 965.12 523.76, 966.30 524.54, 968.74 525.51 C 971.17 526.49, 972.71 526.77, 975.58 526.86 C 978.45 526.96, 980.35 526.60, 983.11 525.97 C 985.86 525.34, 987.33 524.66, 989.34 523.72 C 991.35 522.78, 992.46 521.94, 993.14 521.27 C 993.82 520.60, 993.66 520.32, 992.74 520.36 C 991.82 520.40, 990.58 520.95, 988.53 521.47 C 986.48 522.00, 985.06 522.49, 982.48 522.99 C 979.90 523.48, 978.18 523.94, 975.62 523.95 C 973.06 523.96, 971.76 523.80, 969.68 523.05 C 967.59 522.30, 966.63 521.66, 965.22 520.21 C 963.80 518.76, 963.24 517.75, 962.60 515.79 C 961.95 513.83, 961.86 512.58, 961.99 510.41 C 962.12 508.23, 962.47 506.96, 963.23 504.91 C 963.98 502.86, 964.66 501.78, 965.78 500.17 C 966.90 498.55, 967.68 497.84, 968.83 496.82 C 969.97 495.80, 970.61 495.48, 971.50 495.09 C 972.39 494.69, 972.82 494.63, 973.30 494.84 C 973.78 495.05, 973.93 495.27, 973.90 496.13 C 973.86 496.98, 973.74 497.67, 973.11 499.12 C 972.48 500.57, 971.99 501.54, 970.75 503.39 C 969.51 505.23, 968.62 506.38, 966.90 508.36 C 965.18 510.33, 964.09 511.46, 962.16 513.24 C 960.22 515.01, 959.11 515.91, 957.23 517.22 C 955.36 518.53, 954.37 519.06, 952.79 519.78 C 951.22 520.50, 950.49 520.71, 949.36 520.80 C 948.23 520.88, 947.79 520.77, 947.14 520.21 C 946.49 519.64, 946.29 519.16, 946.11 517.98 C 945.92 516.80, 945.95 515.96, 946.20 514.30 C 946.45 512.64, 946.73 511.57, 947.34 509.68 C 947.95 507.80, 948.43 506.70, 949.25 504.86 C 950.06 503.02, 950.69 502.08, 951.40 500.47 C 952.10 498.87, 952.48 498.05, 952.75 496.85 C 953.02 495.65, 953.02 495.00, 952.74 494.45 C 952.47 493.90, 952.16 493.72, 951.38 494.10 C 950.60 494.47, 950.10 494.95, 948.85 496.34 C 947.60 497.72, 946.80 498.85, 945.15 501.02 C 943.50 503.19, 942.53 504.76, 940.60 507.19 C 938.68 509.61, 937.47 511.04, 935.54 513.14 C 933.60 515.25, 932.58 516.33, 930.94 517.70 C 929.30 519.07, 928.55 519.60, 927.35 520.00 C 926.14 520.40, 925.68 520.34, 924.91 519.70 C 924.14 519.06, 923.89 518.37, 923.48 516.80 C 923.07 515.24, 923.03 514.02, 922.88 511.86 C 922.73 509.70, 922.90 508.21, 922.73 506.01 C 922.56 503.80, 922.52 502.45, 922.04 500.85 C 921.56 499.25, 921.24 498.49, 920.35 498.01 C 919.45 497.53, 918.82 497.63, 917.56 498.47 C 916.30 499.30, 915.51 500.33, 914.05 502.20 C 912.59 504.08, 911.74 505.62, 910.26 507.83 C 908.79 510.04, 907.93 511.42, 906.68 513.27 C 905.43 515.11, 904.85 516.05, 904.02 517.04 C 903.20 518.03, 902.97 518.31, 902.57 518.22 C 902.17 518.14, 902.10 517.77, 902.02 516.62 C 901.95 515.48, 902.04 514.47, 902.18 512.52 C 902.32 510.56, 902.63 509.06, 902.74 506.85 C 902.86 504.64, 902.93 503.18, 902.75 501.47 C 902.57 499.75, 902.42 498.90, 901.84 498.28 C 901.26 497.66, 900.84 497.65, 899.84 498.37 C 898.85 499.09, 898.23 500.08, 896.87 501.89 C 895.50 503.69, 894.73 505.22, 893.01 507.40 C 891.29 509.57, 890.24 510.88, 888.26 512.75 C 886.29 514.62, 885.14 515.54, 883.16 516.74 C 881.17 517.93, 880.12 518.39, 878.33 518.72 C 876.54 519.05, 875.65 518.98, 874.21 518.40 C 872.76 517.81, 872.08 517.22, 871.12 515.82 C 870.15 514.41, 869.75 513.37, 869.40 511.39 C 869.04 509.42, 869.04 508.11, 869.35 505.93 C 869.66 503.76, 870.07 502.47, 870.94 500.52 C 871.81 498.58, 872.52 497.61, 873.72 496.20 C 874.91 494.80, 875.74 494.31, 876.92 493.51 C 878.10 492.71, 878.77 492.51, 879.63 492.22 C 880.49 491.93, 880.87 491.86, 881.22 492.04 C 881.58 492.23, 881.68 492.41, 881.39 493.13 C 881.11 493.85, 880.83 494.37, 879.81 495.65 C 878.79 496.93, 878.01 497.72, 876.29 499.52 C 874.57 501.32, 873.45 502.40, 871.21 504.67 C 868.96 506.93, 867.62 508.19, 865.06 510.86 C 862.49 513.52, 861.02 514.96, 858.37 518.00 C 855.73 521.04, 854.30 522.67, 851.82 526.05 C 849.34 529.43, 848.08 531.25, 845.97 534.90 C 843.85 538.55, 842.83 540.55, 841.23 544.29 C 839.63 548.03, 838.94 550.05, 837.95 553.60 C 836.96 557.16, 836.53 559.01, 836.28 562.06 C 836.03 565.11, 836.16 566.71, 836.71 568.83 C 837.26 570.95, 837.89 571.87, 839.04 572.67 C 840.19 573.48, 841.01 573.51, 842.44 572.84 C 843.87 572.18, 844.72 571.40, 846.21 569.34 C 847.70 567.29, 848.42 565.70, 849.87 562.57 C 851.32 559.44, 852.11 557.42, 853.46 553.71 C 854.81 549.99, 855.55 547.79, 856.65 544.00 C 857.74 540.21, 858.31 538.16, 858.93 534.76 C 859.55 531.36, 859.87 529.68, 859.75 527.01 C 859.63 524.33, 859.30 523.13, 858.33 521.37 C 857.37 519.62, 856.61 519.01, 854.94 518.23 C 853.27 517.45, 852.16 517.50, 849.98 517.46 C 847.81 517.42, 846.48 517.80, 844.07 518.03 C 841.67 518.26, 840.28 518.52, 837.97 518.60 C 835.65 518.68, 834.38 518.73, 832.48 518.44 C 830.58 518.15, 829.65 517.95, 828.45 517.15 C 827.25 516.36, 826.78 515.82, 826.46 514.48 C 826.13 513.13, 826.20 512.23, 826.81 510.44 C 827.43 508.64, 828.08 507.45, 829.52 505.50 C 830.95 503.55, 832.06 502.35, 833.98 500.67 C 835.91 498.98, 837.19 498.09, 839.15 497.05 C 841.10 496.02, 842.21 495.63, 843.74 495.47 C 845.26 495.32, 845.99 495.50, 846.76 496.26 C 847.53 497.03, 847.72 497.72, 847.61 499.31 C 847.50 500.89, 847.14 502.10, 846.19 504.19 C 845.25 506.29, 844.45 507.69, 842.90 509.76 C 841.35 511.84, 840.27 513.03, 838.45 514.57 C 836.63 516.12, 835.56 516.83, 833.79 517.50 C 832.02 518.17, 831.11 518.28, 829.62 517.94 C 828.12 517.59, 827.40 517.10, 826.33 515.78 C 825.27 514.45, 824.87 513.36, 824.28 511.32 C 823.69 509.28, 823.72 507.77, 823.39 505.57 C 823.06 503.38, 823.03 501.95, 822.63 500.34 C 822.22 498.73, 822.03 497.92, 821.35 497.53 C 820.68 497.14, 820.26 497.29, 819.24 498.37 C 818.23 499.45, 817.57 500.70, 816.26 502.94 C 814.95 505.17, 814.25 507.03, 812.68 509.56 C 811.12 512.09, 810.09 513.52, 808.45 515.57 C 806.82 517.63, 805.94 518.64, 804.50 519.84 C 803.06 521.04, 802.38 521.45, 801.25 521.56 C 800.12 521.67, 799.61 521.42, 798.85 520.40 C 798.08 519.38, 797.80 518.46, 797.41 516.47 C 797.02 514.47, 797.00 512.97, 796.91 510.44 C 796.81 507.90, 796.98 506.16, 796.91 503.79 C 796.85 501.42, 796.89 500.07, 796.57 498.57 C 796.25 497.08, 796.06 496.41, 795.32 496.31 C 794.57 496.21, 794.05 496.63, 792.85 498.07 C 791.65 499.51, 790.94 501.00, 789.32 503.51 C 787.70 506.02, 786.77 507.92, 784.76 510.64 C 782.75 513.36, 781.43 514.95, 779.27 517.11 C 777.11 519.26, 775.92 520.30, 773.94 521.42 C 771.97 522.54, 771.05 522.95, 769.39 522.72 C 767.73 522.50, 766.97 522.02, 765.64 520.32 C 764.31 518.61, 763.64 517.34, 762.75 514.20 C 761.86 511.05, 761.47 508.88, 761.19 504.59 C 760.92 500.30, 760.98 497.55, 761.38 492.76 C 761.78 487.97, 762.24 485.14, 763.20 480.63 C 764.16 476.13, 764.94 473.75, 766.18 470.25 C 767.42 466.76, 768.36 465.28, 769.39 463.16 C 770.42 461.03, 770.78 460.25, 771.35 459.64 C 771.92 459.02, 772.07 459.08, 772.24 460.06 C 772.41 461.03, 772.37 461.95, 772.21 464.50 C 772.04 467.04, 772.05 468.91, 771.42 472.78 C 770.80 476.65, 770.32 479.22, 769.07 483.83 C 767.82 488.44, 766.96 491.19, 765.18 495.85 C 763.39 500.50, 762.28 503.08, 760.13 507.11 C 757.97 511.14, 756.67 513.13, 754.41 515.97 C 752.16 518.81, 750.88 519.89, 748.85 521.31 C 746.82 522.73, 745.93 523.20, 744.26 523.08 C 742.59 522.95, 741.84 522.46, 740.48 520.68 C 739.12 518.90, 738.40 517.51, 737.45 514.19 C 736.51 510.86, 736.08 508.55, 735.76 504.06 C 735.43 499.57, 735.47 496.72, 735.83 491.74 C 736.18 486.76, 736.60 483.83, 737.53 479.14 C 738.45 474.45, 739.20 471.97, 740.45 468.28 C 741.70 464.59, 742.70 463.03, 743.78 460.71 C 744.86 458.38, 745.25 457.50, 745.85 456.66 C 746.45 455.83, 746.61 455.77, 746.77 456.53 C 746.92 457.30, 746.87 458.13, 746.62 460.50 C 746.37 462.88, 746.33 464.63, 745.52 468.41 C 744.70 472.18, 744.08 474.70, 742.56 479.37 C 741.04 484.05, 740.02 486.90, 737.90 491.78 C 735.78 496.65, 734.48 499.35, 731.96 503.77 C 729.43 508.19, 727.98 510.44, 725.28 513.88 C 722.57 517.32, 721.01 518.85, 718.41 520.96 C 715.81 523.08, 714.48 523.74, 712.27 524.45 C 710.06 525.15, 709.06 525.15, 707.34 524.48 C 705.62 523.81, 704.85 523.01, 703.68 521.10 C 702.51 519.20, 702.00 517.74, 701.50 514.96 C 701.00 512.17, 700.88 510.28, 701.16 507.17 C 701.45 504.06, 701.93 502.18, 702.92 499.38 C 703.91 496.59, 704.82 495.21, 706.12 493.18 C 707.42 491.16, 708.25 490.32, 709.42 489.24 C 710.59 488.17, 711.24 487.90, 711.98 487.80 C 712.73 487.70, 713.04 487.92, 713.15 488.74 C 713.27 489.56, 713.21 490.31, 712.56 491.88 C 711.91 493.46, 711.35 494.61, 709.88 496.59 C 708.41 498.58, 707.39 499.89, 705.21 501.82 C 703.04 503.74, 701.61 504.80, 699.01 506.21 C 696.41 507.62, 694.86 508.21, 692.22 508.86 C 689.58 509.51, 688.15 509.63, 685.81 509.47 C 683.47 509.31, 682.30 508.88, 680.54 508.04 C 678.77 507.20, 678.04 506.43, 676.99 505.29 C 675.94 504.15, 675.66 503.36, 675.28 502.33 C 674.89 501.30, 674.90 500.74, 675.07 500.13 C 675.23 499.51, 675.52 499.15, 676.09 499.26 C 676.67 499.37, 677.19 499.50, 677.95 500.66 C 678.71 501.82, 679.22 502.79, 679.91 505.04 C 680.59 507.30, 681.00 509.01, 681.38 511.92 C 681.76 514.82, 681.69 516.81, 681.82 519.56 C 681.96 522.32, 682.00 523.93, 682.05 525.68 C 682.10 527.42, 682.16 528.20, 682.06 528.28 C 681.97 528.37, 681.87 527.92, 681.57 526.11 C 681.27 524.29, 680.89 522.75, 680.54 519.21 C 680.19 515.68, 679.96 513.22, 679.81 508.42 C 679.66 503.62, 679.68 500.58, 679.79 495.20 C 679.90 489.82, 680.05 486.68, 680.38 481.52 C 680.72 476.36, 681.04 473.57, 681.47 469.40 C 681.90 465.22, 682.41 463.28, 682.53 460.65 C 682.65 458.03, 682.42 457.04, 682.09 456.25 C 681.76 455.47, 681.45 455.60, 680.89 456.73 C 680.32 457.87, 679.98 459.09, 679.28 461.91 C 678.57 464.74, 678.37 466.79, 677.37 470.86 C 676.38 474.94, 675.69 477.52, 674.28 482.29 C 672.87 487.06, 672.03 489.87, 670.31 494.70 C 668.59 499.54, 667.61 502.20, 665.70 506.48 C 663.80 510.76, 662.68 512.91, 660.78 516.10 C 658.87 519.29, 657.76 520.53, 656.18 522.43 C 654.60 524.34, 653.98 525.06, 652.88 525.62 C 651.78 526.19, 651.41 526.05, 650.69 525.24 C 649.98 524.42, 649.75 523.47, 649.31 521.54 C 648.88 519.60, 648.76 518.12, 648.53 515.55 C 648.29 512.99, 648.39 511.24, 648.13 508.72 C 647.86 506.19, 647.77 504.68, 647.21 502.93 C 646.65 501.19, 646.25 500.41, 645.32 500.00 C 644.40 499.59, 643.78 499.80, 642.58 500.89 C 641.38 501.97, 640.64 503.19, 639.33 505.44 C 638.01 507.68, 637.30 509.49, 636.02 512.11 C 634.73 514.74, 633.96 516.34, 632.90 518.55 C 631.85 520.76, 631.40 521.89, 630.73 523.15 C 630.06 524.41, 629.89 524.80, 629.54 524.85 C 629.19 524.90, 629.16 524.54, 628.97 523.39 C 628.79 522.23, 628.72 521.16, 628.62 519.08 C 628.52 516.99, 628.53 515.47, 628.46 512.96 C 628.40 510.45, 628.43 508.80, 628.31 506.53 C 628.18 504.26, 628.05 503.15, 627.82 501.62 C 627.60 500.09, 627.51 499.42, 627.17 498.86 C 626.82 498.31, 626.45 498.30, 626.09 498.85" style="stroke: black; fill: black;"/><path d="M 1004.45,524.98 C 1004.74 524.67, 1004.70 524.43, 1004.75 524.26 C 1004.79 524.10, 1004.73 524.13, 1004.66 524.16 C 1004.59 524.20, 1004.60 524.25, 1004.39 524.44 C 1004.19 524.62, 1003.86 524.89, 1003.63 525.08 C 1003.39 525.27, 1003.27 525.39, 1003.21 525.41 C 1003.14 525.43, 1003.18 525.43, 1003.29 525.17 C 1003.41 524.92, 1003.70 524.40, 1003.80 524.13 C 1003.89 523.86, 1003.89 523.84, 1003.77 523.84 C 1003.64 523.84, 1003.46 523.91, 1003.18 524.12 C 1002.90 524.33, 1002.53 524.60, 1002.36 524.91 C 1002.18 525.22, 1002.25 525.46, 1002.29 525.67 C 1002.34 525.89, 1002.39 525.97, 1002.59 526.01 C 1002.79 526.04, 1002.93 526.05, 1003.30 525.84 C 1003.67 525.64, 1004.16 525.30, 1004.45 524.98" style="stroke: black; fill: black;"/></svg>