<svg xmlns="http://www.w3.org/2000/svg" id="canvas" viewBox="211.183 419.970 926.065 185.690"><path d="M 215.44,499.69 C 216.13 499.44, 216.70 498.91, 217.68 497.68 C 218.66 496.45, 219.20 495.68, 220.33 493.53 C 221.47 491.37, 222.05 489.92, 223.35 486.91 C 224.65 483.90, 225.32 482.09, 226.83 478.48 C 228.33 474.86, 229.19 472.83, 230.87 468.85 C 232.55 464.88, 233.49 462.66, 235.22 458.60 C 236.94 454.54, 237.86 452.34, 239.50 448.54 C 241.15 444.75, 241.99 442.76, 243.42 439.62 C 244.85 436.48, 245.72 435.02, 246.66 432.83 C 247.61 430.64, 247.85 429.55, 248.15 428.68 C 248.46 427.81, 248.24 427.64, 248.18 428.48 C 248.12 429.33, 247.75 430.23, 247.85 432.92 C 247.96 435.61, 248.43 437.47, 248.70 441.93 C 248.97 446.40, 249.07 449.28, 249.20 455.24 C 249.33 461.20, 249.31 464.76, 249.36 471.74 C 249.40 478.71, 249.38 482.68, 249.43 490.12 C 249.49 497.55, 249.51 501.67, 249.62 508.91 C 249.73 516.16, 249.81 519.97, 249.97 526.34 C 250.14 532.71, 250.28 535.82, 250.44 540.74 C 250.60 545.66, 250.56 547.85, 250.77 550.94 C 250.98 554.03, 251.16 554.80, 251.50 556.20 C 251.83 557.59, 252.16 557.66, 252.44 557.93 C 252.73 558.19, 252.87 557.61, 252.91 557.52 C 252.95 557.44, 252.62 557.44, 252.64 557.49 C 252.67 557.55, 252.86 558.11, 253.02 557.81 C 253.19 557.51, 253.42 557.42, 253.49 556.01 C 253.55 554.60, 253.58 553.83, 253.35 550.76 C 253.13 547.69, 252.72 545.54, 252.36 540.64 C 252.01 535.75, 251.83 532.64, 251.58 526.29 C 251.32 519.94, 251.23 516.12, 251.11 508.89 C 250.98 501.65, 250.95 497.54, 250.94 490.11 C 250.92 482.68, 250.96 478.71, 251.02 471.74 C 251.08 464.76, 251.15 461.21, 251.25 455.23 C 251.34 449.26, 251.44 446.40, 251.51 441.87 C 251.58 437.34, 251.97 435.42, 251.61 432.60 C 251.25 429.78, 250.67 428.78, 249.72 427.75 C 248.77 426.73, 248.06 426.75, 246.87 427.48 C 245.68 428.21, 244.98 429.20, 243.77 431.40 C 242.55 433.60, 242.10 435.25, 240.78 438.48 C 239.45 441.71, 238.72 443.72, 237.16 447.55 C 235.59 451.38, 234.67 453.58, 232.94 457.63 C 231.20 461.68, 230.25 463.89, 228.48 467.81 C 226.72 471.74, 225.81 473.75, 224.12 477.26 C 222.42 480.76, 221.50 482.44, 220.01 485.33 C 218.52 488.22, 217.68 489.54, 216.67 491.71 C 215.65 493.88, 215.43 494.73, 214.94 496.17 C 214.44 497.61, 214.10 498.21, 214.20 498.91 C 214.30 499.61, 214.74 499.93, 215.44 499.69" style="stroke: black; fill: black;"/><path d="M 215.20,510.53 C 215.69 511.02, 216.22 511.37, 217.79 511.62 C 219.35 511.87, 220.47 512.07, 223.02 511.79 C 225.57 511.52, 227.26 511.10, 230.53 510.24 C 233.81 509.37, 235.77 508.76, 239.39 507.46 C 243.00 506.17, 245.03 505.34, 248.60 503.76 C 252.17 502.18, 254.04 501.24, 257.24 499.57 C 260.44 497.89, 262.11 497.04, 264.58 495.40 C 267.06 493.76, 268.26 492.66, 269.61 491.37 C 270.96 490.09, 271.21 489.27, 271.36 488.99 C 271.50 488.71, 270.94 488.74, 270.34 489.98 C 269.75 491.22, 268.99 492.34, 268.36 495.18 C 267.74 498.02, 267.57 500.24, 267.21 504.19 C 266.85 508.15, 266.58 510.73, 266.55 514.95 C 266.52 519.17, 266.52 521.57, 267.05 525.29 C 267.58 529.00, 267.89 530.95, 269.19 533.53 C 270.49 536.10, 271.54 537.18, 273.56 538.18 C 275.59 539.18, 276.95 539.32, 279.31 538.53 C 281.67 537.74, 283.05 536.71, 285.37 534.23 C 287.69 531.76, 288.79 529.78, 290.91 526.14 C 293.03 522.50, 294.12 520.04, 295.99 516.04 C 297.85 512.05, 298.99 509.49, 300.24 506.17 C 301.49 502.84, 301.95 501.05, 302.25 499.42 C 302.55 497.80, 302.12 497.44, 301.73 498.03 C 301.33 498.62, 300.60 499.77, 300.27 502.35 C 299.94 504.94, 299.93 507.27, 300.08 510.94 C 300.23 514.61, 300.41 517.09, 301.00 520.71 C 301.60 524.32, 301.83 526.32, 303.06 529.02 C 304.29 531.71, 305.19 532.92, 307.14 534.18 C 309.08 535.44, 310.37 535.76, 312.79 535.32 C 315.21 534.87, 316.66 534.06, 319.24 531.93 C 321.82 529.81, 323.12 528.00, 325.69 524.71 C 328.25 521.41, 329.64 519.14, 332.07 515.47 C 334.50 511.80, 335.79 509.57, 337.81 506.37 C 339.84 503.16, 341.00 501.61, 342.18 499.45 C 343.36 497.28, 343.56 496.36, 343.72 495.56 C 343.89 494.76, 343.52 494.82, 343.01 495.43 C 342.50 496.05, 341.81 496.89, 341.17 498.64 C 340.53 500.39, 340.02 501.84, 339.79 504.19 C 339.57 506.53, 339.60 508.18, 340.04 510.36 C 340.47 512.53, 340.86 513.78, 341.98 515.07 C 343.10 516.35, 343.97 516.83, 345.63 516.78 C 347.29 516.74, 348.45 516.32, 350.30 514.85 C 352.15 513.37, 353.26 511.99, 354.88 509.40 C 356.50 506.80, 357.26 504.87, 358.41 501.87 C 359.55 498.88, 360.23 497.10, 360.62 494.43 C 361.01 491.76, 360.97 490.31, 360.35 488.53 C 359.73 486.76, 359.03 485.97, 357.51 485.56 C 356.00 485.16, 354.76 485.29, 352.80 486.50 C 350.84 487.71, 349.61 488.91, 347.72 491.61 C 345.84 494.31, 344.93 496.28, 343.39 499.99 C 341.84 503.71, 341.02 506.02, 339.99 510.19 C 338.96 514.36, 338.55 516.78, 338.25 520.86 C 337.96 524.94, 337.97 527.09, 338.51 530.57 C 339.06 534.05, 339.55 535.79, 340.97 538.26 C 342.38 540.72, 343.48 541.74, 345.58 542.91 C 347.69 544.08, 349.04 544.33, 351.50 544.10 C 353.96 543.87, 355.46 543.39, 357.89 541.75 C 360.32 540.10, 361.53 538.69, 363.65 535.88 C 365.77 533.08, 366.78 531.17, 368.48 527.72 C 370.19 524.28, 370.96 522.15, 372.17 518.65 C 373.39 515.15, 373.99 513.22, 374.57 510.22 C 375.16 507.23, 375.29 505.68, 375.11 503.68 C 374.93 501.67, 374.45 500.71, 373.67 500.21 C 372.90 499.71, 372.06 499.86, 371.24 501.18 C 370.42 502.50, 369.85 503.80, 369.58 506.82 C 369.32 509.85, 369.63 511.93, 369.91 516.30 C 370.20 520.67, 370.44 523.38, 371.01 528.68 C 371.57 533.98, 371.97 537.04, 372.74 542.78 C 373.50 548.52, 374.02 551.66, 374.83 557.38 C 375.64 563.10, 376.15 566.14, 376.79 571.38 C 377.42 576.62, 377.78 579.30, 377.99 583.59 C 378.20 587.89, 378.13 589.89, 377.85 592.86 C 377.57 595.82, 377.34 596.97, 376.59 598.43 C 375.84 599.89, 375.35 600.16, 374.10 600.17 C 372.85 600.19, 372.06 599.72, 370.33 598.51 C 368.60 597.30, 367.38 596.36, 365.44 594.13 C 363.49 591.90, 362.18 590.43, 360.59 587.36 C 359.01 584.29, 358.21 582.44, 357.51 578.77 C 356.81 575.10, 356.66 573.10, 357.10 569.02 C 357.54 564.94, 358.10 562.74, 359.68 558.36 C 361.27 553.98, 362.45 551.63, 365.01 547.12 C 367.56 542.62, 369.23 540.24, 372.45 535.85 C 375.68 531.45, 377.60 529.13, 381.14 525.14 C 384.68 521.15, 386.66 519.14, 390.14 515.89 C 393.62 512.63, 395.47 511.13, 398.55 508.86 C 401.62 506.59, 403.21 505.80, 405.51 504.54 C 407.81 503.28, 408.69 502.81, 410.03 502.56 C 411.37 502.30, 411.70 502.46, 412.22 503.26 C 412.74 504.06, 412.65 504.80, 412.62 506.54 C 412.60 508.29, 412.35 509.61, 412.09 511.99 C 411.82 514.36, 411.52 516.00, 411.30 518.41 C 411.08 520.82, 410.81 522.28, 410.97 524.05 C 411.12 525.83, 411.37 526.70, 412.10 527.29 C 412.83 527.87, 413.46 527.86, 414.62 526.99 C 415.77 526.11, 416.58 525.08, 417.87 522.91 C 419.16 520.74, 419.72 518.91, 421.09 516.13 C 422.45 513.36, 423.32 511.55, 424.69 509.02 C 426.07 506.50, 426.90 505.12, 427.95 503.49 C 429.01 501.87, 429.40 501.25, 429.97 500.89 C 430.55 500.54, 430.60 500.81, 430.84 501.73 C 431.07 502.66, 431.02 503.63, 431.15 505.53 C 431.27 507.44, 431.26 508.90, 431.48 511.26 C 431.69 513.62, 431.78 515.19, 432.21 517.34 C 432.65 519.49, 432.88 520.67, 433.67 522.01 C 434.47 523.35, 435.02 523.88, 436.19 524.04 C 437.37 524.20, 438.16 523.92, 439.54 522.82 C 440.92 521.71, 441.73 520.58, 443.09 518.50 C 444.46 516.43, 445.19 514.79, 446.37 512.44 C 447.56 510.09, 448.21 508.53, 449.03 506.75 C 449.84 504.97, 450.08 504.07, 450.46 503.54 C 450.85 503.01, 450.79 503.17, 450.95 504.08 C 451.11 505.00, 450.98 506.04, 451.26 508.12 C 451.54 510.20, 451.63 511.88, 452.35 514.46 C 453.08 517.04, 453.62 518.70, 454.89 521.03 C 456.15 523.35, 456.90 524.59, 458.68 526.08 C 460.46 527.57, 461.55 528.18, 463.78 528.46 C 466.01 528.73, 467.42 528.57, 469.85 527.44 C 472.28 526.31, 473.64 525.21, 475.93 522.80 C 478.23 520.40, 479.38 518.63, 481.31 515.40 C 483.23 512.16, 484.21 510.07, 485.58 506.63 C 486.94 503.18, 487.66 501.20, 488.14 498.17 C 488.62 495.14, 488.55 493.54, 487.98 491.48 C 487.41 489.41, 486.71 488.54, 485.29 487.85 C 483.87 487.16, 482.67 487.16, 480.88 488.03 C 479.09 488.89, 477.86 489.87, 476.34 492.19 C 474.81 494.51, 474.16 496.34, 473.25 499.63 C 472.35 502.92, 471.98 505.05, 471.80 508.64 C 471.62 512.22, 471.65 514.35, 472.35 517.56 C 473.04 520.76, 473.65 522.47, 475.26 524.66 C 476.88 526.85, 478.08 527.75, 480.42 528.51 C 482.77 529.26, 484.32 529.28, 487.01 528.44 C 489.69 527.59, 491.17 526.53, 493.84 524.28 C 496.50 522.03, 497.88 520.26, 500.35 517.17 C 502.82 514.08, 504.11 511.99, 506.18 508.83 C 508.24 505.67, 509.48 503.76, 510.68 501.36 C 511.88 498.97, 511.98 497.67, 512.16 496.85 C 512.34 496.03, 511.98 496.18, 511.57 497.25 C 511.16 498.32, 510.53 499.63, 510.12 502.20 C 509.70 504.77, 509.57 506.92, 509.51 510.09 C 509.46 513.25, 509.39 515.28, 509.82 518.03 C 510.24 520.78, 510.61 522.18, 511.64 523.84 C 512.68 525.50, 513.43 526.09, 515.00 526.32 C 516.57 526.54, 517.63 526.24, 519.48 524.96 C 521.33 523.68, 522.41 522.37, 524.24 519.89 C 526.07 517.41, 526.94 515.43, 528.62 512.56 C 530.29 509.69, 531.43 507.87, 532.62 505.55 C 533.81 503.23, 534.13 501.91, 534.57 500.95 C 535.01 499.99, 534.90 499.96, 534.83 500.75 C 534.77 501.54, 534.37 502.61, 534.26 504.89 C 534.14 507.16, 534.02 509.11, 534.25 512.14 C 534.47 515.16, 534.58 517.18, 535.37 520.00 C 536.17 522.81, 536.73 524.39, 538.21 526.20 C 539.70 528.02, 540.69 528.82, 542.80 529.08 C 544.90 529.33, 546.36 529.19, 548.73 527.46 C 551.11 525.73, 552.26 524.10, 554.67 520.42 C 557.08 516.74, 558.36 514.29, 560.78 509.08 C 563.19 503.87, 564.50 500.61, 566.74 494.36 C 568.99 488.10, 570.12 484.37, 572.01 477.82 C 573.89 471.27, 574.75 467.61, 576.15 461.61 C 577.55 455.60, 578.10 452.51, 578.99 447.80 C 579.88 443.09, 580.45 440.96, 580.60 438.05 C 580.76 435.14, 580.37 434.02, 579.78 433.26 C 579.18 432.49, 578.37 432.64, 577.63 434.21 C 576.88 435.78, 576.50 437.32, 576.05 441.12 C 575.60 444.93, 575.60 447.64, 575.37 453.22 C 575.13 458.80, 575.00 462.36, 574.86 469.04 C 574.72 475.72, 574.61 479.67, 574.67 486.62 C 574.73 493.56, 574.81 497.41, 575.14 503.77 C 575.48 510.14, 575.70 513.42, 576.34 518.44 C 576.97 523.46, 577.19 525.78, 578.30 528.86 C 579.42 531.95, 580.31 533.02, 581.91 533.87 C 583.52 534.71, 584.72 534.49, 586.34 533.09 C 587.97 531.69, 588.92 530.08, 590.03 526.87 C 591.15 523.66, 591.46 521.18, 591.93 517.03 C 592.41 512.88, 592.53 510.24, 592.43 506.13 C 592.32 502.01, 592.18 499.56, 591.41 496.47 C 590.63 493.39, 589.82 491.98, 588.56 490.71 C 587.30 489.43, 586.32 489.44, 585.11 490.10 C 583.89 490.76, 582.98 491.82, 582.47 494.00 C 581.97 496.17, 581.87 498.11, 582.60 500.98 C 583.32 503.86, 584.21 505.76, 586.10 508.38 C 588.00 510.99, 589.29 512.42, 592.06 514.06 C 594.84 515.69, 596.65 516.30, 599.98 516.55 C 603.32 516.81, 605.28 516.51, 608.74 515.33 C 612.20 514.15, 614.10 513.02, 617.27 510.66 C 620.44 508.31, 622.10 506.61, 624.60 503.56 C 627.09 500.52, 628.32 498.62, 629.75 495.45 C 631.18 492.29, 631.71 490.42, 631.73 487.74 C 631.76 485.06, 631.23 483.60, 629.87 482.05 C 628.51 480.49, 627.19 479.91, 624.92 479.97 C 622.65 480.02, 620.91 480.49, 618.52 482.31 C 616.13 484.14, 614.85 485.88, 612.97 489.09 C 611.09 492.30, 610.15 494.50, 609.14 498.37 C 608.12 502.25, 607.78 504.60, 607.89 508.48 C 608.00 512.36, 608.28 514.57, 609.69 517.76 C 611.10 520.94, 612.27 522.58, 614.93 524.41 C 617.60 526.24, 619.49 526.78, 623.02 526.91 C 626.55 527.05, 628.65 526.52, 632.59 525.10 C 636.52 523.68, 638.72 522.42, 642.68 519.83 C 646.63 517.23, 648.77 515.40, 652.36 512.12 C 655.95 508.85, 657.81 506.77, 660.63 503.45 C 663.45 500.13, 664.87 498.36, 666.47 495.53 C 668.07 492.69, 668.51 491.25, 668.62 489.28 C 668.73 487.32, 668.22 486.44, 667.01 485.69 C 665.79 484.94, 664.56 484.81, 662.55 485.54 C 660.54 486.27, 659.05 487.14, 656.97 489.36 C 654.89 491.57, 653.87 493.39, 652.15 496.63 C 650.42 499.87, 649.49 501.96, 648.35 505.56 C 647.21 509.16, 646.64 511.30, 646.46 514.63 C 646.28 517.95, 646.48 519.79, 647.46 522.19 C 648.44 524.58, 649.41 525.66, 651.37 526.60 C 653.32 527.54, 654.76 527.77, 657.22 526.89 C 659.67 526.01, 661.15 524.98, 663.64 522.21 C 666.14 519.44, 667.40 517.43, 669.70 513.05 C 671.99 508.67, 673.17 505.93, 675.12 500.32 C 677.07 494.72, 678.01 491.33, 679.44 485.03 C 680.86 478.73, 681.40 475.09, 682.24 468.83 C 683.08 462.57, 683.31 459.20, 683.64 453.74 C 683.98 448.29, 684.03 445.62, 683.92 441.54 C 683.82 437.46, 683.78 435.64, 683.12 433.34 C 682.46 431.04, 681.72 430.27, 680.64 430.02 C 679.56 429.77, 678.60 430.17, 677.71 432.10 C 676.83 434.04, 676.57 435.69, 676.21 439.69 C 675.85 443.68, 675.91 446.39, 675.91 452.08 C 675.91 457.77, 675.94 461.33, 676.23 468.13 C 676.52 474.94, 676.68 479.00, 677.35 486.11 C 678.02 493.23, 678.45 497.17, 679.58 503.72 C 680.71 510.27, 681.35 513.58, 683.00 518.85 C 684.65 524.12, 685.61 526.52, 687.85 530.06 C 690.09 533.60, 691.41 535.01, 694.21 536.54 C 697.01 538.08, 698.98 538.01, 701.86 537.75 C 704.73 537.49, 706.45 536.55, 708.59 535.26 C 710.74 533.97, 711.98 532.34, 712.59 531.30 C 713.21 530.26, 712.77 529.83, 711.67 530.06 C 710.58 530.30, 709.15 531.56, 707.12 532.49 C 705.08 533.43, 703.85 534.38, 701.50 534.74 C 699.16 535.09, 697.78 535.43, 695.40 534.26 C 693.02 533.10, 691.75 532.11, 689.61 528.91 C 687.47 525.72, 686.38 523.40, 684.69 518.30 C 683.00 513.21, 682.31 509.91, 681.16 503.44 C 680.01 496.97, 679.58 493.04, 678.95 485.97 C 678.31 478.89, 678.16 474.84, 678.01 468.08 C 677.85 461.31, 677.92 457.74, 678.17 452.12 C 678.41 446.51, 678.82 443.84, 679.24 439.99 C 679.65 436.13, 680.02 434.68, 680.24 432.85 C 680.46 431.01, 680.26 430.61, 680.34 430.81 C 680.43 431.01, 680.41 431.68, 680.66 433.84 C 680.92 436.01, 681.40 437.67, 681.62 441.63 C 681.84 445.60, 681.98 448.25, 681.76 453.65 C 681.54 459.04, 681.33 462.41, 680.52 468.60 C 679.71 474.80, 679.16 478.42, 677.71 484.63 C 676.25 490.84, 675.27 494.20, 673.24 499.65 C 671.22 505.10, 669.94 507.78, 667.57 511.88 C 665.19 515.97, 663.67 517.68, 661.38 520.13 C 659.08 522.57, 657.87 523.24, 656.07 524.10 C 654.28 524.97, 653.58 525.03, 652.42 524.45 C 651.25 523.87, 650.80 523.13, 650.27 521.20 C 649.74 519.28, 649.53 517.77, 649.76 514.84 C 649.99 511.91, 650.31 509.84, 651.40 506.54 C 652.49 503.25, 653.47 501.24, 655.21 498.37 C 656.95 495.50, 658.33 494.21, 660.10 492.20 C 661.86 490.18, 662.80 489.32, 664.04 488.29 C 665.28 487.26, 665.84 486.92, 666.31 487.04 C 666.77 487.16, 666.85 487.49, 666.37 488.89 C 665.88 490.29, 665.42 491.44, 663.89 494.04 C 662.36 496.63, 661.33 498.59, 658.70 501.86 C 656.08 505.13, 654.24 507.20, 650.77 510.39 C 647.30 513.57, 645.16 515.34, 641.35 517.78 C 637.53 520.22, 635.34 521.34, 631.70 522.60 C 628.06 523.85, 626.15 524.19, 623.13 524.06 C 620.11 523.94, 618.76 523.48, 616.60 521.99 C 614.45 520.49, 613.52 519.31, 612.36 516.59 C 611.19 513.88, 610.84 511.90, 610.78 508.41 C 610.71 504.93, 611.02 502.68, 612.03 499.17 C 613.05 495.66, 614.08 493.63, 615.86 490.85 C 617.63 488.07, 619.04 486.89, 620.91 485.26 C 622.78 483.63, 623.79 483.06, 625.22 482.71 C 626.65 482.36, 627.37 482.54, 628.06 483.52 C 628.75 484.49, 628.90 485.45, 628.67 487.58 C 628.44 489.71, 628.17 491.34, 626.91 494.18 C 625.64 497.01, 624.62 498.91, 622.35 501.74 C 620.08 504.58, 618.47 506.20, 615.55 508.35 C 612.64 510.50, 610.84 511.47, 607.78 512.48 C 604.72 513.49, 603.04 513.66, 600.25 513.39 C 597.47 513.12, 596.05 512.58, 593.87 511.14 C 591.69 509.70, 590.73 508.47, 589.35 506.20 C 587.97 503.94, 587.68 502.19, 586.99 499.80 C 586.30 497.42, 586.10 495.98, 585.91 494.27 C 585.72 492.56, 585.86 491.73, 586.04 491.25 C 586.22 490.78, 586.39 490.71, 586.81 491.90 C 587.23 493.09, 587.61 494.32, 588.14 497.19 C 588.66 500.05, 589.30 502.32, 589.43 506.21 C 589.55 510.10, 589.32 512.70, 588.76 516.62 C 588.20 520.54, 587.49 522.82, 586.65 525.80 C 585.82 528.79, 585.37 530.21, 584.59 531.56 C 583.82 532.90, 583.56 533.22, 582.78 532.52 C 581.99 531.83, 581.57 530.93, 580.67 528.06 C 579.76 525.19, 579.03 523.04, 578.26 518.17 C 577.49 513.29, 577.21 509.99, 576.82 503.68 C 576.43 497.36, 576.34 493.52, 576.32 486.61 C 576.29 479.69, 576.40 475.74, 576.69 469.10 C 576.97 462.45, 577.24 458.90, 577.73 453.37 C 578.22 447.85, 578.76 445.22, 579.15 441.47 C 579.55 437.73, 579.76 436.28, 579.71 434.67 C 579.67 433.05, 579.28 432.77, 578.92 433.40 C 578.55 434.02, 578.27 434.97, 577.88 437.79 C 577.49 440.60, 577.67 442.78, 576.98 447.47 C 576.30 452.15, 575.78 455.25, 574.47 461.23 C 573.15 467.20, 572.29 470.86, 570.41 477.36 C 568.53 483.86, 567.38 487.58, 565.07 493.74 C 562.76 499.90, 561.39 503.13, 558.86 508.15 C 556.33 513.18, 554.86 515.53, 552.43 518.87 C 550.00 522.21, 548.59 523.28, 546.71 524.85 C 544.82 526.42, 544.22 526.79, 543.01 526.73 C 541.81 526.67, 541.41 526.09, 540.70 524.57 C 539.99 523.05, 539.83 521.68, 539.47 519.12 C 539.11 516.56, 539.14 514.68, 538.90 511.77 C 538.66 508.86, 538.77 506.92, 538.26 504.55 C 537.76 502.19, 537.38 500.98, 536.37 499.95 C 535.37 498.92, 534.66 498.72, 533.22 499.42 C 531.78 500.11, 530.78 501.21, 529.18 503.43 C 527.57 505.66, 526.88 507.73, 525.20 510.54 C 523.51 513.34, 522.33 515.05, 520.74 517.44 C 519.15 519.83, 518.36 521.08, 517.24 522.48 C 516.12 523.88, 515.77 524.37, 515.14 524.43 C 514.51 524.50, 514.34 524.14, 514.09 522.79 C 513.84 521.44, 513.88 520.22, 513.89 517.71 C 513.90 515.19, 514.01 513.28, 514.13 510.22 C 514.26 507.17, 514.64 505.08, 514.52 502.45 C 514.40 499.81, 514.20 498.36, 513.53 497.03 C 512.86 495.71, 512.35 495.31, 511.16 495.81 C 509.96 496.31, 509.10 497.28, 507.57 499.55 C 506.04 501.81, 505.44 504.00, 503.51 507.14 C 501.58 510.27, 500.31 512.31, 497.94 515.22 C 495.57 518.14, 494.08 519.69, 491.67 521.71 C 489.27 523.73, 488.00 524.51, 485.92 525.34 C 483.83 526.17, 482.87 526.35, 481.25 525.86 C 479.63 525.38, 478.93 524.71, 477.82 522.91 C 476.71 521.12, 476.21 519.70, 475.69 516.88 C 475.16 514.07, 474.96 512.09, 475.20 508.85 C 475.45 505.62, 475.97 503.62, 476.90 500.71 C 477.83 497.80, 478.72 496.36, 479.84 494.30 C 480.96 492.24, 481.56 491.36, 482.49 490.41 C 483.41 489.45, 483.89 489.21, 484.44 489.52 C 485.00 489.82, 485.23 490.33, 485.28 491.93 C 485.33 493.54, 485.23 494.85, 484.70 497.56 C 484.17 500.27, 483.85 502.25, 482.62 505.48 C 481.38 508.70, 480.39 510.74, 478.53 513.70 C 476.68 516.67, 475.38 518.18, 473.33 520.31 C 471.28 522.44, 470.13 523.30, 468.28 524.35 C 466.43 525.40, 465.56 525.69, 464.08 525.58 C 462.59 525.46, 461.96 525.04, 460.85 523.79 C 459.73 522.54, 459.30 521.46, 458.51 519.35 C 457.73 517.23, 457.55 515.68, 456.90 513.22 C 456.26 510.77, 456.09 509.15, 455.28 507.07 C 454.48 504.99, 454.01 503.86, 452.87 502.82 C 451.74 501.77, 451.01 501.46, 449.61 501.82 C 448.20 502.18, 447.34 502.95, 445.85 504.61 C 444.36 506.28, 443.53 507.82, 442.16 510.13 C 440.78 512.44, 440.02 514.03, 438.99 516.16 C 437.95 518.28, 437.53 519.48, 436.99 520.77 C 436.45 522.06, 436.41 522.51, 436.28 522.60 C 436.15 522.68, 436.30 522.33, 436.32 521.18 C 436.35 520.04, 436.42 518.95, 436.39 516.88 C 436.35 514.80, 436.40 513.23, 436.15 510.81 C 435.91 508.38, 435.81 506.82, 435.15 504.74 C 434.49 502.66, 433.99 501.54, 432.86 500.40 C 431.72 499.26, 430.98 498.86, 429.49 499.05 C 428.00 499.24, 427.07 499.77, 425.41 501.34 C 423.76 502.92, 422.86 504.39, 421.20 506.94 C 419.54 509.49, 418.62 511.32, 417.13 514.11 C 415.65 516.90, 414.69 518.57, 413.76 520.88 C 412.84 523.19, 412.65 524.44, 412.50 525.65 C 412.34 526.86, 412.60 527.15, 412.98 526.91 C 413.36 526.67, 413.85 526.03, 414.40 524.45 C 414.94 522.87, 415.29 521.43, 415.71 519.00 C 416.13 516.57, 416.44 514.87, 416.51 512.29 C 416.59 509.71, 416.61 508.20, 416.09 506.09 C 415.56 503.99, 415.13 502.94, 413.88 501.77 C 412.63 500.60, 411.79 500.22, 409.83 500.24 C 407.88 500.26, 406.64 500.54, 404.08 501.87 C 401.52 503.21, 400.13 504.43, 397.05 506.92 C 393.97 509.42, 392.16 510.97, 388.68 514.35 C 385.20 517.74, 383.22 519.77, 379.66 523.83 C 376.09 527.90, 374.15 530.22, 370.86 534.68 C 367.58 539.13, 365.87 541.51, 363.22 546.09 C 360.56 550.68, 359.30 553.06, 357.60 557.59 C 355.89 562.12, 355.24 564.41, 354.69 568.74 C 354.13 573.06, 354.22 575.23, 354.83 579.23 C 355.45 583.23, 356.21 585.26, 357.77 588.72 C 359.33 592.18, 360.48 593.98, 362.65 596.53 C 364.81 599.08, 366.24 600.28, 368.58 601.47 C 370.93 602.67, 372.36 602.86, 374.37 602.49 C 376.38 602.13, 377.39 601.52, 378.63 599.65 C 379.88 597.77, 380.27 596.36, 380.58 593.12 C 380.90 589.88, 380.59 587.84, 380.22 583.44 C 379.85 579.05, 379.44 576.40, 378.73 571.13 C 378.02 565.87, 377.49 562.84, 376.68 557.12 C 375.87 551.40, 375.37 548.26, 374.68 542.54 C 374.00 536.81, 373.62 533.75, 373.26 528.48 C 372.90 523.22, 372.82 520.50, 372.88 516.22 C 372.95 511.94, 373.44 509.98, 373.57 507.09 C 373.70 504.20, 373.67 503.07, 373.54 501.78 C 373.40 500.50, 373.18 500.31, 372.90 500.66 C 372.62 501.02, 372.50 501.77, 372.15 503.55 C 371.81 505.33, 371.77 506.72, 371.19 509.54 C 370.61 512.37, 370.36 514.31, 369.26 517.67 C 368.17 521.03, 367.38 523.10, 365.72 526.33 C 364.06 529.56, 362.96 531.32, 360.97 533.81 C 358.99 536.31, 357.78 537.33, 355.80 538.79 C 353.82 540.25, 352.86 540.77, 351.09 541.12 C 349.32 541.46, 348.44 541.37, 346.95 540.50 C 345.46 539.63, 344.77 538.84, 343.65 536.76 C 342.54 534.68, 341.92 533.25, 341.38 530.10 C 340.84 526.96, 340.69 524.89, 340.94 521.05 C 341.19 517.20, 341.59 514.83, 342.65 510.87 C 343.71 506.92, 344.59 504.68, 346.24 501.27 C 347.89 497.87, 349.16 496.26, 350.88 493.83 C 352.60 491.40, 353.58 490.42, 354.84 489.13 C 356.10 487.85, 356.58 487.43, 357.18 487.40 C 357.78 487.38, 357.90 487.75, 357.84 489.00 C 357.79 490.25, 357.54 491.39, 356.90 493.66 C 356.27 495.93, 355.82 497.66, 354.66 500.35 C 353.50 503.04, 352.50 504.74, 351.11 507.11 C 349.71 509.47, 348.86 510.71, 347.69 512.19 C 346.53 513.66, 346.00 514.19, 345.29 514.50 C 344.59 514.80, 344.41 514.59, 344.18 513.71 C 343.95 512.82, 344.01 511.86, 344.16 510.06 C 344.30 508.25, 344.69 506.85, 344.91 504.70 C 345.14 502.55, 345.35 501.16, 345.29 499.31 C 345.23 497.45, 345.12 496.37, 344.60 495.42 C 344.08 494.48, 343.71 494.11, 342.68 494.57 C 341.65 495.03, 340.92 495.67, 339.45 497.73 C 337.98 499.78, 337.27 501.60, 335.33 504.85 C 333.40 508.09, 332.16 510.34, 329.77 513.94 C 327.37 517.54, 325.89 519.75, 323.35 522.84 C 320.81 525.92, 319.30 527.39, 317.05 529.35 C 314.81 531.30, 313.82 532.06, 312.13 532.62 C 310.44 533.17, 309.78 533.11, 308.59 532.14 C 307.41 531.16, 307.03 530.13, 306.20 527.74 C 305.37 525.36, 304.88 523.59, 304.44 520.20 C 304.01 516.81, 304.10 514.38, 304.03 510.82 C 303.95 507.26, 304.33 505.01, 304.06 502.40 C 303.79 499.79, 303.45 498.55, 302.69 497.77 C 301.93 497.00, 301.33 497.08, 300.25 498.52 C 299.16 499.97, 298.64 501.72, 297.27 504.99 C 295.91 508.26, 295.21 510.94, 293.43 514.86 C 291.65 518.79, 290.47 521.19, 288.36 524.61 C 286.25 528.03, 284.90 529.69, 282.88 531.95 C 280.86 534.21, 279.89 535.07, 278.25 535.90 C 276.61 536.72, 275.94 536.80, 274.68 536.07 C 273.43 535.33, 272.94 534.46, 271.99 532.22 C 271.05 529.98, 270.46 528.31, 269.96 524.87 C 269.45 521.43, 269.35 519.06, 269.48 515.01 C 269.61 510.96, 270.01 508.43, 270.62 504.62 C 271.23 500.81, 272.09 498.83, 272.53 495.96 C 272.98 493.10, 273.09 491.90, 272.85 490.30 C 272.61 488.70, 272.34 488.22, 271.35 487.96 C 270.35 487.69, 269.62 488.04, 267.89 488.96 C 266.15 489.87, 265.10 490.94, 262.69 492.55 C 260.28 494.15, 258.88 495.26, 255.83 496.97 C 252.78 498.69, 250.93 499.62, 247.45 501.13 C 243.96 502.64, 241.96 503.42, 238.41 504.52 C 234.86 505.61, 232.89 505.97, 229.70 506.59 C 226.50 507.20, 224.85 507.19, 222.45 507.58 C 220.06 507.97, 219.14 508.20, 217.72 508.52 C 216.29 508.84, 215.82 508.77, 215.31 509.18 C 214.81 509.58, 214.70 510.05, 215.20 510.53" style="stroke: black; fill: black;"/><path d="M 783.30,437.55 C 782.88 438.30, 782.62 438.93, 782.51 441.28 C 782.40 443.63, 782.60 445.15, 782.76 449.29 C 782.93 453.42, 783.12 456.16, 783.34 461.96 C 783.55 467.77, 783.66 471.39, 783.84 478.30 C 784.01 485.20, 784.06 489.30, 784.19 496.48 C 784.31 503.66, 784.36 507.66, 784.46 514.20 C 784.56 520.74, 784.63 524.14, 784.68 529.20 C 784.74 534.25, 784.51 536.59, 784.74 539.49 C 784.97 542.38, 785.54 543.46, 785.85 543.68 C 786.15 543.89, 786.68 543.09, 786.27 540.55 C 785.86 538.01, 785.01 535.70, 783.80 530.97 C 782.59 526.23, 781.68 523.01, 780.24 516.87 C 778.80 510.74, 777.88 507.00, 776.60 500.29 C 775.31 493.58, 774.62 489.91, 773.81 483.33 C 773.01 476.75, 772.67 473.41, 772.55 467.40 C 772.44 461.39, 772.55 458.46, 773.23 453.28 C 773.90 448.10, 774.44 445.61, 775.93 441.49 C 777.42 437.37, 778.49 435.48, 780.69 432.68 C 782.90 429.87, 784.28 428.83, 786.96 427.46 C 789.65 426.10, 791.23 425.80, 794.12 425.86 C 797.01 425.91, 798.68 426.36, 801.41 427.75 C 804.14 429.13, 805.66 430.28, 807.79 432.78 C 809.91 435.28, 811.03 436.92, 812.03 440.25 C 813.03 443.57, 813.32 445.55, 812.80 449.40 C 812.28 453.25, 811.55 455.49, 809.43 459.50 C 807.30 463.51, 805.57 465.73, 802.18 469.45 C 798.78 473.17, 796.36 475.08, 792.47 478.09 C 788.58 481.10, 786.13 482.41, 782.72 484.50 C 779.31 486.59, 777.45 487.10, 775.42 488.53 C 773.39 489.95, 772.82 490.48, 772.57 491.61 C 772.31 492.75, 772.73 493.17, 774.13 494.21 C 775.54 495.25, 776.78 495.65, 779.59 496.83 C 782.39 498.01, 784.46 498.37, 788.16 500.13 C 791.86 501.89, 794.12 503.06, 798.09 505.63 C 802.07 508.20, 804.23 509.86, 808.04 512.99 C 811.85 516.13, 813.72 518.06, 817.13 521.31 C 820.55 524.56, 822.15 526.42, 825.10 529.25 C 828.05 532.08, 829.31 533.63, 831.89 535.45 C 834.47 537.28, 835.70 537.96, 837.99 538.36 C 840.28 538.75, 841.41 538.57, 843.32 537.43 C 845.24 536.30, 846.24 535.28, 847.56 532.69 C 848.89 530.11, 849.24 528.15, 849.95 524.51 C 850.67 520.88, 850.87 518.50, 851.14 514.50 C 851.41 510.49, 851.47 508.12, 851.29 504.49 C 851.11 500.87, 851.04 498.94, 850.24 496.39 C 849.44 493.85, 848.69 492.79, 847.29 491.76 C 845.89 490.73, 844.87 490.58, 843.24 491.23 C 841.62 491.88, 840.47 492.70, 839.18 495.01 C 837.88 497.31, 837.37 499.18, 836.79 502.75 C 836.21 506.32, 836.06 508.71, 836.26 512.86 C 836.46 517.00, 836.71 519.50, 837.79 523.48 C 838.88 527.45, 839.65 529.62, 841.68 532.71 C 843.71 535.81, 845.06 537.28, 847.96 538.96 C 850.86 540.64, 852.73 541.12, 856.18 541.11 C 859.64 541.09, 861.61 540.47, 865.22 538.87 C 868.83 537.27, 870.77 535.88, 874.22 533.12 C 877.67 530.35, 879.47 528.44, 882.48 525.05 C 885.48 521.65, 886.95 519.52, 889.24 516.15 C 891.53 512.78, 892.72 511.00, 893.93 508.19 C 895.13 505.38, 895.37 503.97, 895.25 502.09 C 895.13 500.21, 894.58 499.43, 893.33 498.79 C 892.09 498.15, 890.94 498.09, 889.03 498.87 C 887.12 499.65, 885.73 500.49, 883.77 502.70 C 881.80 504.90, 880.84 506.69, 879.21 509.90 C 877.58 513.10, 876.71 515.18, 875.60 518.73 C 874.48 522.27, 873.88 524.40, 873.65 527.61 C 873.41 530.82, 873.57 532.55, 874.43 534.77 C 875.29 537.00, 876.18 538.00, 877.95 538.74 C 879.73 539.48, 881.08 539.47, 883.29 538.47 C 885.51 537.47, 886.87 536.33, 889.01 533.74 C 891.14 531.15, 892.18 529.11, 893.97 525.51 C 895.77 521.91, 896.66 519.55, 897.97 515.72 C 899.29 511.88, 900.03 509.51, 900.55 506.34 C 901.06 503.18, 900.95 501.47, 900.55 499.89 C 900.15 498.32, 899.39 497.95, 898.56 498.45 C 897.72 498.96, 896.87 500.00, 896.38 502.41 C 895.89 504.81, 895.82 506.96, 896.11 510.48 C 896.40 513.99, 896.83 516.38, 897.84 520.00 C 898.84 523.63, 899.41 525.74, 901.12 528.61 C 902.82 531.49, 903.92 532.96, 906.34 534.37 C 908.76 535.78, 910.38 536.23, 913.21 535.67 C 916.04 535.10, 917.61 534.18, 920.49 531.55 C 923.37 528.93, 924.82 527.00, 927.62 522.55 C 930.41 518.10, 931.90 515.19, 934.45 509.30 C 937.00 503.42, 938.31 499.80, 940.37 493.12 C 942.43 486.45, 943.35 482.56, 944.76 475.92 C 946.17 469.28, 946.69 465.67, 947.42 459.93 C 948.14 454.18, 948.34 451.42, 948.39 447.20 C 948.45 442.98, 948.45 441.18, 947.69 438.82 C 946.93 436.46, 946.09 435.67, 944.58 435.39 C 943.08 435.10, 941.80 435.36, 940.17 437.38 C 938.53 439.40, 937.80 441.20, 936.42 445.47 C 935.03 449.74, 934.34 452.67, 933.24 458.73 C 932.15 464.79, 931.57 468.65, 930.94 475.77 C 930.31 482.89, 930.06 487.13, 930.10 494.35 C 930.14 501.57, 930.31 505.51, 931.13 511.88 C 931.95 518.24, 932.56 521.36, 934.19 526.18 C 935.81 531.00, 936.82 533.09, 939.23 535.97 C 941.64 538.85, 943.21 539.85, 946.24 540.58 C 949.26 541.32, 951.16 541.00, 954.36 539.65 C 957.56 538.30, 959.25 536.77, 962.23 533.81 C 965.22 530.85, 966.74 528.57, 969.29 524.85 C 971.84 521.13, 973.17 518.58, 974.99 515.20 C 976.80 511.83, 977.62 509.91, 978.35 507.98 C 979.07 506.05, 978.79 505.39, 978.61 505.56 C 978.43 505.74, 977.77 506.66, 977.45 508.84 C 977.13 511.03, 976.86 513.11, 976.99 516.47 C 977.12 519.82, 977.35 522.23, 978.11 525.61 C 978.87 528.99, 979.34 530.93, 980.80 533.37 C 982.26 535.81, 983.30 536.83, 985.41 537.82 C 987.51 538.82, 988.89 539.09, 991.31 538.35 C 993.74 537.60, 995.13 536.69, 997.51 534.11 C 999.90 531.54, 1001.03 529.59, 1003.25 525.47 C 1005.47 521.36, 1006.60 518.75, 1008.59 513.55 C 1010.59 508.35, 1011.56 505.20, 1013.23 499.47 C 1014.89 493.73, 1015.66 490.45, 1016.90 484.87 C 1018.14 479.29, 1018.62 476.32, 1019.44 471.57 C 1020.25 466.82, 1020.67 464.56, 1020.97 461.11 C 1021.28 457.67, 1021.32 456.19, 1020.95 454.37 C 1020.58 452.55, 1019.96 451.90, 1019.14 452.02 C 1018.31 452.15, 1017.44 452.75, 1016.85 455.00 C 1016.25 457.25, 1016.28 459.13, 1016.16 463.29 C 1016.03 467.45, 1016.13 470.24, 1016.22 475.79 C 1016.31 481.34, 1016.37 484.84, 1016.61 491.04 C 1016.86 497.24, 1017.00 500.81, 1017.47 506.80 C 1017.94 512.78, 1018.21 515.92, 1018.96 520.98 C 1019.71 526.04, 1020.07 528.47, 1021.21 532.09 C 1022.36 535.72, 1023.01 537.32, 1024.68 539.11 C 1026.35 540.91, 1027.55 541.29, 1029.57 541.06 C 1031.58 540.83, 1032.93 540.11, 1034.74 537.96 C 1036.55 535.81, 1037.37 533.91, 1038.63 530.30 C 1039.88 526.69, 1040.39 524.18, 1041.03 519.93 C 1041.68 515.68, 1041.88 512.88, 1041.84 509.05 C 1041.80 505.23, 1041.64 503.05, 1040.84 500.79 C 1040.03 498.54, 1039.07 497.85, 1037.81 497.77 C 1036.55 497.69, 1035.51 498.47, 1034.52 500.39 C 1033.54 502.31, 1032.95 504.25, 1032.90 507.38 C 1032.85 510.50, 1033.27 512.74, 1034.27 516.01 C 1035.28 519.28, 1036.03 521.18, 1037.93 523.72 C 1039.83 526.26, 1041.14 527.44, 1043.76 528.71 C 1046.39 529.98, 1048.06 530.39, 1051.05 530.09 C 1054.04 529.78, 1055.74 529.04, 1058.69 527.20 C 1061.64 525.36, 1063.18 523.79, 1065.79 520.90 C 1068.40 518.02, 1069.76 515.89, 1071.75 512.77 C 1073.75 509.64, 1074.84 507.67, 1075.75 505.28 C 1076.66 502.89, 1076.49 501.55, 1076.32 500.83 C 1076.14 500.11, 1075.43 500.23, 1074.89 501.68 C 1074.35 503.13, 1073.81 504.73, 1073.60 508.08 C 1073.40 511.44, 1073.52 513.93, 1073.87 518.47 C 1074.22 523.01, 1074.54 525.75, 1075.37 530.78 C 1076.20 535.80, 1076.79 538.54, 1078.01 543.58 C 1079.23 548.62, 1080.07 551.24, 1081.48 555.97 C 1082.89 560.69, 1083.81 563.06, 1085.06 567.20 C 1086.31 571.34, 1086.99 573.34, 1087.72 576.66 C 1088.45 579.97, 1088.69 581.46, 1088.70 583.79 C 1088.71 586.13, 1088.64 587.03, 1087.78 588.33 C 1086.93 589.63, 1086.22 589.96, 1084.43 590.30 C 1082.64 590.65, 1081.37 590.49, 1078.84 590.05 C 1076.32 589.61, 1074.56 589.29, 1071.80 588.11 C 1069.04 586.94, 1067.32 586.04, 1065.03 584.19 C 1062.74 582.34, 1061.59 581.17, 1060.34 578.86 C 1059.08 576.55, 1058.66 575.40, 1058.76 572.62 C 1058.85 569.84, 1059.22 568.32, 1060.82 564.96 C 1062.42 561.60, 1063.72 559.66, 1066.76 555.81 C 1069.80 551.97, 1071.88 549.82, 1076.04 545.73 C 1080.20 541.64, 1082.75 539.41, 1087.57 535.37 C 1092.38 531.33, 1095.13 529.21, 1100.11 525.53 C 1105.09 521.86, 1108.08 519.94, 1112.46 516.99 C 1116.83 514.04, 1118.98 512.84, 1121.97 510.78 C 1124.97 508.72, 1126.45 507.69, 1127.42 506.69 C 1128.39 505.68, 1128.13 505.28, 1126.81 505.75 C 1125.50 506.23, 1123.93 507.13, 1120.84 509.06 C 1117.75 510.98, 1115.71 512.36, 1111.35 515.38 C 1106.99 518.39, 1104.04 520.39, 1099.06 524.11 C 1094.07 527.84, 1091.31 529.97, 1086.43 534.01 C 1081.56 538.05, 1078.96 540.25, 1074.68 544.33 C 1070.40 548.40, 1068.25 550.49, 1065.01 554.39 C 1061.77 558.28, 1060.31 560.18, 1058.47 563.80 C 1056.63 567.42, 1056.00 569.18, 1055.81 572.48 C 1055.61 575.79, 1056.08 577.47, 1057.49 580.33 C 1058.89 583.19, 1060.28 584.57, 1062.85 586.79 C 1065.42 589.01, 1067.24 590.01, 1070.33 591.43 C 1073.42 592.85, 1075.30 593.52, 1078.29 593.88 C 1081.28 594.24, 1082.94 594.05, 1085.26 593.23 C 1087.59 592.40, 1088.63 591.63, 1089.90 589.75 C 1091.18 587.87, 1091.53 586.58, 1091.62 583.84 C 1091.70 581.09, 1091.20 579.51, 1090.33 576.04 C 1089.46 572.58, 1088.62 570.65, 1087.26 566.51 C 1085.90 562.37, 1084.96 560.03, 1083.52 555.35 C 1082.08 550.67, 1081.24 548.07, 1080.07 543.09 C 1078.90 538.11, 1078.32 535.39, 1077.67 530.44 C 1077.01 525.48, 1076.89 522.77, 1076.81 518.33 C 1076.73 513.89, 1077.22 511.54, 1077.29 508.23 C 1077.35 504.93, 1077.51 503.41, 1077.15 501.82 C 1076.79 500.23, 1076.39 499.89, 1075.48 500.27 C 1074.57 500.66, 1073.90 501.59, 1072.60 503.75 C 1071.30 505.90, 1070.80 508.03, 1068.98 511.05 C 1067.16 514.07, 1065.89 516.15, 1063.50 518.84 C 1061.10 521.53, 1059.56 522.88, 1057.00 524.49 C 1054.44 526.09, 1053.06 526.59, 1050.70 526.87 C 1048.34 527.16, 1047.16 526.92, 1045.18 525.89 C 1043.20 524.85, 1042.24 523.88, 1040.81 521.70 C 1039.37 519.51, 1038.72 517.85, 1038.01 514.97 C 1037.30 512.09, 1037.39 510.06, 1037.25 507.31 C 1037.12 504.56, 1037.25 502.93, 1037.34 501.22 C 1037.43 499.52, 1037.57 498.74, 1037.72 498.78 C 1037.87 498.82, 1037.88 499.38, 1038.08 501.43 C 1038.27 503.49, 1038.70 505.46, 1038.69 509.07 C 1038.69 512.67, 1038.69 515.44, 1038.06 519.47 C 1037.42 523.49, 1036.70 525.89, 1035.51 529.19 C 1034.31 532.49, 1033.33 534.00, 1032.07 535.98 C 1030.81 537.95, 1030.33 538.76, 1029.22 539.09 C 1028.10 539.41, 1027.62 539.14, 1026.48 537.59 C 1025.34 536.05, 1024.62 534.74, 1023.51 531.35 C 1022.40 527.97, 1021.77 525.60, 1020.93 520.66 C 1020.09 515.72, 1019.79 512.59, 1019.31 506.65 C 1018.83 500.71, 1018.70 497.14, 1018.55 490.98 C 1018.39 484.81, 1018.40 481.31, 1018.54 475.80 C 1018.68 470.30, 1018.96 467.51, 1019.24 463.44 C 1019.52 459.36, 1019.92 457.63, 1019.95 455.43 C 1019.97 453.23, 1019.61 452.65, 1019.37 452.45 C 1019.13 452.26, 1018.95 452.78, 1018.74 454.47 C 1018.53 456.15, 1018.60 457.53, 1018.33 460.89 C 1018.05 464.24, 1018.01 466.53, 1017.36 471.25 C 1016.70 475.96, 1016.23 478.93, 1015.04 484.46 C 1013.84 490.00, 1013.07 493.27, 1011.38 498.93 C 1009.70 504.59, 1008.68 507.70, 1006.61 512.76 C 1004.53 517.81, 1003.29 520.36, 1001.01 524.20 C 998.72 528.04, 997.32 529.67, 995.19 531.96 C 993.06 534.25, 992.09 534.94, 990.37 535.66 C 988.65 536.37, 987.91 536.31, 986.59 535.53 C 985.28 534.76, 984.75 533.92, 983.80 531.79 C 982.86 529.66, 982.39 527.98, 981.86 524.87 C 981.34 521.76, 981.40 519.46, 981.18 516.24 C 980.95 513.02, 981.16 511.01, 980.73 508.77 C 980.30 506.53, 979.96 505.45, 979.02 505.04 C 978.09 504.62, 977.39 504.94, 976.05 506.69 C 974.72 508.44, 974.13 510.44, 972.33 513.77 C 970.53 517.10, 969.45 519.71, 967.04 523.33 C 964.63 526.95, 963.06 529.12, 960.30 531.88 C 957.54 534.63, 955.94 535.89, 953.25 537.13 C 950.55 538.37, 949.28 538.59, 946.81 538.08 C 944.35 537.56, 943.09 537.04, 940.91 534.54 C 938.74 532.04, 937.57 530.15, 935.93 525.58 C 934.30 521.00, 933.59 517.91, 932.74 511.66 C 931.89 505.42, 931.69 501.49, 931.67 494.34 C 931.64 487.20, 931.90 482.97, 932.62 475.93 C 933.35 468.89, 934.00 465.05, 935.27 459.13 C 936.54 453.22, 937.54 450.38, 938.99 446.35 C 940.45 442.33, 941.47 440.95, 942.55 439.01 C 943.62 437.07, 943.79 436.59, 944.36 436.67 C 944.93 436.74, 945.04 437.29, 945.41 439.40 C 945.78 441.50, 946.16 443.13, 946.21 447.20 C 946.26 451.26, 946.27 454.05, 945.66 459.72 C 945.05 465.40, 944.55 469.00, 943.17 475.59 C 941.80 482.17, 940.87 486.04, 938.79 492.63 C 936.70 499.22, 935.37 502.81, 932.75 508.55 C 930.14 514.29, 928.55 517.13, 925.73 521.33 C 922.91 525.52, 921.29 527.21, 918.67 529.52 C 916.04 531.83, 914.78 532.39, 912.62 532.87 C 910.46 533.36, 909.59 533.11, 907.86 531.94 C 906.12 530.77, 905.30 529.57, 903.97 527.02 C 902.63 524.46, 901.93 522.53, 901.17 519.16 C 900.41 515.79, 900.39 513.47, 900.17 510.17 C 899.95 506.87, 900.23 504.94, 900.08 502.67 C 899.93 500.41, 899.73 499.41, 899.40 498.85 C 899.07 498.29, 898.87 498.49, 898.41 499.85 C 897.96 501.22, 897.80 502.71, 897.14 505.69 C 896.48 508.67, 896.31 511.09, 895.11 514.76 C 893.91 518.43, 892.94 520.72, 891.16 524.06 C 889.37 527.39, 888.05 529.10, 886.18 531.44 C 884.30 533.79, 883.28 534.72, 881.79 535.78 C 880.31 536.84, 879.70 537.10, 878.77 536.74 C 877.85 536.37, 877.51 535.71, 877.17 533.95 C 876.83 532.18, 876.76 530.76, 877.08 527.92 C 877.39 525.07, 877.68 522.99, 878.74 519.73 C 879.80 516.47, 880.72 514.47, 882.38 511.62 C 884.04 508.78, 885.39 507.52, 887.04 505.51 C 888.70 503.49, 889.51 502.61, 890.64 501.56 C 891.78 500.50, 892.26 500.17, 892.72 500.24 C 893.18 500.32, 893.30 500.60, 892.96 501.93 C 892.62 503.26, 892.20 504.34, 891.01 506.89 C 889.82 509.44, 889.09 511.38, 887.01 514.68 C 884.92 517.98, 883.46 520.10, 880.58 523.38 C 877.71 526.66, 875.91 528.50, 872.61 531.10 C 869.32 533.69, 867.41 534.93, 864.12 536.36 C 860.83 537.80, 859.11 538.23, 856.16 538.26 C 853.22 538.29, 851.82 537.91, 849.38 536.50 C 846.95 535.09, 845.78 533.94, 844.01 531.20 C 842.23 528.45, 841.43 526.45, 840.49 522.76 C 839.54 519.08, 839.31 516.64, 839.28 512.77 C 839.25 508.89, 839.68 506.62, 840.33 503.38 C 840.97 500.15, 841.71 498.66, 842.51 496.60 C 843.30 494.55, 843.65 493.78, 844.32 493.11 C 845.00 492.44, 845.33 492.42, 845.89 493.24 C 846.45 494.06, 846.67 494.92, 847.12 497.20 C 847.57 499.48, 847.96 501.24, 848.15 504.66 C 848.34 508.07, 848.36 510.44, 848.07 514.28 C 847.77 518.11, 847.41 520.45, 846.66 523.83 C 845.91 527.21, 845.27 528.88, 844.32 531.18 C 843.37 533.48, 843.07 534.40, 841.91 535.34 C 840.75 536.29, 840.18 536.35, 838.52 535.90 C 836.86 535.44, 835.94 534.76, 833.59 533.07 C 831.25 531.37, 829.77 530.11, 826.79 527.44 C 823.80 524.76, 822.14 522.91, 818.67 519.68 C 815.21 516.45, 813.31 514.50, 809.46 511.28 C 805.62 508.06, 803.44 506.37, 799.46 503.59 C 795.48 500.82, 793.26 499.49, 789.57 497.41 C 785.89 495.33, 783.92 494.30, 781.03 493.21 C 778.14 492.13, 776.62 492.21, 775.11 491.97 C 773.61 491.74, 773.17 492.25, 773.52 492.05 C 773.87 491.84, 774.75 492.01, 776.86 490.93 C 778.98 489.85, 780.69 488.88, 784.08 486.66 C 787.48 484.45, 789.91 482.99, 793.85 479.84 C 797.79 476.69, 800.27 474.77, 803.78 470.92 C 807.30 467.07, 809.14 464.81, 811.44 460.58 C 813.73 456.35, 814.62 453.97, 815.25 449.75 C 815.89 445.53, 815.68 443.26, 814.63 439.49 C 813.58 435.73, 812.39 433.80, 810.01 430.92 C 807.63 428.04, 805.92 426.69, 802.74 425.10 C 799.57 423.51, 797.55 422.97, 794.15 422.97 C 790.74 422.97, 788.79 423.45, 785.72 425.10 C 782.65 426.76, 781.16 428.10, 778.81 431.24 C 776.47 434.38, 775.46 436.44, 773.99 440.81 C 772.51 445.17, 772.05 447.73, 771.43 453.06 C 770.81 458.39, 770.74 461.35, 770.90 467.44 C 771.06 473.53, 771.42 476.89, 772.22 483.52 C 773.03 490.16, 773.73 493.84, 774.93 500.60 C 776.13 507.36, 776.96 511.12, 778.23 517.31 C 779.50 523.51, 780.20 526.78, 781.27 531.57 C 782.34 536.37, 782.60 538.83, 783.58 541.29 C 784.56 543.76, 785.42 544.28, 786.16 543.90 C 786.89 543.53, 787.16 542.38, 787.26 539.43 C 787.35 536.47, 786.85 534.19, 786.62 529.14 C 786.39 524.09, 786.26 520.70, 786.10 514.17 C 785.93 507.63, 785.88 503.64, 785.78 496.46 C 785.67 489.28, 785.63 485.18, 785.58 478.27 C 785.52 471.36, 785.48 467.73, 785.49 461.93 C 785.50 456.12, 785.61 453.37, 785.62 449.23 C 785.63 445.09, 785.73 443.56, 785.53 441.22 C 785.33 438.88, 785.06 438.26, 784.61 437.53 C 784.16 436.79, 783.72 436.80, 783.30 437.55" style="stroke: black; fill: black;"/><path d="M 1134.24,523.52 C 1134.20 523.14, 1133.86 523.07, 1133.68 523.41 C 1133.50 523.75, 1133.30 524.81, 1133.34 525.19 C 1133.39 525.57, 1133.73 525.63, 1133.91 525.30 C 1134.09 524.96, 1134.29 523.89, 1134.24 523.52" style="stroke: black; fill: black;"/></svg>