<svg xmlns="http://www.w3.org/2000/svg" id="canvas" viewBox="217.611 434.108 968.841 167.339"><path d="M 261.25,464.73 C 260.68 464.24, 259.94 463.82, 258.25 463.60 C 256.56 463.39, 255.32 463.23, 252.81 463.65 C 250.31 464.07, 248.60 464.45, 245.74 465.72 C 242.87 466.99, 241.26 468.01, 238.50 470.01 C 235.74 472.01, 234.21 473.22, 231.94 475.71 C 229.67 478.20, 228.48 479.63, 227.15 482.46 C 225.82 485.28, 225.36 486.92, 225.30 489.84 C 225.23 492.75, 225.55 494.31, 226.83 497.03 C 228.11 499.75, 229.26 501.04, 231.68 503.44 C 234.10 505.83, 235.79 506.90, 238.93 509.00 C 242.08 511.10, 244.06 511.96, 247.39 513.93 C 250.72 515.91, 252.63 516.84, 255.60 518.89 C 258.57 520.94, 260.10 522.03, 262.24 524.19 C 264.38 526.35, 265.28 527.44, 266.29 529.69 C 267.30 531.94, 267.51 533.04, 267.29 535.44 C 267.06 537.84, 266.62 539.10, 265.16 541.67 C 263.70 544.24, 262.57 545.69, 259.99 548.27 C 257.41 550.86, 255.60 552.29, 252.27 554.58 C 248.94 556.87, 246.84 558.05, 243.34 559.72 C 239.84 561.40, 237.83 562.09, 234.76 562.95 C 231.69 563.82, 230.14 564.00, 227.99 564.07 C 225.83 564.13, 224.98 563.96, 223.99 563.29 C 222.99 562.62, 222.84 562.05, 223.03 560.73 C 223.22 559.40, 223.68 558.57, 224.93 556.64 C 226.18 554.71, 227.04 553.42, 229.26 551.09 C 231.49 548.76, 232.97 547.35, 236.04 544.98 C 239.11 542.60, 241.02 541.37, 244.61 539.22 C 248.20 537.06, 250.25 536.05, 253.99 534.21 C 257.73 532.37, 259.77 531.57, 263.31 530.01 C 266.85 528.45, 270.11 527.40, 271.68 526.40 C 273.25 525.40, 273.00 524.71, 271.15 525.01 C 269.30 525.32, 266.08 526.51, 262.44 527.93 C 258.81 529.36, 256.79 530.31, 252.98 532.16 C 249.18 534.00, 247.11 535.04, 243.40 537.18 C 239.70 539.31, 237.74 540.51, 234.46 542.85 C 231.18 545.19, 229.50 546.45, 227.02 548.87 C 224.54 551.29, 223.34 552.59, 222.06 554.95 C 220.78 557.31, 220.51 558.69, 220.64 560.68 C 220.77 562.68, 221.26 563.72, 222.72 564.94 C 224.18 566.15, 225.40 566.64, 227.96 566.76 C 230.51 566.89, 232.22 566.52, 235.51 565.56 C 238.80 564.60, 240.79 563.74, 244.42 561.95 C 248.05 560.17, 250.19 558.99, 253.67 556.64 C 257.16 554.28, 259.06 552.87, 261.85 550.16 C 264.64 547.45, 266.00 545.98, 267.64 543.08 C 269.29 540.19, 269.85 538.59, 270.09 535.69 C 270.33 532.78, 270.03 531.24, 268.84 528.56 C 267.66 525.87, 266.52 524.63, 264.17 522.28 C 261.81 519.92, 260.15 518.87, 257.06 516.76 C 253.97 514.65, 252.03 513.73, 248.71 511.73 C 245.38 509.73, 243.44 508.84, 240.44 506.77 C 237.44 504.71, 235.89 503.61, 233.71 501.41 C 231.53 499.20, 230.64 498.05, 229.53 495.75 C 228.43 493.45, 228.13 492.31, 228.20 489.91 C 228.27 487.51, 228.68 486.19, 229.87 483.76 C 231.06 481.32, 232.05 479.97, 234.14 477.74 C 236.22 475.51, 237.69 474.32, 240.30 472.59 C 242.90 470.86, 244.50 470.12, 247.15 469.07 C 249.80 468.02, 251.32 467.88, 253.55 467.36 C 255.78 466.85, 256.78 466.78, 258.30 466.51 C 259.81 466.24, 260.52 466.38, 261.11 466.03 C 261.70 465.67, 261.82 465.21, 261.25 464.73" style="stroke: black; fill: black;"/><path d="M 289.58,518.94 C 289.20 518.66, 288.93 518.58, 288.09 518.71 C 287.25 518.85, 286.60 518.80, 285.36 519.60 C 284.12 520.40, 283.24 521.02, 281.89 522.71 C 280.54 524.41, 279.72 525.57, 278.61 528.07 C 277.50 530.58, 276.88 532.25, 276.35 535.24 C 275.82 538.24, 275.62 540.13, 275.96 543.06 C 276.30 546.00, 276.77 547.70, 278.07 549.91 C 279.38 552.12, 280.41 553.16, 282.49 554.12 C 284.57 555.08, 286.00 555.22, 288.47 554.71 C 290.93 554.20, 292.49 553.48, 294.81 551.58 C 297.13 549.67, 298.30 548.08, 300.05 545.18 C 301.81 542.28, 302.61 540.40, 303.57 537.08 C 304.52 533.77, 304.84 531.82, 304.82 528.62 C 304.81 525.41, 304.48 523.64, 303.50 521.04 C 302.52 518.45, 301.57 517.24, 299.92 515.64 C 298.26 514.04, 297.03 513.50, 295.23 513.05 C 293.42 512.60, 292.21 512.76, 290.89 513.39 C 289.57 514.01, 288.86 514.89, 288.62 516.17 C 288.38 517.45, 288.58 518.56, 289.70 519.78 C 290.83 521.00, 291.93 521.80, 294.23 522.27 C 296.53 522.74, 298.17 522.85, 301.22 522.12 C 304.27 521.39, 306.05 520.58, 309.49 518.62 C 312.92 516.66, 314.85 515.36, 318.40 512.32 C 321.96 509.28, 323.91 507.39, 327.25 503.42 C 330.58 499.45, 332.29 497.03, 335.08 492.46 C 337.87 487.90, 339.22 485.22, 341.21 480.60 C 343.20 475.98, 343.98 473.39, 345.03 469.36 C 346.08 465.32, 346.52 463.29, 346.45 460.41 C 346.38 457.54, 345.83 456.26, 344.67 455.00 C 343.50 453.75, 342.40 453.41, 340.64 454.14 C 338.88 454.88, 337.65 455.77, 335.86 458.68 C 334.07 461.59, 333.30 463.75, 331.69 468.70 C 330.09 473.65, 329.24 476.77, 327.84 483.45 C 326.43 490.14, 325.76 494.17, 324.67 502.12 C 323.59 510.06, 323.15 514.69, 322.43 523.16 C 321.72 531.64, 321.47 536.34, 321.10 544.48 C 320.74 552.63, 320.68 556.91, 320.61 563.89 C 320.53 570.87, 320.61 574.28, 320.74 579.36 C 320.88 584.44, 320.80 586.61, 321.29 589.30 C 321.78 591.99, 322.42 592.66, 323.21 592.80 C 323.99 592.95, 324.69 592.14, 325.21 590.01 C 325.73 587.88, 325.78 585.88, 325.81 582.16 C 325.84 578.45, 325.58 575.83, 325.34 571.44 C 325.10 567.05, 324.89 564.40, 324.61 560.19 C 324.32 555.98, 324.18 553.79, 323.92 550.40 C 323.66 547.01, 323.52 545.51, 323.30 543.25 C 323.09 540.99, 322.81 540.24, 322.84 539.08 C 322.87 537.93, 322.83 537.89, 323.44 537.49 C 324.05 537.09, 324.49 537.35, 325.90 537.09 C 327.30 536.83, 328.33 536.93, 330.46 536.20 C 332.59 535.47, 334.00 535.05, 336.53 533.44 C 339.06 531.83, 340.45 530.74, 343.11 528.14 C 345.77 525.53, 347.23 523.97, 349.82 520.40 C 352.41 516.83, 353.73 514.67, 356.08 510.29 C 358.42 505.92, 359.57 503.33, 361.54 498.54 C 363.51 493.74, 364.45 491.00, 365.94 486.32 C 367.43 481.65, 368.05 479.10, 369.00 475.18 C 369.95 471.26, 370.49 469.34, 370.68 466.72 C 370.87 464.11, 370.47 462.88, 369.94 462.11 C 369.41 461.33, 368.68 461.41, 368.04 462.84 C 367.40 464.27, 367.05 465.74, 366.73 469.25 C 366.42 472.76, 366.53 475.27, 366.46 480.39 C 366.39 485.51, 366.40 488.81, 366.40 494.86 C 366.40 500.90, 366.38 504.48, 366.46 510.63 C 366.53 516.79, 366.60 520.15, 366.77 525.63 C 366.95 531.12, 367.05 533.91, 367.34 538.05 C 367.62 542.20, 367.65 544.02, 368.18 546.36 C 368.72 548.69, 369.28 549.33, 370.02 549.72 C 370.75 550.12, 371.31 549.65, 371.86 548.35 C 372.41 547.06, 372.73 545.65, 372.77 543.25 C 372.80 540.84, 372.56 539.04, 372.05 536.32 C 371.55 533.60, 370.98 531.97, 370.23 529.65 C 369.49 527.33, 369.03 526.17, 368.31 524.73 C 367.58 523.30, 367.06 522.83, 366.60 522.45 C 366.15 522.08, 365.81 522.42, 366.02 522.85 C 366.23 523.27, 366.52 523.98, 367.67 524.59 C 368.81 525.21, 369.78 525.67, 371.74 525.92 C 373.70 526.17, 375.04 526.17, 377.46 525.84 C 379.87 525.51, 381.31 525.21, 383.82 524.28 C 386.33 523.35, 387.70 522.65, 390.01 521.18 C 392.32 519.71, 393.56 518.72, 395.37 516.95 C 397.19 515.18, 398.17 513.95, 399.09 512.35 C 400.01 510.75, 400.09 509.66, 399.96 508.96 C 399.84 508.27, 399.24 508.09, 398.46 508.89 C 397.68 509.68, 396.87 510.60, 396.07 512.93 C 395.27 515.26, 394.91 517.19, 394.47 520.53 C 394.02 523.87, 393.89 526.12, 393.84 529.64 C 393.79 533.16, 393.69 535.17, 394.23 538.13 C 394.78 541.09, 395.32 542.54, 396.58 544.44 C 397.83 546.34, 398.73 547.07, 400.52 547.65 C 402.30 548.23, 403.48 548.15, 405.49 547.34 C 407.50 546.53, 408.69 545.61, 410.56 543.61 C 412.44 541.60, 413.36 540.00, 414.84 537.32 C 416.33 534.64, 417.15 532.75, 417.99 530.20 C 418.83 527.64, 418.96 526.05, 419.05 524.55 C 419.14 523.06, 418.75 522.58, 418.45 522.74 C 418.15 522.89, 417.67 523.61, 417.55 525.32 C 417.42 527.03, 417.27 528.71, 417.83 531.29 C 418.39 533.87, 418.99 535.70, 420.35 538.21 C 421.70 540.71, 422.67 542.07, 424.61 543.80 C 426.56 545.54, 427.77 546.27, 430.05 546.87 C 432.34 547.47, 433.69 547.49, 436.03 546.82 C 438.37 546.14, 439.71 545.40, 441.76 543.49 C 443.81 541.59, 444.83 540.14, 446.27 537.28 C 447.72 534.43, 448.30 532.49, 448.97 529.20 C 449.64 525.91, 449.81 523.94, 449.61 520.82 C 449.40 517.70, 448.97 516.00, 447.96 513.58 C 446.96 511.17, 446.05 510.10, 444.59 508.74 C 443.13 507.37, 442.08 506.98, 440.67 506.75 C 439.27 506.53, 438.28 506.90, 437.56 507.61 C 436.83 508.31, 436.61 509.22, 437.07 510.29 C 437.53 511.37, 438.18 512.15, 439.84 512.98 C 441.50 513.81, 442.76 514.20, 445.37 514.45 C 447.98 514.70, 449.67 514.56, 452.87 514.23 C 456.07 513.90, 457.94 513.51, 461.35 512.79 C 464.76 512.08, 466.68 511.51, 469.93 510.64 C 473.17 509.76, 474.94 509.30, 477.58 508.43 C 480.21 507.56, 481.49 507.05, 483.08 506.28 C 484.67 505.50, 485.22 505.05, 485.54 504.54 C 485.86 504.03, 485.55 503.67, 484.68 503.72 C 483.81 503.77, 482.87 503.87, 481.19 504.80 C 479.51 505.73, 478.27 506.48, 476.28 508.36 C 474.29 510.23, 473.16 511.60, 471.25 514.18 C 469.34 516.75, 468.25 518.34, 466.74 521.24 C 465.22 524.14, 464.41 525.82, 463.68 528.67 C 462.96 531.52, 462.84 533.13, 463.11 535.49 C 463.39 537.85, 463.86 539.06, 465.06 540.46 C 466.27 541.85, 467.26 542.36, 469.13 542.46 C 470.99 542.57, 472.28 542.26, 474.38 540.99 C 476.47 539.71, 477.68 538.57, 479.59 536.11 C 481.50 533.65, 482.38 531.84, 483.92 528.67 C 485.47 525.51, 486.27 523.51, 487.34 520.26 C 488.40 517.01, 488.98 515.03, 489.25 512.42 C 489.53 509.82, 489.22 508.46, 488.72 507.24 C 488.22 506.03, 487.59 505.85, 486.76 506.35 C 485.92 506.85, 485.16 507.73, 484.56 509.74 C 483.96 511.74, 483.65 513.50, 483.76 516.38 C 483.87 519.25, 484.26 521.21, 485.10 524.11 C 485.95 527.01, 486.53 528.61, 487.98 530.88 C 489.44 533.15, 490.39 534.23, 492.39 535.47 C 494.39 536.71, 495.64 537.09, 498.00 537.07 C 500.35 537.06, 501.74 536.65, 504.17 535.40 C 506.60 534.15, 507.88 533.01, 510.15 530.82 C 512.42 528.64, 513.58 527.06, 515.50 524.50 C 517.42 521.93, 518.54 520.21, 519.75 518.01 C 520.96 515.81, 521.21 514.49, 521.55 513.52 C 521.88 512.55, 521.64 512.45, 521.45 513.16 C 521.25 513.88, 520.83 514.90, 520.57 517.09 C 520.31 519.28, 520.12 521.16, 520.16 524.10 C 520.20 527.04, 520.31 529.07, 520.77 531.80 C 521.23 534.54, 521.58 536.02, 522.45 537.77 C 523.32 539.52, 523.94 540.17, 525.10 540.54 C 526.27 540.90, 527.07 540.69, 528.28 539.59 C 529.49 538.50, 530.17 537.34, 531.15 535.06 C 532.13 532.78, 532.52 530.99, 533.18 528.20 C 533.85 525.42, 534.10 523.55, 534.48 521.13 C 534.87 518.71, 534.87 517.39, 535.12 516.12 C 535.37 514.86, 535.29 514.65, 535.73 514.80 C 536.17 514.94, 536.27 515.69, 537.30 516.84 C 538.34 517.98, 539.02 519.16, 540.89 520.53 C 542.76 521.89, 544.09 522.80, 546.64 523.66 C 549.18 524.53, 550.76 524.87, 553.62 524.84 C 556.47 524.81, 558.09 524.54, 560.91 523.52 C 563.72 522.50, 565.24 521.62, 567.69 519.74 C 570.13 517.86, 571.40 516.54, 573.14 514.13 C 574.89 511.72, 575.67 510.17, 576.43 507.69 C 577.19 505.21, 577.35 503.73, 576.95 501.73 C 576.54 499.74, 575.88 498.66, 574.40 497.73 C 572.91 496.79, 571.64 496.53, 569.54 497.08 C 567.43 497.63, 565.92 498.39, 563.88 500.46 C 561.84 502.54, 560.75 504.26, 559.32 507.46 C 557.89 510.65, 557.22 512.75, 556.72 516.43 C 556.23 520.10, 556.15 522.30, 556.85 525.84 C 557.54 529.38, 558.20 531.32, 560.19 534.13 C 562.17 536.94, 563.67 538.22, 566.76 539.88 C 569.84 541.53, 571.87 541.99, 575.61 542.41 C 579.35 542.83, 581.84 542.49, 585.46 541.98 C 589.09 541.48, 591.04 540.88, 593.74 539.88 C 596.45 538.88, 598.03 537.79, 599.00 536.98 C 599.96 536.18, 599.78 535.82, 598.56 535.86 C 597.34 535.90, 595.61 536.51, 592.91 537.18 C 590.21 537.85, 588.46 538.68, 585.06 539.19 C 581.65 539.71, 579.30 540.09, 575.88 539.77 C 572.47 539.44, 570.69 539.00, 567.99 537.57 C 565.29 536.14, 564.06 535.05, 562.36 532.61 C 560.67 530.16, 560.07 528.49, 559.51 525.34 C 558.95 522.19, 559.01 520.15, 559.56 516.85 C 560.10 513.55, 560.85 511.62, 562.25 508.84 C 563.64 506.06, 564.87 504.78, 566.52 502.96 C 568.17 501.14, 569.13 500.42, 570.49 499.74 C 571.84 499.05, 572.50 499.07, 573.28 499.53 C 574.05 500.00, 574.34 500.64, 574.36 502.06 C 574.39 503.48, 574.20 504.63, 573.41 506.64 C 572.62 508.66, 571.94 510.03, 570.40 512.12 C 568.85 514.22, 567.80 515.48, 565.67 517.13 C 563.55 518.78, 562.18 519.51, 559.77 520.38 C 557.36 521.25, 556.00 521.50, 553.62 521.47 C 551.25 521.43, 550.00 521.03, 547.91 520.20 C 545.81 519.36, 544.89 518.43, 543.14 517.29 C 541.38 516.14, 540.62 515.26, 539.14 514.46 C 537.66 513.66, 536.99 513.16, 535.74 513.29 C 534.50 513.41, 533.92 513.71, 532.93 515.10 C 531.93 516.48, 531.56 517.82, 530.78 520.23 C 529.99 522.65, 529.67 524.46, 528.99 527.17 C 528.31 529.89, 527.91 531.58, 527.37 533.79 C 526.84 535.99, 526.67 537.10, 526.32 538.21 C 525.97 539.31, 525.88 539.57, 525.64 539.31 C 525.40 539.06, 525.29 538.52, 525.11 536.93 C 524.92 535.35, 524.81 533.98, 524.71 531.39 C 524.61 528.80, 524.69 526.87, 524.59 524.00 C 524.50 521.12, 524.59 519.27, 524.23 517.01 C 523.87 514.74, 523.60 513.61, 522.80 512.67 C 522.00 511.73, 521.45 511.62, 520.24 512.30 C 519.04 512.99, 518.27 514.07, 516.77 516.10 C 515.27 518.13, 514.55 520.00, 512.75 522.46 C 510.95 524.91, 509.79 526.36, 507.76 528.38 C 505.73 530.40, 504.56 531.36, 502.59 532.55 C 500.62 533.73, 499.64 534.19, 497.90 534.31 C 496.16 534.44, 495.31 534.20, 493.88 533.19 C 492.46 532.18, 491.78 531.27, 490.77 529.27 C 489.76 527.27, 489.34 525.82, 488.83 523.19 C 488.33 520.57, 488.40 518.75, 488.23 516.15 C 488.06 513.55, 488.09 512.02, 487.98 510.17 C 487.87 508.32, 487.88 507.47, 487.68 506.90 C 487.48 506.34, 487.33 506.36, 486.98 507.36 C 486.63 508.36, 486.46 509.50, 485.94 511.89 C 485.41 514.28, 485.31 516.23, 484.35 519.30 C 483.38 522.38, 482.62 524.33, 481.10 527.25 C 479.59 530.17, 478.47 531.70, 476.76 533.91 C 475.04 536.12, 474.06 537.07, 472.52 538.31 C 470.99 539.54, 470.22 539.93, 469.09 540.08 C 467.96 540.24, 467.48 540.02, 466.86 539.07 C 466.24 538.11, 465.99 537.22, 466.00 535.31 C 466.01 533.40, 466.17 532.04, 466.89 529.53 C 467.61 527.02, 468.17 525.39, 469.60 522.76 C 471.02 520.12, 472.09 518.62, 474.01 516.37 C 475.93 514.11, 477.30 513.20, 479.18 511.50 C 481.07 509.79, 482.14 509.12, 483.44 507.83 C 484.74 506.55, 485.31 505.95, 485.69 505.09 C 486.07 504.23, 486.02 503.82, 485.32 503.53 C 484.62 503.24, 483.95 503.29, 482.19 503.64 C 480.44 503.99, 479.17 504.45, 476.55 505.27 C 473.94 506.09, 472.28 506.84, 469.12 507.74 C 465.96 508.65, 464.07 509.20, 460.76 509.80 C 457.46 510.40, 455.61 510.60, 452.61 510.74 C 449.60 510.87, 448.05 510.68, 445.73 510.48 C 443.42 510.28, 442.43 510.02, 441.02 509.74 C 439.61 509.45, 439.19 509.21, 438.68 509.04 C 438.16 508.87, 438.18 508.88, 438.46 508.89 C 438.74 508.90, 439.24 508.72, 440.08 509.07 C 440.92 509.42, 441.65 509.52, 442.66 510.65 C 443.66 511.77, 444.36 512.63, 445.10 514.70 C 445.85 516.77, 446.24 518.24, 446.39 521.01 C 446.54 523.78, 446.48 525.61, 445.87 528.56 C 445.25 531.51, 444.58 533.26, 443.30 535.78 C 442.02 538.29, 441.10 539.48, 439.47 541.13 C 437.84 542.79, 436.90 543.45, 435.16 544.06 C 433.43 544.67, 432.47 544.69, 430.81 544.18 C 429.15 543.68, 428.24 543.07, 426.86 541.53 C 425.48 539.99, 424.88 538.74, 423.93 536.47 C 422.97 534.21, 422.78 532.54, 422.10 530.21 C 421.41 527.88, 421.17 526.41, 420.51 524.83 C 419.84 523.26, 419.52 522.55, 418.77 522.34 C 418.02 522.12, 417.62 522.46, 416.74 523.76 C 415.87 525.05, 415.44 526.46, 414.39 528.81 C 413.35 531.16, 412.82 533.03, 411.51 535.51 C 410.19 538.00, 409.26 539.37, 407.81 541.24 C 406.36 543.11, 405.56 543.98, 404.23 544.85 C 402.91 545.72, 402.26 545.93, 401.18 545.59 C 400.10 545.25, 399.58 544.74, 398.84 543.15 C 398.09 541.55, 397.80 540.30, 397.45 537.62 C 397.09 534.94, 396.91 533.04, 397.07 529.74 C 397.24 526.44, 397.70 524.29, 398.27 521.12 C 398.84 517.96, 399.51 516.25, 399.92 513.92 C 400.32 511.59, 400.44 510.59, 400.27 509.47 C 400.11 508.35, 399.83 508.15, 399.09 508.34 C 398.34 508.52, 397.76 509.18, 396.53 510.39 C 395.30 511.61, 394.62 512.84, 392.94 514.40 C 391.27 515.96, 390.21 516.91, 388.14 518.21 C 386.07 519.50, 384.82 520.11, 382.60 520.87 C 380.38 521.64, 379.11 521.84, 377.03 522.02 C 374.94 522.20, 373.87 521.91, 372.18 521.77 C 370.49 521.63, 369.77 521.36, 368.57 521.33 C 367.38 521.29, 366.88 521.29, 366.20 521.59 C 365.52 521.89, 365.32 522.02, 365.19 522.84 C 365.05 523.66, 365.23 524.14, 365.52 525.69 C 365.82 527.23, 366.23 528.29, 366.67 530.57 C 367.10 532.84, 367.28 534.46, 367.68 537.07 C 368.09 539.67, 368.26 541.36, 368.69 543.59 C 369.13 545.82, 369.47 547.06, 369.85 548.21 C 370.23 549.35, 370.45 549.77, 370.59 549.32 C 370.72 548.87, 370.75 548.25, 370.51 545.97 C 370.28 543.68, 369.81 541.96, 369.41 537.88 C 369.01 533.80, 368.77 531.02, 368.51 525.57 C 368.25 520.11, 368.18 516.75, 368.12 510.61 C 368.06 504.48, 368.08 500.90, 368.22 494.88 C 368.36 488.85, 368.49 485.56, 368.81 480.48 C 369.12 475.40, 369.57 472.95, 369.79 469.49 C 370.01 466.02, 370.07 464.62, 369.92 463.16 C 369.77 461.70, 369.42 461.55, 369.03 462.19 C 368.64 462.84, 368.40 463.88, 367.95 466.38 C 367.50 468.88, 367.56 470.82, 366.78 474.69 C 365.99 478.56, 365.45 481.11, 364.04 485.73 C 362.64 490.35, 361.70 493.08, 359.75 497.80 C 357.79 502.51, 356.63 505.07, 354.27 509.31 C 351.91 513.55, 350.57 515.65, 347.96 519.00 C 345.35 522.36, 343.87 523.80, 341.22 526.07 C 338.56 528.34, 337.09 529.02, 334.69 530.36 C 332.28 531.70, 331.12 531.98, 329.18 532.77 C 327.23 533.56, 326.37 533.63, 324.97 534.30 C 323.58 534.97, 323.03 535.21, 322.20 536.11 C 321.37 537.02, 321.15 537.35, 320.83 538.82 C 320.51 540.28, 320.51 541.07, 320.60 543.43 C 320.70 545.79, 320.98 547.24, 321.29 550.62 C 321.60 554.01, 321.89 556.17, 322.16 560.35 C 322.43 564.54, 322.54 567.18, 322.64 571.55 C 322.73 575.91, 322.62 578.51, 322.64 582.16 C 322.66 585.81, 322.60 587.73, 322.74 589.79 C 322.89 591.85, 323.22 592.62, 323.36 592.47 C 323.49 592.31, 323.61 591.66, 323.41 589.02 C 323.22 586.39, 322.68 584.32, 322.38 579.29 C 322.08 574.27, 321.94 570.85, 321.92 563.90 C 321.90 556.94, 321.95 552.66, 322.29 544.53 C 322.63 536.41, 322.88 531.71, 323.62 523.27 C 324.36 514.82, 324.82 510.19, 325.97 502.30 C 327.13 494.41, 327.85 490.38, 329.39 483.80 C 330.94 477.22, 331.92 474.13, 333.71 469.41 C 335.49 464.68, 336.75 462.87, 338.33 460.16 C 339.91 457.45, 340.60 456.68, 341.61 455.84 C 342.62 455.00, 342.95 455.03, 343.38 455.95 C 343.82 456.86, 343.88 457.82, 343.78 460.40 C 343.68 462.98, 343.77 464.95, 342.90 468.84 C 342.03 472.73, 341.31 475.32, 339.43 479.85 C 337.55 484.38, 336.23 487.03, 333.49 491.49 C 330.75 495.95, 329.05 498.32, 325.75 502.14 C 322.45 505.97, 320.48 507.79, 316.98 510.61 C 313.47 513.42, 311.52 514.61, 308.22 516.23 C 304.91 517.84, 303.15 518.16, 300.47 518.68 C 297.78 519.20, 296.58 519.02, 294.79 518.82 C 292.99 518.63, 292.33 518.17, 291.49 517.71 C 290.64 517.24, 290.53 516.92, 290.58 516.50 C 290.63 516.08, 290.95 515.79, 291.73 515.63 C 292.51 515.46, 293.26 515.26, 294.49 515.67 C 295.73 516.07, 296.68 516.36, 297.91 517.64 C 299.14 518.93, 299.87 519.89, 300.64 522.09 C 301.41 524.29, 301.75 525.80, 301.76 528.63 C 301.76 531.45, 301.55 533.26, 300.66 536.24 C 299.78 539.21, 298.95 540.96, 297.33 543.50 C 295.72 546.04, 294.50 547.27, 292.58 548.95 C 290.67 550.62, 289.56 551.33, 287.76 551.90 C 285.96 552.47, 284.99 552.46, 283.58 551.78 C 282.17 551.11, 281.52 550.32, 280.69 548.52 C 279.87 546.71, 279.58 545.27, 279.44 542.75 C 279.30 540.24, 279.44 538.55, 279.98 535.94 C 280.53 533.32, 281.16 531.84, 282.16 529.67 C 283.16 527.51, 283.90 526.55, 284.98 525.10 C 286.05 523.66, 286.71 523.26, 287.55 522.46 C 288.40 521.66, 288.70 521.59, 289.19 521.11 C 289.68 520.64, 289.91 520.52, 289.98 520.08 C 290.06 519.65, 289.96 519.21, 289.58 518.94" style="stroke: black; fill: black;"/><path d="M 668.40,458.03 C 668.02 458.78, 667.83 459.52, 667.74 461.73 C 667.64 463.94, 667.78 465.33, 667.93 469.10 C 668.09 472.87, 668.29 475.33, 668.51 480.60 C 668.73 485.86, 668.86 489.15, 669.03 495.43 C 669.20 501.71, 669.28 505.41, 669.37 512.01 C 669.47 518.60, 669.51 522.31, 669.52 528.40 C 669.54 534.49, 669.47 537.69, 669.43 542.46 C 669.38 547.22, 669.11 549.59, 669.30 552.21 C 669.49 554.83, 670.06 555.71, 670.38 555.55 C 670.70 555.38, 671.12 554.40, 670.91 551.37 C 670.70 548.35, 670.08 545.77, 669.33 540.43 C 668.58 535.09, 668.02 531.42, 667.13 524.67 C 666.24 517.93, 665.69 513.90, 664.87 506.70 C 664.06 499.49, 663.65 495.57, 663.06 488.63 C 662.48 481.70, 662.23 478.17, 661.96 472.03 C 661.69 465.89, 661.61 462.88, 661.72 457.95 C 661.82 453.02, 662.02 450.75, 662.50 447.37 C 662.97 443.99, 663.28 442.71, 664.07 441.05 C 664.86 439.38, 665.17 439.03, 666.44 439.06 C 667.70 439.09, 668.30 439.72, 670.38 441.21 C 672.46 442.70, 673.96 443.71, 676.82 446.49 C 679.67 449.27, 681.45 451.14, 684.65 455.10 C 687.86 459.07, 689.71 461.48, 692.83 466.32 C 695.95 471.16, 697.62 473.89, 700.26 479.31 C 702.90 484.73, 704.28 487.65, 706.03 493.41 C 707.77 499.17, 708.49 502.27, 709.00 508.10 C 709.51 513.93, 709.48 516.97, 708.57 522.56 C 707.67 528.16, 706.80 531.02, 704.50 536.09 C 702.20 541.15, 700.51 543.70, 697.07 547.89 C 693.62 552.08, 691.39 554.04, 687.29 557.04 C 683.18 560.04, 680.73 561.28, 676.55 562.90 C 672.37 564.52, 670.04 564.91, 666.39 565.15 C 662.75 565.39, 660.94 564.97, 658.31 564.10 C 655.69 563.24, 654.63 562.43, 653.27 560.82 C 651.91 559.21, 651.57 558.09, 651.52 556.04 C 651.47 553.99, 651.83 552.82, 653.03 550.56 C 654.23 548.30, 655.12 546.98, 657.51 544.75 C 659.91 542.51, 661.55 541.33, 665.01 539.37 C 668.48 537.42, 670.62 536.53, 674.84 534.97 C 679.07 533.42, 681.49 532.81, 686.14 531.59 C 690.78 530.37, 693.33 529.93, 698.07 528.87 C 702.80 527.81, 705.31 527.40, 709.81 526.29 C 714.31 525.17, 716.61 524.64, 720.57 523.29 C 724.53 521.95, 726.47 521.22, 729.61 519.56 C 732.75 517.91, 734.23 516.98, 736.28 515.00 C 738.33 513.03, 739.07 511.79, 739.87 509.68 C 740.68 507.58, 740.74 506.33, 740.29 504.49 C 739.84 502.65, 739.15 501.59, 737.63 500.47 C 736.11 499.36, 734.85 498.89, 732.68 498.91 C 730.51 498.93, 729.06 499.23, 726.79 500.56 C 724.52 501.90, 723.19 503.01, 721.33 505.58 C 719.47 508.16, 718.60 509.98, 717.48 513.45 C 716.37 516.92, 715.94 519.08, 715.76 522.94 C 715.58 526.80, 715.73 529.06, 716.57 532.74 C 717.40 536.42, 718.14 538.42, 719.94 541.33 C 721.74 544.24, 722.99 545.68, 725.56 547.29 C 728.13 548.91, 729.81 549.39, 732.78 549.42 C 735.76 549.45, 737.48 548.96, 740.43 547.44 C 743.38 545.92, 744.91 544.57, 747.52 541.80 C 750.14 539.03, 751.40 537.08, 753.50 533.58 C 755.60 530.08, 756.51 527.87, 758.03 524.32 C 759.55 520.77, 760.45 518.62, 761.09 515.84 C 761.73 513.06, 761.48 511.54, 761.23 510.42 C 760.98 509.31, 760.38 509.29, 759.82 510.27 C 759.26 511.25, 758.59 512.57, 758.43 515.33 C 758.27 518.08, 758.53 520.36, 759.02 524.02 C 759.52 527.69, 759.96 530.05, 760.90 533.67 C 761.84 537.29, 762.31 539.27, 763.73 542.13 C 765.15 544.98, 766.08 546.34, 767.98 547.96 C 769.89 549.58, 771.11 550.10, 773.27 550.23 C 775.43 550.37, 776.72 550.04, 778.77 548.63 C 780.82 547.22, 781.93 545.95, 783.53 543.19 C 785.13 540.43, 785.76 538.41, 786.77 534.85 C 787.79 531.29, 788.17 529.02, 788.61 525.37 C 789.05 521.72, 789.18 519.63, 788.99 516.61 C 788.81 513.58, 788.40 512.10, 787.69 510.24 C 786.98 508.38, 786.30 507.75, 785.45 507.28 C 784.60 506.82, 783.86 507.12, 783.45 507.91 C 783.04 508.70, 782.81 509.73, 783.40 511.23 C 783.98 512.73, 784.68 513.91, 786.37 515.39 C 788.07 516.88, 789.36 517.71, 791.86 518.67 C 794.36 519.64, 795.91 520.05, 798.86 520.21 C 801.81 520.38, 803.54 520.21, 806.60 519.51 C 809.65 518.81, 811.34 518.15, 814.14 516.73 C 816.94 515.31, 818.42 514.30, 820.59 512.42 C 822.76 510.53, 823.80 509.33, 824.99 507.32 C 826.19 505.31, 826.57 504.08, 826.57 502.35 C 826.58 500.63, 826.16 499.63, 825.02 498.68 C 823.89 497.74, 822.80 497.33, 820.91 497.61 C 819.02 497.88, 817.62 498.36, 815.59 500.06 C 813.55 501.75, 812.40 503.16, 810.71 506.08 C 809.02 509.00, 808.20 510.98, 807.16 514.68 C 806.12 518.38, 805.69 520.67, 805.51 524.57 C 805.34 528.47, 805.47 530.69, 806.29 534.19 C 807.12 537.68, 807.78 539.58, 809.63 542.06 C 811.47 544.54, 812.86 545.63, 815.54 546.61 C 818.22 547.58, 819.95 547.77, 823.03 546.94 C 826.10 546.11, 827.78 545.08, 830.92 542.46 C 834.05 539.85, 835.67 538.02, 838.71 533.87 C 841.74 529.72, 843.31 527.10, 846.09 521.71 C 848.86 516.33, 850.26 513.06, 852.61 506.95 C 854.95 500.84, 856.04 497.32, 857.81 491.18 C 859.58 485.04, 860.33 481.70, 861.45 476.26 C 862.58 470.82, 863.00 468.13, 863.43 463.99 C 863.85 459.85, 864.01 458.02, 863.58 455.55 C 863.16 453.08, 862.50 452.20, 861.30 451.63 C 860.10 451.07, 859.03 451.21, 857.57 452.73 C 856.12 454.24, 855.30 455.66, 854.03 459.21 C 852.77 462.77, 852.23 465.29, 851.25 470.51 C 850.27 475.73, 849.75 479.07, 849.13 485.32 C 848.51 491.58, 848.24 495.32, 848.16 501.79 C 848.08 508.27, 848.15 511.83, 848.73 517.68 C 849.30 523.54, 849.75 526.49, 851.05 531.06 C 852.35 535.62, 853.16 537.67, 855.23 540.50 C 857.30 543.34, 858.66 544.37, 861.40 545.24 C 864.13 546.11, 865.90 545.91, 868.89 544.86 C 871.89 543.80, 873.54 542.45, 876.38 539.96 C 879.21 537.47, 880.69 535.57, 883.08 532.41 C 885.48 529.25, 886.71 527.21, 888.37 524.16 C 890.03 521.10, 890.81 519.45, 891.40 517.15 C 891.99 514.85, 891.85 513.76, 891.31 512.66 C 890.77 511.56, 889.98 511.29, 888.70 511.65 C 887.42 512.01, 886.31 512.67, 884.92 514.44 C 883.54 516.20, 882.67 517.73, 881.77 520.48 C 880.88 523.22, 880.52 525.15, 880.44 528.16 C 880.36 531.16, 880.50 532.94, 881.37 535.49 C 882.24 538.04, 883.01 539.35, 884.78 540.92 C 886.55 542.49, 887.83 543.06, 890.21 543.33 C 892.58 543.61, 894.15 543.36, 896.65 542.29 C 899.15 541.21, 900.63 540.17, 902.71 537.95 C 904.80 535.73, 905.79 534.10, 907.07 531.18 C 908.35 528.27, 908.92 526.42, 909.10 523.37 C 909.27 520.32, 908.98 518.53, 907.94 515.94 C 906.91 513.35, 905.87 512.05, 903.92 510.42 C 901.96 508.80, 900.49 508.25, 898.16 507.80 C 895.82 507.34, 894.31 507.54, 892.23 508.14 C 890.15 508.74, 888.98 509.48, 887.77 510.78 C 886.56 512.08, 886.11 513.18, 886.19 514.65 C 886.26 516.11, 886.75 517.10, 888.14 518.11 C 889.52 519.11, 890.72 519.56, 893.11 519.68 C 895.50 519.79, 897.12 519.56, 900.09 518.69 C 903.05 517.81, 904.79 516.91, 907.94 515.31 C 911.08 513.72, 912.84 512.56, 915.79 510.73 C 918.74 508.89, 920.39 507.83, 922.70 506.12 C 925.00 504.42, 926.04 503.30, 927.32 502.19 C 928.60 501.09, 928.83 500.50, 929.08 500.60 C 929.33 500.70, 928.92 500.99, 928.57 502.68 C 928.21 504.37, 927.84 505.69, 927.31 509.05 C 926.78 512.42, 926.53 514.73, 925.91 519.52 C 925.28 524.30, 924.85 527.21, 924.18 532.97 C 923.51 538.74, 923.13 542.08, 922.57 548.33 C 922.00 554.58, 921.75 558.11, 921.37 564.21 C 920.99 570.30, 920.87 573.60, 920.67 578.82 C 920.46 584.04, 920.28 586.66, 920.34 590.30 C 920.39 593.93, 920.52 595.46, 920.96 597.00 C 921.39 598.55, 921.94 598.80, 922.53 598.01 C 923.12 597.23, 923.62 596.09, 923.89 593.08 C 924.16 590.08, 923.82 587.73, 923.90 582.98 C 923.97 578.23, 923.93 575.13, 924.28 569.31 C 924.63 563.50, 924.86 560.08, 925.67 553.89 C 926.48 547.70, 927.00 544.33, 928.34 538.37 C 929.68 532.41, 930.52 529.35, 932.37 524.09 C 934.22 518.84, 935.36 516.25, 937.60 512.10 C 939.84 507.96, 941.20 506.08, 943.57 503.37 C 945.95 500.67, 947.31 499.77, 949.48 498.58 C 951.66 497.40, 952.69 497.20, 954.45 497.44 C 956.22 497.68, 957.06 498.30, 958.32 499.78 C 959.58 501.26, 960.11 502.44, 960.77 504.85 C 961.43 507.26, 961.74 508.85, 961.62 511.80 C 961.50 514.76, 961.21 516.60, 960.18 519.61 C 959.14 522.62, 958.24 524.36, 956.43 526.86 C 954.63 529.37, 953.31 530.53, 951.16 532.14 C 949.01 533.74, 947.73 534.30, 945.68 534.89 C 943.64 535.47, 942.54 535.46, 940.95 535.07 C 939.37 534.68, 938.64 534.08, 937.77 532.94 C 936.90 531.80, 936.58 530.98, 936.59 529.39 C 936.59 527.79, 936.82 526.80, 937.79 524.97 C 938.77 523.14, 939.59 522.03, 941.45 520.24 C 943.32 518.44, 944.55 517.41, 947.13 515.98 C 949.71 514.55, 951.34 513.89, 954.33 513.09 C 957.32 512.29, 959.06 512.07, 962.08 511.98 C 965.10 511.90, 966.71 512.12, 969.41 512.67 C 972.12 513.21, 973.45 513.72, 975.60 514.71 C 977.74 515.71, 978.70 516.40, 980.16 517.64 C 981.62 518.88, 982.11 519.68, 982.89 520.91 C 983.67 522.14, 983.67 522.89, 984.04 523.79 C 984.41 524.69, 984.41 525.15, 984.73 525.43 C 985.05 525.71, 985.28 525.78, 985.65 525.20 C 986.02 524.63, 986.17 524.04, 986.58 522.56 C 986.98 521.08, 987.13 519.87, 987.67 517.80 C 988.21 515.72, 988.49 514.24, 989.26 512.18 C 990.03 510.12, 990.59 508.94, 991.52 507.51 C 992.46 506.07, 993.01 505.48, 993.93 504.99 C 994.86 504.51, 995.30 504.54, 996.15 505.08 C 997.00 505.62, 997.38 506.24, 998.17 507.68 C 998.95 509.12, 999.38 510.24, 1000.09 512.27 C 1000.80 514.31, 1001.12 515.68, 1001.71 517.85 C 1002.30 520.03, 1002.44 521.39, 1003.04 523.15 C 1003.64 524.91, 1003.95 525.81, 1004.71 526.65 C 1005.47 527.48, 1005.96 527.67, 1006.84 527.31 C 1007.72 526.96, 1008.26 526.38, 1009.13 524.88 C 1009.99 523.39, 1010.41 522.11, 1011.19 519.85 C 1011.96 517.60, 1012.27 515.98, 1012.99 513.62 C 1013.71 511.26, 1014.17 509.80, 1014.77 508.07 C 1015.37 506.33, 1015.61 505.53, 1015.99 504.94 C 1016.38 504.35, 1016.41 504.40, 1016.70 505.11 C 1016.99 505.82, 1017.00 506.66, 1017.45 508.49 C 1017.89 510.32, 1018.15 511.79, 1018.93 514.26 C 1019.70 516.73, 1020.21 518.34, 1021.33 520.83 C 1022.44 523.32, 1023.04 524.77, 1024.51 526.71 C 1025.98 528.65, 1026.83 529.59, 1028.68 530.54 C 1030.53 531.49, 1031.66 531.75, 1033.76 531.46 C 1035.86 531.16, 1037.11 530.65, 1039.19 529.05 C 1041.28 527.45, 1042.38 526.12, 1044.18 523.44 C 1045.98 520.77, 1046.84 518.90, 1048.19 515.65 C 1049.55 512.39, 1050.20 510.36, 1050.94 507.17 C 1051.68 503.98, 1051.97 502.21, 1051.89 499.68 C 1051.82 497.16, 1051.47 495.96, 1050.57 494.54 C 1049.67 493.12, 1048.85 492.63, 1047.40 492.57 C 1045.95 492.51, 1044.87 492.88, 1043.32 494.24 C 1041.78 495.60, 1040.82 496.81, 1039.68 499.37 C 1038.54 501.94, 1038.14 503.81, 1037.64 507.07 C 1037.13 510.33, 1036.99 512.34, 1037.14 515.68 C 1037.30 519.01, 1037.46 520.95, 1038.42 523.74 C 1039.38 526.53, 1040.20 527.93, 1041.94 529.64 C 1043.67 531.36, 1044.84 531.96, 1047.11 532.31 C 1049.38 532.66, 1050.80 532.45, 1053.28 531.39 C 1055.75 530.32, 1057.10 529.23, 1059.49 526.98 C 1061.88 524.74, 1063.09 523.03, 1065.24 520.17 C 1067.38 517.31, 1068.64 515.37, 1070.22 512.70 C 1071.81 510.02, 1072.46 508.42, 1073.15 506.80 C 1073.84 505.18, 1073.75 504.57, 1073.67 504.59 C 1073.58 504.61, 1073.14 505.23, 1072.72 506.88 C 1072.30 508.54, 1071.83 510.15, 1071.56 512.85 C 1071.30 515.55, 1071.23 517.57, 1071.40 520.37 C 1071.58 523.17, 1071.78 524.75, 1072.44 526.84 C 1073.10 528.94, 1073.55 529.86, 1074.71 530.86 C 1075.86 531.86, 1076.67 532.13, 1078.22 531.82 C 1079.78 531.50, 1080.78 530.88, 1082.50 529.29 C 1084.21 527.69, 1085.17 526.26, 1086.79 523.86 C 1088.42 521.47, 1089.31 519.77, 1090.63 517.31 C 1091.95 514.85, 1092.63 513.29, 1093.40 511.56 C 1094.18 509.83, 1094.32 509.02, 1094.50 508.67 C 1094.69 508.31, 1094.44 508.62, 1094.33 509.79 C 1094.21 510.96, 1093.90 512.22, 1093.93 514.50 C 1093.97 516.79, 1093.97 518.56, 1094.48 521.21 C 1094.99 523.87, 1095.37 525.55, 1096.47 527.79 C 1097.58 530.02, 1098.29 531.23, 1100.01 532.40 C 1101.73 533.56, 1102.86 534.00, 1105.07 533.62 C 1107.28 533.23, 1108.68 532.66, 1111.06 530.46 C 1113.44 528.26, 1114.61 526.50, 1116.98 522.61 C 1119.36 518.71, 1120.62 516.19, 1122.92 510.98 C 1125.22 505.77, 1126.40 502.59, 1128.46 496.58 C 1130.52 490.56, 1131.53 487.05, 1133.23 480.89 C 1134.93 474.74, 1135.68 471.36, 1136.96 465.81 C 1138.24 460.26, 1138.74 457.46, 1139.61 453.14 C 1140.48 448.82, 1141.04 446.90, 1141.30 444.21 C 1141.56 441.52, 1141.28 440.42, 1140.89 439.68 C 1140.50 438.95, 1139.87 439.05, 1139.36 440.52 C 1138.85 441.99, 1138.58 443.42, 1138.34 447.02 C 1138.11 450.62, 1138.25 453.17, 1138.18 458.52 C 1138.11 463.87, 1138.07 467.28, 1137.99 473.76 C 1137.92 480.25, 1137.84 484.08, 1137.81 490.94 C 1137.79 497.80, 1137.79 501.61, 1137.89 508.08 C 1137.99 514.54, 1138.11 517.91, 1138.32 523.26 C 1138.54 528.62, 1138.57 531.15, 1138.98 534.86 C 1139.39 538.57, 1139.65 540.18, 1140.38 541.80 C 1141.10 543.42, 1141.85 543.67, 1142.59 542.95 C 1143.33 542.24, 1144.00 541.00, 1144.07 538.22 C 1144.15 535.44, 1143.69 533.18, 1142.97 529.06 C 1142.25 524.93, 1141.68 522.13, 1140.49 517.60 C 1139.30 513.07, 1138.51 510.45, 1137.04 506.40 C 1135.56 502.35, 1134.66 500.33, 1133.12 497.36 C 1131.58 494.39, 1130.66 493.17, 1129.33 491.55 C 1128.00 489.94, 1127.12 489.63, 1126.45 489.30 C 1125.78 488.98, 1125.43 489.41, 1125.98 489.93 C 1126.53 490.44, 1127.16 491.22, 1129.19 491.88 C 1131.23 492.54, 1132.88 492.87, 1136.16 493.24 C 1139.44 493.60, 1141.62 493.61, 1145.59 493.71 C 1149.56 493.80, 1151.93 493.82, 1156.01 493.74 C 1160.08 493.66, 1162.32 493.53, 1165.96 493.30 C 1169.60 493.08, 1171.43 493.00, 1174.21 492.63 C 1177.00 492.26, 1178.21 491.93, 1179.90 491.45 C 1181.59 490.97, 1181.98 490.63, 1182.68 490.23 C 1183.38 489.82, 1183.29 489.67, 1183.40 489.42 C 1183.51 489.17, 1183.44 489.11, 1183.22 489.00 C 1183.00 488.89, 1183.07 488.90, 1182.32 488.89 C 1181.56 488.87, 1181.14 488.80, 1179.44 488.94 C 1177.74 489.08, 1176.55 489.23, 1173.82 489.58 C 1171.08 489.93, 1169.33 490.36, 1165.76 490.68 C 1162.19 491.00, 1159.97 491.14, 1155.97 491.18 C 1151.97 491.21, 1149.61 491.18, 1145.75 490.86 C 1141.89 490.53, 1139.82 490.05, 1136.66 489.54 C 1133.50 489.04, 1132.03 488.54, 1129.93 488.34 C 1127.83 488.14, 1127.05 488.19, 1126.14 488.54 C 1125.24 488.88, 1125.19 489.14, 1125.40 490.05 C 1125.62 490.96, 1126.14 491.38, 1127.21 493.09 C 1128.29 494.80, 1129.26 495.78, 1130.78 498.60 C 1132.30 501.43, 1133.37 503.30, 1134.83 507.21 C 1136.30 511.13, 1137.06 513.73, 1138.10 518.19 C 1139.14 522.65, 1139.48 525.47, 1140.02 529.51 C 1140.56 533.55, 1140.44 535.76, 1140.80 538.39 C 1141.15 541.02, 1141.55 542.06, 1141.80 542.65 C 1142.05 543.25, 1142.16 542.97, 1142.03 541.36 C 1141.90 539.75, 1141.56 538.26, 1141.15 534.62 C 1140.75 530.98, 1140.36 528.49, 1140.00 523.17 C 1139.65 517.86, 1139.53 514.50, 1139.39 508.05 C 1139.25 501.61, 1139.26 497.80, 1139.32 490.95 C 1139.38 484.10, 1139.47 480.27, 1139.69 473.80 C 1139.91 467.33, 1140.08 463.92, 1140.40 458.60 C 1140.73 453.28, 1141.14 450.77, 1141.30 447.18 C 1141.47 443.60, 1141.48 442.20, 1141.24 440.68 C 1140.99 439.17, 1140.56 438.98, 1140.06 439.62 C 1139.57 440.26, 1139.24 441.23, 1138.76 443.86 C 1138.28 446.50, 1138.36 448.48, 1137.68 452.80 C 1137.00 457.12, 1136.54 459.92, 1135.35 465.45 C 1134.16 470.99, 1133.41 474.36, 1131.72 480.48 C 1130.03 486.59, 1129.02 490.09, 1126.91 496.04 C 1124.80 501.98, 1123.58 505.13, 1121.19 510.19 C 1118.80 515.25, 1117.42 517.71, 1114.98 521.32 C 1112.53 524.93, 1111.08 526.27, 1108.99 528.24 C 1106.90 530.22, 1106.02 530.75, 1104.53 531.20 C 1103.03 531.64, 1102.50 531.39, 1101.53 530.46 C 1100.55 529.52, 1100.22 528.52, 1099.66 526.53 C 1099.10 524.54, 1099.07 523.00, 1098.73 520.51 C 1098.39 518.02, 1098.40 516.35, 1097.95 514.08 C 1097.51 511.82, 1097.29 510.52, 1096.52 509.21 C 1095.75 507.90, 1095.24 507.41, 1094.09 507.54 C 1092.95 507.66, 1092.20 508.30, 1090.81 509.84 C 1089.42 511.39, 1088.66 512.92, 1087.16 515.27 C 1085.66 517.62, 1084.77 519.25, 1083.30 521.58 C 1081.84 523.91, 1081.00 525.27, 1079.84 526.93 C 1078.67 528.58, 1078.23 529.31, 1077.49 529.83 C 1076.76 530.36, 1076.54 530.28, 1076.14 529.56 C 1075.75 528.84, 1075.62 528.10, 1075.52 526.25 C 1075.42 524.40, 1075.53 522.95, 1075.63 520.31 C 1075.72 517.67, 1076.01 515.74, 1075.99 513.05 C 1075.97 510.37, 1075.95 508.71, 1075.54 506.89 C 1075.12 505.07, 1074.81 504.27, 1073.91 503.97 C 1073.01 503.67, 1072.36 504.01, 1071.05 505.40 C 1069.73 506.79, 1069.00 508.33, 1067.34 510.91 C 1065.67 513.50, 1064.75 515.57, 1062.74 518.31 C 1060.72 521.05, 1059.41 522.55, 1057.25 524.61 C 1055.09 526.66, 1053.91 527.55, 1051.95 528.59 C 1049.99 529.62, 1049.05 529.95, 1047.43 529.79 C 1045.82 529.64, 1045.08 529.22, 1043.89 527.81 C 1042.70 526.40, 1042.21 525.21, 1041.50 522.76 C 1040.80 520.31, 1040.45 518.57, 1040.36 515.55 C 1040.28 512.54, 1040.49 510.61, 1041.07 507.67 C 1041.65 504.74, 1042.35 503.16, 1043.25 500.88 C 1044.15 498.59, 1044.73 497.57, 1045.58 496.26 C 1046.43 494.95, 1046.87 494.51, 1047.49 494.35 C 1048.11 494.18, 1048.41 494.38, 1048.68 495.43 C 1048.95 496.49, 1049.01 497.42, 1048.85 499.63 C 1048.69 501.83, 1048.57 503.48, 1047.86 506.44 C 1047.15 509.41, 1046.61 511.41, 1045.31 514.43 C 1044.01 517.45, 1043.00 519.12, 1041.36 521.54 C 1039.72 523.96, 1038.72 525.06, 1037.10 526.53 C 1035.49 527.99, 1034.71 528.52, 1033.28 528.87 C 1031.86 529.21, 1031.19 529.06, 1029.96 528.27 C 1028.74 527.48, 1028.19 526.70, 1027.17 524.93 C 1026.15 523.15, 1025.73 521.80, 1024.88 519.41 C 1024.03 517.01, 1023.75 515.39, 1022.93 512.95 C 1022.11 510.51, 1021.75 509.05, 1020.78 507.21 C 1019.81 505.36, 1019.25 504.49, 1018.08 503.74 C 1016.91 502.98, 1016.20 502.86, 1014.94 503.42 C 1013.67 503.98, 1012.94 504.78, 1011.77 506.54 C 1010.59 508.30, 1010.01 509.82, 1009.04 512.22 C 1008.07 514.62, 1007.55 516.23, 1006.91 518.54 C 1006.28 520.85, 1006.07 522.18, 1005.88 523.77 C 1005.69 525.35, 1005.84 526.03, 1005.96 526.47 C 1006.09 526.90, 1006.40 526.74, 1006.49 525.92 C 1006.58 525.11, 1006.62 524.18, 1006.41 522.38 C 1006.20 520.58, 1005.97 519.21, 1005.43 516.91 C 1004.89 514.61, 1004.60 513.12, 1003.69 510.90 C 1002.79 508.68, 1002.20 507.42, 1000.90 505.81 C 999.60 504.20, 998.77 503.49, 997.20 502.87 C 995.63 502.26, 994.68 502.21, 993.04 502.73 C 991.41 503.25, 990.49 503.92, 989.01 505.48 C 987.52 507.05, 986.77 508.33, 985.63 510.57 C 984.50 512.81, 983.90 514.36, 983.31 516.68 C 982.72 519.01, 982.59 520.42, 982.69 522.20 C 982.79 523.97, 983.20 524.85, 983.82 525.57 C 984.45 526.29, 985.25 526.27, 985.83 525.80 C 986.40 525.33, 986.78 524.51, 986.69 523.23 C 986.60 521.95, 986.28 520.98, 985.36 519.41 C 984.44 517.85, 983.79 516.90, 982.10 515.40 C 980.41 513.90, 979.33 513.07, 976.91 511.91 C 974.50 510.76, 973.00 510.20, 970.02 509.62 C 967.03 509.03, 965.27 508.90, 961.99 509.01 C 958.70 509.13, 956.85 509.36, 953.58 510.19 C 950.31 511.02, 948.54 511.66, 945.63 513.16 C 942.71 514.66, 941.16 515.61, 939.00 517.68 C 936.84 519.75, 935.88 521.15, 934.82 523.52 C 933.75 525.89, 933.50 527.30, 933.67 529.51 C 933.84 531.73, 934.34 532.98, 935.66 534.61 C 936.98 536.24, 938.10 537.05, 940.25 537.67 C 942.40 538.28, 943.87 538.31, 946.42 537.70 C 948.97 537.09, 950.52 536.44, 953.00 534.61 C 955.48 532.79, 956.82 531.37, 958.81 528.56 C 960.80 525.76, 961.76 523.91, 962.96 520.59 C 964.15 517.27, 964.58 515.30, 964.78 511.96 C 964.98 508.63, 964.85 506.72, 963.96 503.90 C 963.06 501.08, 962.16 499.63, 960.32 497.87 C 958.48 496.11, 957.17 495.40, 954.76 495.10 C 952.35 494.80, 950.84 494.97, 948.28 496.35 C 945.71 497.72, 944.38 498.99, 941.93 501.97 C 939.47 504.95, 938.21 506.94, 935.99 511.25 C 933.77 515.57, 932.67 518.20, 930.83 523.56 C 929.00 528.91, 928.17 532.00, 926.81 538.03 C 925.46 544.05, 924.94 547.44, 924.05 553.67 C 923.16 559.90, 922.92 563.33, 922.38 569.17 C 921.85 575.01, 921.70 578.12, 921.38 582.87 C 921.05 587.63, 920.71 589.96, 920.76 592.96 C 920.80 595.97, 921.23 597.10, 921.59 597.88 C 921.96 598.66, 922.36 598.41, 922.57 596.88 C 922.78 595.36, 922.66 593.87, 922.64 590.27 C 922.61 586.67, 922.38 584.06, 922.45 578.87 C 922.52 573.67, 922.63 570.38, 922.98 564.30 C 923.33 558.22, 923.59 554.70, 924.19 548.48 C 924.80 542.26, 925.20 538.93, 926.01 533.21 C 926.81 527.49, 927.34 524.61, 928.22 519.88 C 929.10 515.16, 929.83 512.98, 930.42 509.57 C 931.01 506.15, 931.34 504.80, 931.17 502.81 C 931.00 500.82, 930.61 500.17, 929.58 499.61 C 928.54 499.06, 927.76 499.28, 926.00 500.04 C 924.23 500.80, 923.12 501.79, 920.76 503.42 C 918.40 505.05, 917.03 506.37, 914.19 508.19 C 911.35 510.00, 909.59 511.09, 906.57 512.48 C 903.54 513.87, 901.77 514.40, 899.08 515.14 C 896.38 515.88, 895.02 516.03, 893.08 516.18 C 891.14 516.33, 890.35 516.19, 889.39 515.88 C 888.43 515.57, 888.23 515.23, 888.28 514.63 C 888.34 514.02, 888.72 513.54, 889.68 512.85 C 890.63 512.17, 891.49 511.60, 893.07 511.19 C 894.66 510.77, 895.82 510.48, 897.61 510.78 C 899.40 511.08, 900.54 511.43, 902.03 512.68 C 903.53 513.93, 904.33 514.94, 905.09 517.03 C 905.84 519.13, 906.02 520.59, 905.81 523.15 C 905.60 525.71, 905.17 527.34, 904.03 529.83 C 902.90 532.31, 901.90 533.66, 900.14 535.56 C 898.39 537.46, 897.21 538.34, 895.27 539.34 C 893.33 540.33, 892.18 540.63, 890.45 540.54 C 888.72 540.46, 887.83 540.12, 886.62 538.93 C 885.42 537.74, 884.91 536.71, 884.43 534.61 C 883.95 532.50, 883.94 530.97, 884.22 528.40 C 884.50 525.83, 885.07 524.19, 885.82 521.77 C 886.58 519.36, 887.25 518.05, 888.00 516.32 C 888.76 514.59, 889.21 513.80, 889.61 513.12 C 890.00 512.44, 890.16 512.31, 889.98 512.94 C 889.80 513.56, 889.54 514.28, 888.71 516.25 C 887.87 518.21, 887.36 519.86, 885.80 522.77 C 884.24 525.68, 883.15 527.75, 880.91 530.78 C 878.66 533.80, 877.15 535.60, 874.56 537.90 C 871.96 540.21, 870.43 541.29, 867.93 542.31 C 865.43 543.34, 864.26 543.65, 862.06 543.04 C 859.87 542.42, 858.82 541.72, 856.97 539.23 C 855.11 536.73, 854.13 534.88, 852.80 530.54 C 851.48 526.20, 850.95 523.26, 850.34 517.52 C 849.73 511.77, 849.64 508.22, 849.75 501.82 C 849.85 495.42, 850.14 491.68, 850.86 485.51 C 851.59 479.34, 852.21 476.02, 853.38 470.95 C 854.55 465.89, 855.51 463.54, 856.72 460.17 C 857.93 456.81, 858.62 455.63, 859.43 454.11 C 860.24 452.59, 860.38 452.23, 860.76 452.57 C 861.14 452.92, 861.19 453.57, 861.32 455.82 C 861.45 458.06, 861.70 459.78, 861.40 463.81 C 861.10 467.83, 860.83 470.55, 859.82 475.94 C 858.80 481.33, 858.06 484.67, 856.33 490.76 C 854.60 496.85, 853.50 500.36, 851.15 506.39 C 848.80 512.42, 847.38 515.66, 844.56 520.91 C 841.75 526.17, 840.13 528.73, 837.09 532.66 C 834.06 536.59, 832.35 538.27, 829.40 540.58 C 826.44 542.90, 824.89 543.55, 822.30 544.26 C 819.71 544.97, 818.53 544.90, 816.45 544.13 C 814.37 543.35, 813.42 542.50, 811.91 540.39 C 810.41 538.27, 809.66 536.70, 808.91 533.57 C 808.16 530.43, 807.97 528.32, 808.16 524.70 C 808.36 521.09, 808.80 518.87, 809.88 515.50 C 810.96 512.12, 811.96 510.36, 813.58 507.81 C 815.19 505.27, 816.36 504.27, 817.96 502.78 C 819.57 501.28, 820.44 500.83, 821.61 500.32 C 822.78 499.81, 823.29 499.85, 823.82 500.21 C 824.34 500.57, 824.49 501.03, 824.22 502.12 C 823.95 503.21, 823.63 504.10, 822.47 505.65 C 821.31 507.20, 820.39 508.23, 818.42 509.87 C 816.46 511.51, 815.17 512.55, 812.66 513.83 C 810.15 515.12, 808.60 515.72, 805.89 516.29 C 803.18 516.86, 801.63 516.91, 799.10 516.70 C 796.58 516.49, 795.29 516.11, 793.27 515.23 C 791.26 514.34, 790.43 513.43, 789.02 512.28 C 787.62 511.13, 787.11 510.34, 786.24 509.48 C 785.37 508.62, 785.05 508.23, 784.69 507.97 C 784.33 507.70, 784.35 507.57, 784.43 508.17 C 784.51 508.77, 784.82 509.23, 785.10 510.95 C 785.37 512.67, 785.69 513.96, 785.81 516.77 C 785.94 519.59, 786.11 521.59, 785.72 525.03 C 785.34 528.48, 784.90 530.69, 783.89 534.00 C 782.87 537.30, 782.00 539.07, 780.63 541.55 C 779.27 544.02, 778.49 545.11, 777.04 546.38 C 775.60 547.65, 774.86 547.98, 773.41 547.90 C 771.95 547.83, 771.17 547.42, 769.77 546.01 C 768.37 544.60, 767.61 543.45, 766.42 540.84 C 765.22 538.23, 764.55 536.41, 763.79 532.97 C 763.02 529.53, 762.89 527.18, 762.59 523.63 C 762.30 520.09, 762.58 517.92, 762.32 515.25 C 762.06 512.59, 761.80 511.34, 761.30 510.31 C 760.80 509.28, 760.49 509.19, 759.80 510.12 C 759.11 511.05, 758.71 512.31, 757.85 514.95 C 757.00 517.59, 756.85 519.86, 755.54 523.32 C 754.23 526.78, 753.30 528.94, 751.31 532.26 C 749.31 535.59, 748.02 537.42, 745.58 539.95 C 743.14 542.48, 741.67 543.57, 739.12 544.90 C 736.56 546.23, 735.21 546.60, 732.80 546.59 C 730.39 546.59, 729.18 546.23, 727.08 544.89 C 724.97 543.55, 723.85 542.44, 722.26 539.89 C 720.68 537.34, 719.90 535.51, 719.14 532.15 C 718.37 528.79, 718.22 526.64, 718.44 523.09 C 718.66 519.54, 719.13 517.49, 720.25 514.39 C 721.37 511.29, 722.38 509.77, 724.04 507.59 C 725.70 505.40, 726.79 504.57, 728.55 503.44 C 730.31 502.32, 731.31 502.12, 732.83 501.96 C 734.35 501.80, 735.13 502.03, 736.14 502.65 C 737.16 503.27, 737.64 503.84, 737.91 505.05 C 738.18 506.26, 738.21 507.12, 737.49 508.70 C 736.77 510.28, 736.13 511.22, 734.32 512.96 C 732.51 514.70, 731.31 515.74, 728.42 517.40 C 725.53 519.06, 723.67 519.86, 719.85 521.25 C 716.03 522.63, 713.76 523.19, 709.32 524.33 C 704.88 525.48, 702.37 525.90, 697.64 526.96 C 692.90 528.02, 690.34 528.44, 685.63 529.63 C 680.93 530.83, 678.47 531.41, 674.11 532.92 C 669.75 534.44, 667.54 535.28, 663.84 537.22 C 660.15 539.17, 658.35 540.28, 655.63 542.66 C 652.92 545.05, 651.62 546.42, 650.26 549.13 C 648.89 551.83, 648.60 553.52, 648.81 556.19 C 649.02 558.85, 649.57 560.40, 651.32 562.47 C 653.06 564.54, 654.47 565.58, 657.52 566.55 C 660.57 567.52, 662.62 567.71, 666.57 567.33 C 670.52 566.96, 672.91 566.46, 677.26 564.68 C 681.61 562.91, 684.11 561.60, 688.33 558.45 C 692.54 555.30, 694.82 553.28, 698.35 548.93 C 701.87 544.59, 703.60 541.97, 705.95 536.74 C 708.30 531.52, 709.19 528.57, 710.11 522.81 C 711.02 517.05, 711.05 513.93, 710.53 507.96 C 710.01 501.99, 709.27 498.83, 707.50 492.96 C 705.74 487.09, 704.34 484.13, 701.70 478.61 C 699.07 473.10, 697.40 470.34, 694.32 465.38 C 691.24 460.42, 689.43 457.96, 686.30 453.81 C 683.18 449.67, 681.54 447.68, 678.69 444.65 C 675.84 441.62, 674.52 440.15, 672.04 438.66 C 669.56 437.17, 668.25 436.93, 666.29 437.21 C 664.34 437.49, 663.45 438.08, 662.26 440.06 C 661.07 442.03, 660.79 443.51, 660.33 447.08 C 659.88 450.66, 659.97 452.93, 660.00 457.94 C 660.03 462.94, 660.16 465.94, 660.49 472.10 C 660.83 478.27, 661.10 481.80, 661.69 488.75 C 662.28 495.70, 662.70 499.62, 663.45 506.85 C 664.20 514.08, 664.70 518.11, 665.45 524.88 C 666.20 531.65, 666.60 535.33, 667.18 540.70 C 667.76 546.07, 667.73 548.72, 668.35 551.72 C 668.96 554.72, 669.61 555.60, 670.25 555.70 C 670.89 555.80, 671.33 554.87, 671.55 552.22 C 671.76 549.57, 671.41 547.22, 671.33 542.45 C 671.24 537.68, 671.20 534.48, 671.12 528.38 C 671.04 522.29, 671.01 518.58, 670.93 511.99 C 670.86 505.39, 670.80 501.69, 670.74 495.40 C 670.68 489.11, 670.64 485.82, 670.63 480.55 C 670.62 475.28, 670.74 472.81, 670.71 469.03 C 670.69 465.25, 670.70 463.86, 670.49 461.65 C 670.27 459.45, 670.04 458.72, 669.62 458.00 C 669.21 457.27, 668.78 457.29, 668.40 458.03" style="stroke: black; fill: black;"/></svg>