<svg xmlns="http://www.w3.org/2000/svg" id="canvas" viewBox="249.008 403.446 1006.290 149.599"><path d="M 300.14,420.14 C 299.39 420.66, 298.94 421.47, 298.15 423.25 C 297.36 425.02, 296.88 426.16, 296.18 429.01 C 295.48 431.86, 295.46 433.72, 294.65 437.50 C 293.85 441.28, 293.27 443.59, 292.15 447.93 C 291.03 452.27, 290.44 454.54, 289.04 459.20 C 287.64 463.86, 286.75 466.45, 285.15 471.23 C 283.55 476.01, 282.74 478.40, 281.05 483.08 C 279.36 487.76, 278.46 490.25, 276.71 494.64 C 274.95 499.04, 273.93 501.14, 272.27 505.06 C 270.61 508.98, 269.80 511.07, 268.39 514.24 C 266.98 517.40, 266.25 518.70, 265.23 520.88 C 264.20 523.07, 263.76 523.84, 263.27 525.16 C 262.78 526.48, 262.82 526.86, 262.78 527.47 C 262.75 528.07, 262.96 528.02, 263.10 528.20 C 263.23 528.38, 263.25 528.36, 263.47 528.37 C 263.68 528.39, 263.67 528.60, 264.18 528.27 C 264.69 527.93, 265.11 527.84, 266.00 526.69 C 266.90 525.54, 267.54 524.76, 268.64 522.53 C 269.75 520.29, 270.25 518.81, 271.51 515.53 C 272.77 512.25, 273.42 510.13, 274.95 506.14 C 276.48 502.16, 277.46 500.04, 279.16 495.60 C 280.86 491.16, 281.77 488.65, 283.46 483.95 C 285.15 479.24, 285.95 476.84, 287.59 472.06 C 289.24 467.27, 290.16 464.67, 291.67 460.02 C 293.18 455.36, 293.81 453.09, 295.15 448.78 C 296.48 444.47, 297.21 442.18, 298.35 438.45 C 299.48 434.73, 300.11 433.00, 300.82 430.17 C 301.54 427.33, 301.71 426.18, 301.92 424.27 C 302.12 422.36, 302.21 421.46, 301.86 420.63 C 301.50 419.81, 300.88 419.62, 300.14 420.14" style="stroke: black; fill: black;"/><path d="M 252.75,423.40 C 253.60 423.78, 254.46 423.91, 256.64 423.67 C 258.82 423.43, 260.25 423.02, 263.63 422.21 C 267.00 421.39, 269.11 420.61, 273.51 419.60 C 277.91 418.58, 280.42 418.11, 285.62 417.15 C 290.82 416.19, 293.90 415.69, 299.52 414.80 C 305.15 413.90, 307.99 413.26, 313.74 412.67 C 319.49 412.09, 322.74 411.99, 328.27 411.89 C 333.80 411.79, 336.51 411.83, 341.37 412.16 C 346.23 412.48, 348.75 412.87, 352.55 413.51 C 356.36 414.14, 357.97 414.83, 360.38 415.33 C 362.80 415.84, 363.44 415.88, 364.62 416.03 C 365.81 416.17, 365.95 416.05, 366.31 416.07 C 366.68 416.10, 366.31 416.14, 366.44 416.15 C 366.58 416.17, 366.86 416.36, 367.00 416.15 C 367.14 415.93, 367.43 415.60, 367.12 415.08 C 366.81 414.56, 366.65 414.18, 365.46 413.53 C 364.27 412.88, 363.66 412.44, 361.17 411.84 C 358.67 411.24, 356.90 410.98, 352.96 410.54 C 349.03 410.10, 346.45 409.84, 341.50 409.65 C 336.55 409.46, 333.81 409.44, 328.22 409.60 C 322.62 409.75, 319.32 409.85, 313.51 410.43 C 307.70 411.00, 304.84 411.65, 299.17 412.47 C 293.50 413.29, 290.44 413.74, 285.18 414.53 C 279.92 415.31, 277.38 415.67, 272.89 416.40 C 268.39 417.12, 266.14 417.44, 262.72 418.14 C 259.30 418.84, 257.85 419.17, 255.79 419.89 C 253.72 420.60, 253.00 421.03, 252.39 421.74 C 251.78 422.44, 251.90 423.01, 252.75 423.40" style="stroke: black; fill: black;"/><path d="M 382.59,480.65 C 381.69 479.92, 380.19 479.31, 377.82 478.96 C 375.46 478.62, 373.91 478.32, 370.77 478.92 C 367.63 479.53, 365.66 480.20, 362.12 481.98 C 358.58 483.76, 356.81 485.14, 353.09 487.82 C 349.37 490.51, 347.28 492.28, 343.51 495.41 C 339.74 498.54, 337.69 500.31, 334.25 503.46 C 330.80 506.62, 328.93 508.20, 326.30 511.18 C 323.66 514.15, 322.36 515.67, 321.07 518.34 C 319.78 521.02, 319.56 522.41, 319.85 524.55 C 320.14 526.69, 320.85 527.81, 322.52 529.04 C 324.20 530.26, 325.60 530.73, 328.22 530.66 C 330.84 530.59, 332.52 530.01, 335.65 528.67 C 338.77 527.34, 340.44 526.31, 343.85 523.99 C 347.27 521.68, 349.17 520.13, 352.72 517.09 C 356.27 514.04, 358.21 512.14, 361.60 508.78 C 364.99 505.41, 366.71 503.54, 369.67 500.28 C 372.63 497.02, 374.55 495.11, 376.41 492.47 C 378.27 489.83, 378.70 488.37, 378.97 487.06 C 379.24 485.75, 378.68 485.52, 377.74 485.91 C 376.81 486.30, 375.69 486.91, 374.28 489.03 C 372.87 491.15, 372.08 493.09, 370.69 496.51 C 369.30 499.93, 368.61 502.33, 367.34 506.12 C 366.06 509.92, 365.35 512.02, 364.31 515.48 C 363.26 518.93, 362.62 520.58, 362.12 523.41 C 361.63 526.25, 361.69 527.57, 361.84 529.66 C 361.99 531.76, 362.37 532.66, 362.87 533.89 C 363.38 535.11, 363.77 535.31, 364.37 535.77 C 364.97 536.22, 365.47 536.28, 365.88 536.16 C 366.28 536.04, 366.39 535.51, 366.39 535.19 C 366.39 534.86, 365.99 534.94, 365.88 534.53 C 365.76 534.11, 365.89 534.11, 365.82 533.12 C 365.75 532.13, 365.46 531.38, 365.52 529.58 C 365.59 527.78, 365.67 526.73, 366.14 524.12 C 366.61 521.51, 366.90 519.86, 367.87 516.53 C 368.83 513.19, 369.52 511.07, 370.95 507.45 C 372.39 503.82, 373.51 501.67, 375.04 498.41 C 376.57 495.16, 377.78 493.55, 378.60 491.17 C 379.42 488.80, 379.42 487.61, 379.14 486.54 C 378.87 485.48, 378.40 485.11, 377.23 485.83 C 376.06 486.55, 375.28 487.66, 373.30 490.15 C 371.33 492.64, 370.10 494.95, 367.35 498.27 C 364.61 501.59, 362.89 503.44, 359.57 506.73 C 356.25 510.03, 354.29 511.88, 350.76 514.74 C 347.24 517.60, 345.31 519.03, 341.96 521.02 C 338.61 523.00, 336.85 523.58, 334.02 524.66 C 331.19 525.74, 329.81 526.07, 327.81 526.44 C 325.82 526.81, 325.08 526.93, 324.05 526.51 C 323.03 526.10, 322.62 525.66, 322.69 524.37 C 322.76 523.07, 323.19 522.26, 324.40 520.03 C 325.60 517.81, 326.34 516.12, 328.70 513.22 C 331.06 510.33, 332.87 508.69, 336.20 505.57 C 339.52 502.45, 341.59 500.66, 345.33 497.62 C 349.06 494.58, 351.20 492.84, 354.87 490.37 C 358.53 487.90, 360.33 486.71, 363.66 485.29 C 367.00 483.87, 368.75 483.72, 371.54 483.26 C 374.34 482.80, 375.48 483.14, 377.63 483.01 C 379.79 482.88, 381.34 483.07, 382.33 482.60 C 383.32 482.13, 383.49 481.37, 382.59 480.65" style="stroke: black; fill: black;"/><path d="M 428.38,428.99 C 427.73 429.22, 427.45 429.47, 426.58 430.73 C 425.72 431.99, 425.08 432.71, 424.06 435.29 C 423.03 437.87, 422.77 439.84, 421.46 443.61 C 420.15 447.38, 419.28 449.61, 417.52 454.12 C 415.76 458.64, 414.68 461.35, 412.67 466.19 C 410.67 471.04, 409.51 473.61, 407.50 478.37 C 405.50 483.13, 404.43 485.53, 402.66 489.99 C 400.88 494.44, 400.01 496.70, 398.62 500.65 C 397.24 504.60, 396.76 506.48, 395.74 509.74 C 394.72 513.00, 394.14 514.44, 393.52 516.94 C 392.91 519.44, 392.74 520.56, 392.67 522.26 C 392.61 523.96, 392.84 524.79, 393.20 525.45 C 393.55 526.11, 393.99 526.10, 394.45 525.57 C 394.92 525.04, 394.95 524.34, 395.51 522.81 C 396.08 521.29, 396.58 520.36, 397.27 517.93 C 397.96 515.50, 398.16 513.93, 398.98 510.65 C 399.79 507.37, 400.13 505.49, 401.35 501.55 C 402.57 497.61, 403.39 495.38, 405.08 490.94 C 406.78 486.50, 407.83 484.10, 409.83 479.35 C 411.84 474.61, 413.01 472.04, 415.11 467.23 C 417.20 462.41, 418.32 459.72, 420.31 455.29 C 422.29 450.86, 423.30 448.69, 425.02 445.07 C 426.74 441.44, 427.93 439.78, 428.92 437.17 C 429.90 434.55, 429.76 433.51, 429.93 431.98 C 430.11 430.46, 430.12 430.16, 429.81 429.56 C 429.50 428.96, 429.02 428.76, 428.38 428.99" style="stroke: black; fill: black;"/><path d="M 456.49,462.17 C 455.67 461.80, 454.76 461.56, 452.82 461.99 C 450.89 462.41, 449.50 462.83, 446.79 464.31 C 444.08 465.78, 442.49 467.05, 439.27 469.36 C 436.06 471.67, 434.01 473.22, 430.70 475.86 C 427.39 478.51, 425.68 480.12, 422.72 482.58 C 419.77 485.05, 418.12 486.05, 415.94 488.20 C 413.75 490.36, 412.76 491.39, 411.81 493.36 C 410.85 495.34, 410.76 496.29, 411.16 498.07 C 411.56 499.85, 412.18 500.81, 413.81 502.27 C 415.43 503.74, 416.66 504.48, 419.28 505.40 C 421.89 506.33, 423.57 506.44, 426.87 506.90 C 430.18 507.36, 432.32 507.49, 435.80 507.72 C 439.28 507.95, 441.42 508.13, 444.27 508.05 C 447.13 507.98, 448.26 507.67, 450.09 507.35 C 451.92 507.02, 452.77 506.86, 453.43 506.43 C 454.10 505.99, 454.09 505.59, 453.43 505.16 C 452.76 504.73, 451.92 504.61, 450.11 504.27 C 448.29 503.92, 447.16 503.61, 444.35 503.44 C 441.55 503.26, 439.43 503.61, 436.08 503.40 C 432.72 503.19, 430.64 502.92, 427.58 502.39 C 424.52 501.86, 423.08 501.39, 420.77 500.73 C 418.46 500.08, 417.44 499.79, 416.03 499.12 C 414.63 498.45, 414.03 498.20, 413.74 497.38 C 413.45 496.56, 413.57 496.28, 414.56 495.01 C 415.54 493.74, 416.58 493.00, 418.67 491.04 C 420.75 489.08, 422.15 487.71, 424.98 485.22 C 427.82 482.74, 429.54 481.12, 432.84 478.60 C 436.14 476.09, 438.21 474.66, 441.47 472.65 C 444.72 470.64, 446.56 469.95, 449.12 468.54 C 451.67 467.13, 452.68 466.53, 454.23 465.58 C 455.79 464.64, 456.45 464.51, 456.90 463.83 C 457.35 463.15, 457.31 462.54, 456.49 462.17" style="stroke: black; fill: black;"/><path d="M 486.64,465.97 C 486.10 466.04, 486.04 465.93, 485.20 466.75 C 484.36 467.57, 483.57 468.12, 482.43 470.09 C 481.29 472.05, 480.75 473.57, 479.51 476.56 C 478.26 479.54, 477.55 481.69, 476.22 485.00 C 474.89 488.30, 473.82 489.95, 472.84 493.09 C 471.86 496.24, 471.40 497.97, 471.30 500.70 C 471.20 503.44, 471.43 504.65, 472.35 506.75 C 473.28 508.85, 474.09 509.77, 475.93 511.21 C 477.76 512.64, 478.94 513.30, 481.52 513.93 C 484.11 514.55, 485.84 514.77, 488.86 514.36 C 491.87 513.95, 493.43 513.27, 496.60 511.88 C 499.77 510.50, 501.49 509.55, 504.72 507.42 C 507.94 505.30, 509.54 503.97, 512.74 501.27 C 515.94 498.56, 517.65 496.96, 520.71 493.90 C 523.77 490.85, 525.42 489.19, 528.04 486.00 C 530.66 482.82, 531.78 481.01, 533.80 477.98 C 535.82 474.95, 537.33 473.09, 538.14 470.87 C 538.95 468.65, 538.54 467.40, 537.86 466.87 C 537.17 466.34, 536.09 466.74, 534.71 468.22 C 533.33 469.70, 532.54 471.31, 530.97 474.28 C 529.40 477.25, 528.41 479.70, 526.86 483.07 C 525.31 486.45, 524.34 488.29, 523.20 491.14 C 522.06 493.99, 521.65 495.21, 521.17 497.33 C 520.68 499.45, 520.72 500.33, 520.78 501.74 C 520.84 503.16, 521.03 503.68, 521.46 504.41 C 521.89 505.14, 522.48 505.36, 522.95 505.41 C 523.41 505.45, 523.67 504.97, 523.78 504.63 C 523.89 504.30, 523.48 504.27, 523.49 503.74 C 523.50 503.20, 523.60 503.04, 523.83 501.96 C 524.07 500.89, 524.02 500.18, 524.69 498.36 C 525.36 496.54, 525.93 495.53, 527.18 492.86 C 528.43 490.20, 529.29 488.32, 530.94 485.03 C 532.58 481.75, 534.06 479.49, 535.42 476.45 C 536.78 473.41, 537.34 471.74, 537.76 469.84 C 538.17 467.95, 538.08 467.11, 537.51 466.97 C 536.94 466.83, 536.24 467.32, 534.89 469.12 C 533.53 470.92, 532.60 473.01, 530.73 476.00 C 528.87 478.98, 528.01 480.89, 525.57 484.03 C 523.13 487.17, 521.50 488.74, 518.52 491.69 C 515.53 494.64, 513.80 496.21, 510.66 498.76 C 507.52 501.30, 505.94 502.54, 502.82 504.42 C 499.71 506.29, 498.00 507.07, 495.09 508.13 C 492.18 509.19, 490.81 509.43, 488.27 509.72 C 485.73 510.01, 484.44 509.90, 482.40 509.59 C 480.36 509.28, 479.46 509.00, 478.07 508.16 C 476.69 507.33, 476.06 506.86, 475.49 505.43 C 474.92 503.99, 474.96 503.20, 475.23 500.99 C 475.49 498.79, 475.82 497.25, 476.81 494.40 C 477.79 491.54, 478.69 489.85, 480.16 486.71 C 481.63 483.57, 482.75 481.54, 484.17 478.69 C 485.60 475.84, 486.45 474.56, 487.30 472.47 C 488.14 470.39, 488.29 469.48, 488.41 468.26 C 488.53 467.05, 488.24 466.86, 487.89 466.40 C 487.53 465.94, 487.17 465.90, 486.64 465.97" style="stroke: black; fill: black;"/><path d="M 572.57,467.53 C 572.07 467.87, 572.29 468.11, 571.69 469.16 C 571.09 470.21, 570.45 470.80, 569.59 472.77 C 568.72 474.74, 568.51 476.25, 567.36 479.02 C 566.21 481.79, 565.30 483.71, 563.85 486.64 C 562.39 489.58, 561.49 491.11, 560.10 493.71 C 558.70 496.32, 557.57 497.72, 556.88 499.65 C 556.20 501.58, 556.26 502.57, 556.67 503.36 C 557.07 504.15, 557.69 504.24, 558.91 503.61 C 560.13 502.98, 561.03 502.37, 562.77 500.21 C 564.51 498.06, 565.30 496.02, 567.61 492.84 C 569.92 489.67, 571.30 487.63, 574.31 484.35 C 577.31 481.06, 579.21 479.26, 582.63 476.42 C 586.06 473.59, 588.20 472.15, 591.44 470.18 C 594.68 468.20, 596.36 467.63, 598.82 466.54 C 601.28 465.45, 602.28 465.00, 603.73 464.72 C 605.18 464.44, 605.60 464.52, 606.07 465.15 C 606.53 465.79, 606.29 466.35, 606.06 467.89 C 605.83 469.42, 605.56 470.58, 604.93 472.82 C 604.31 475.06, 603.95 476.44, 602.93 479.08 C 601.91 481.73, 601.11 483.35, 599.83 486.05 C 598.56 488.74, 597.27 490.32, 596.56 492.58 C 595.84 494.84, 595.86 496.00, 596.25 497.35 C 596.64 498.70, 597.13 499.19, 598.51 499.32 C 599.90 499.45, 600.93 499.43, 603.17 498.02 C 605.41 496.61, 606.72 494.88, 609.72 492.27 C 612.73 489.66, 614.56 487.78, 618.20 484.96 C 621.84 482.14, 624.03 480.62, 627.94 478.17 C 631.85 475.73, 634.20 474.41, 637.73 472.74 C 641.26 471.06, 643.09 470.57, 645.58 469.81 C 648.07 469.04, 648.97 468.81, 650.18 468.92 C 651.40 469.04, 651.60 469.33, 651.65 470.40 C 651.69 471.48, 651.16 472.26, 650.42 474.30 C 649.69 476.34, 649.05 477.82, 647.97 480.59 C 646.89 483.35, 646.23 485.13, 645.02 488.12 C 643.81 491.11, 642.91 492.73, 641.92 495.52 C 640.92 498.32, 640.36 499.75, 640.05 502.09 C 639.74 504.43, 640.07 505.71, 640.38 507.21 C 640.68 508.70, 641.13 509.14, 641.60 509.57 C 642.07 510.01, 642.39 509.89, 642.73 509.41 C 643.06 508.93, 642.99 508.47, 643.26 507.18 C 643.54 505.88, 643.55 504.94, 644.13 502.92 C 644.70 500.90, 645.15 499.71, 646.16 497.10 C 647.16 494.48, 647.89 492.81, 649.17 489.87 C 650.45 486.92, 651.44 485.29, 652.57 482.38 C 653.70 479.48, 654.46 477.90, 654.82 475.35 C 655.17 472.79, 655.15 471.42, 654.35 469.61 C 653.56 467.81, 652.80 467.02, 650.85 466.33 C 648.90 465.63, 647.49 465.44, 644.58 466.15 C 641.67 466.86, 639.95 467.99, 636.31 469.89 C 632.66 471.78, 630.37 473.15, 626.36 475.64 C 622.35 478.13, 620.11 479.64, 616.26 482.32 C 612.41 485.00, 610.32 486.66, 607.12 489.03 C 603.92 491.40, 602.11 492.50, 600.27 494.18 C 598.43 495.85, 598.29 496.74, 597.92 497.41 C 597.55 498.08, 597.86 498.13, 598.42 497.54 C 598.98 496.96, 599.57 496.35, 600.73 494.48 C 601.90 492.60, 602.87 490.90, 604.23 488.18 C 605.59 485.47, 606.43 483.73, 607.55 480.88 C 608.67 478.03, 609.33 476.58, 609.83 473.95 C 610.32 471.32, 610.39 469.84, 610.02 467.73 C 609.64 465.61, 609.24 464.57, 607.95 463.36 C 606.66 462.15, 605.68 461.74, 603.55 461.67 C 601.42 461.60, 600.08 461.86, 597.31 463.02 C 594.54 464.17, 593.02 465.24, 589.70 467.45 C 586.38 469.66, 584.25 471.15, 580.70 474.08 C 577.15 477.00, 575.22 478.85, 571.96 482.08 C 568.70 485.32, 567.09 487.24, 564.40 490.24 C 561.70 493.24, 560.00 494.73, 558.47 497.10 C 556.93 499.47, 556.89 500.76, 556.73 502.08 C 556.58 503.41, 556.95 503.82, 557.68 503.73 C 558.41 503.64, 559.09 503.19, 560.38 501.63 C 561.67 500.08, 562.66 498.56, 564.15 495.97 C 565.64 493.38, 566.25 491.67, 567.84 488.70 C 569.44 485.73, 570.79 483.96, 572.12 481.12 C 573.45 478.28, 573.86 476.74, 574.48 474.51 C 575.11 472.27, 575.32 471.35, 575.26 469.94 C 575.20 468.53, 574.73 467.94, 574.19 467.46 C 573.66 466.98, 573.07 467.19, 572.57 467.53" style="stroke: black; fill: black;"/><path d="M 709.28,471.99 C 709.21 471.31, 708.96 470.74, 708.03 470.07 C 707.09 469.39, 706.29 468.89, 704.59 468.63 C 702.88 468.37, 701.79 468.38, 699.51 468.75 C 697.23 469.12, 695.90 469.20, 693.20 470.46 C 690.49 471.73, 688.88 472.91, 685.98 475.06 C 683.07 477.21, 681.44 478.61, 678.67 481.20 C 675.90 483.80, 674.29 485.32, 672.12 488.03 C 669.95 490.75, 668.85 492.26, 667.81 494.77 C 666.77 497.28, 666.63 498.56, 666.93 500.58 C 667.24 502.60, 667.90 503.58, 669.33 504.88 C 670.77 506.18, 671.86 506.58, 674.11 507.06 C 676.37 507.54, 677.82 507.72, 680.61 507.30 C 683.40 506.88, 685.10 506.28, 688.08 504.96 C 691.05 503.65, 692.45 502.70, 695.50 500.72 C 698.54 498.75, 700.28 497.55, 703.30 495.09 C 706.32 492.63, 708.05 490.96, 710.60 488.44 C 713.16 485.93, 714.47 484.70, 716.08 482.51 C 717.68 480.31, 718.29 478.89, 718.63 477.46 C 718.97 476.03, 718.53 475.32, 717.78 475.35 C 717.02 475.39, 716.04 475.96, 714.84 477.64 C 713.64 479.32, 712.90 480.89, 711.78 483.77 C 710.66 486.65, 710.27 488.76, 709.23 492.05 C 708.18 495.35, 707.27 497.15, 706.56 500.25 C 705.86 503.35, 705.66 504.94, 705.70 507.56 C 705.75 510.19, 706.03 511.53, 706.78 513.38 C 707.52 515.24, 708.42 515.87, 709.41 516.83 C 710.40 517.79, 711.07 518.09, 711.74 518.17 C 712.41 518.24, 712.76 517.83, 712.77 517.20 C 712.77 516.57, 712.28 516.02, 711.78 515.01 C 711.27 514.01, 710.64 513.68, 710.23 512.20 C 709.83 510.72, 709.65 509.80, 709.76 507.62 C 709.86 505.44, 710.01 504.09, 710.76 501.29 C 711.52 498.48, 712.32 496.70, 713.54 493.58 C 714.77 490.47, 715.82 488.57, 716.89 485.72 C 717.95 482.86, 718.53 481.33, 718.87 479.31 C 719.20 477.30, 719.08 476.32, 718.57 475.64 C 718.07 474.97, 717.54 475.10, 716.35 475.94 C 715.17 476.77, 714.36 477.83, 712.66 479.79 C 710.96 481.76, 710.19 483.28, 707.86 485.77 C 705.53 488.26, 703.87 489.91, 700.99 492.25 C 698.11 494.58, 696.39 495.73, 693.47 497.46 C 690.55 499.18, 689.14 499.86, 686.41 500.85 C 683.69 501.85, 682.19 502.03, 679.84 502.43 C 677.48 502.83, 676.36 502.85, 674.64 502.84 C 672.92 502.82, 672.17 502.88, 671.23 502.38 C 670.28 501.88, 669.90 501.51, 669.93 500.32 C 669.96 499.14, 670.33 498.41, 671.39 496.44 C 672.45 494.48, 673.24 493.00, 675.22 490.52 C 677.20 488.04, 678.68 486.45, 681.31 484.05 C 683.94 481.65, 685.59 480.32, 688.38 478.52 C 691.16 476.72, 692.83 476.03, 695.22 475.05 C 697.61 474.06, 698.53 473.89, 700.31 473.58 C 702.10 473.27, 702.85 473.48, 704.12 473.50 C 705.39 473.52, 705.81 473.68, 706.67 473.68 C 707.52 473.68, 707.86 473.84, 708.39 473.50 C 708.91 473.17, 709.35 472.68, 709.28 471.99" style="stroke: black; fill: black;"/><path d="M 889.27,406.54 C 888.65 406.74, 888.51 406.84, 887.56 408.03 C 886.60 409.23, 885.78 410.01, 884.48 412.51 C 883.18 415.01, 882.86 416.91, 881.08 420.53 C 879.29 424.16, 877.95 426.38, 875.55 430.64 C 873.15 434.89, 871.72 437.20, 869.09 441.79 C 866.46 446.37, 864.97 448.95, 862.40 453.56 C 859.82 458.16, 858.56 460.40, 856.23 464.82 C 853.91 469.24, 852.64 471.65, 850.77 475.64 C 848.90 479.64, 848.25 481.57, 846.90 484.81 C 845.54 488.05, 844.65 489.33, 843.99 491.83 C 843.34 494.33, 843.44 495.61, 843.61 497.30 C 843.79 498.98, 844.36 499.70, 844.85 500.25 C 845.34 500.80, 845.76 500.61, 846.07 500.04 C 846.37 499.48, 846.06 498.85, 846.36 497.41 C 846.66 495.97, 846.83 495.14, 847.55 492.86 C 848.27 490.57, 848.81 489.22, 849.96 486.00 C 851.11 482.79, 851.61 480.78, 853.32 476.78 C 855.02 472.78, 856.24 470.39, 858.49 465.99 C 860.73 461.59, 861.98 459.34, 864.55 454.76 C 867.12 450.19, 868.63 447.63, 871.34 443.11 C 874.05 438.59, 875.50 436.30, 878.11 432.16 C 880.72 428.02, 882.20 425.85, 884.39 422.39 C 886.59 418.94, 887.79 417.43, 889.08 414.86 C 890.37 412.29, 890.55 411.12, 890.86 409.55 C 891.17 407.99, 890.95 407.65, 890.63 407.04 C 890.31 406.44, 889.88 406.34, 889.27 406.54" style="stroke: black; fill: black;"/><path d="M 904.55,424.34 C 904.21 424.45, 904.09 424.15, 903.69 424.57 C 903.28 424.98, 903.26 425.10, 902.53 426.42 C 901.80 427.74, 901.27 428.50, 900.05 431.17 C 898.83 433.84, 898.17 435.94, 896.44 439.77 C 894.71 443.61, 893.61 445.98, 891.40 450.33 C 889.20 454.69, 887.74 457.13, 885.40 461.56 C 883.05 465.99, 881.77 468.25, 879.67 472.50 C 877.58 476.75, 876.67 479.08, 874.92 482.82 C 873.17 486.56, 872.22 488.07, 870.92 491.20 C 869.63 494.33, 869.00 495.88, 868.43 498.48 C 867.86 501.07, 867.96 502.50, 868.07 504.18 C 868.18 505.85, 868.67 506.14, 868.98 506.86 C 869.28 507.57, 869.34 507.58, 869.60 507.75 C 869.86 507.93, 870.04 507.93, 870.30 507.73 C 870.55 507.54, 870.62 507.45, 870.87 506.77 C 871.11 506.10, 871.24 505.86, 871.52 504.37 C 871.80 502.87, 871.77 501.71, 872.29 499.32 C 872.80 496.92, 873.04 495.47, 874.10 492.41 C 875.17 489.35, 875.99 487.77, 877.59 484.02 C 879.19 480.28, 880.07 477.93, 882.11 473.69 C 884.15 469.45, 885.39 467.23, 887.78 462.84 C 890.17 458.45, 891.67 456.02, 894.05 451.74 C 896.44 447.47, 897.59 445.11, 899.72 441.46 C 901.85 437.82, 903.22 436.19, 904.70 433.51 C 906.18 430.83, 906.73 429.84, 907.11 428.08 C 907.50 426.33, 906.97 425.53, 906.63 424.72 C 906.29 423.90, 905.83 424.08, 905.41 424.01 C 904.99 423.93, 904.90 424.22, 904.55 424.34" style="stroke: black; fill: black;"/><path d="M 843.27,471.53 C 844.17 471.89, 845.10 471.90, 847.33 471.66 C 849.57 471.41, 851.07 470.99, 854.44 470.31 C 857.81 469.63, 860.11 469.01, 864.21 468.25 C 868.31 467.48, 870.56 467.12, 874.95 466.49 C 879.33 465.86, 881.75 465.52, 886.13 465.10 C 890.51 464.69, 892.94 464.66, 896.84 464.43 C 900.75 464.19, 902.67 464.23, 905.66 463.92 C 908.65 463.61, 910.57 463.39, 911.79 462.86 C 913.00 462.34, 913.00 461.73, 911.74 461.27 C 910.48 460.81, 908.52 460.59, 905.49 460.58 C 902.47 460.57, 900.55 460.90, 896.62 461.21 C 892.69 461.51, 890.25 461.68, 885.84 462.13 C 881.42 462.57, 878.99 462.92, 874.55 463.44 C 870.11 463.95, 867.84 464.19, 863.66 464.72 C 859.47 465.25, 857.08 465.48, 853.64 466.09 C 850.20 466.71, 848.62 467.05, 846.46 467.80 C 844.30 468.55, 843.49 469.11, 842.85 469.85 C 842.21 470.60, 842.37 471.17, 843.27 471.53" style="stroke: black; fill: black;"/><path d="M 969.25,469.36 C 969.25 468.46, 968.84 467.43, 967.80 466.17 C 966.77 464.92, 966.00 464.18, 964.09 463.09 C 962.18 462.00, 960.93 461.09, 958.25 460.72 C 955.58 460.34, 953.95 460.47, 950.72 461.20 C 947.49 461.92, 945.81 462.69, 942.09 464.33 C 938.38 465.98, 936.05 467.03, 932.15 469.40 C 928.24 471.78, 926.12 473.37, 922.59 476.22 C 919.05 479.06, 917.12 480.68, 914.46 483.63 C 911.81 486.57, 910.44 488.11, 909.31 490.96 C 908.19 493.81, 908.25 495.43, 908.85 497.86 C 909.45 500.28, 910.25 501.52, 912.31 503.08 C 914.37 504.63, 916.08 505.30, 919.15 505.63 C 922.22 505.97, 923.98 505.54, 927.66 504.76 C 931.34 503.97, 933.46 503.38, 937.55 501.72 C 941.65 500.07, 943.98 498.84, 948.13 496.49 C 952.28 494.13, 954.40 492.67, 958.28 489.96 C 962.17 487.26, 964.29 485.71, 967.58 482.97 C 970.87 480.23, 972.72 478.64, 974.72 476.28 C 976.73 473.93, 977.32 472.52, 977.61 471.18 C 977.90 469.84, 977.31 469.36, 976.17 469.60 C 975.03 469.83, 973.66 470.42, 971.91 472.36 C 970.16 474.30, 969.22 476.23, 967.44 479.29 C 965.66 482.34, 964.64 484.51, 963.02 487.64 C 961.40 490.76, 960.35 492.25, 959.35 494.90 C 958.34 497.56, 958.03 498.87, 958.00 500.91 C 957.96 502.94, 958.40 503.82, 959.17 505.08 C 959.94 506.33, 960.77 506.78, 961.84 507.20 C 962.91 507.61, 963.92 507.53, 964.53 507.16 C 965.13 506.78, 965.18 505.87, 964.88 505.32 C 964.58 504.77, 963.70 504.74, 963.04 504.41 C 962.38 504.08, 961.92 504.28, 961.58 503.65 C 961.23 503.03, 960.96 502.69, 961.32 501.28 C 961.68 499.87, 962.25 498.92, 963.36 496.61 C 964.46 494.30, 965.16 492.66, 966.85 489.73 C 968.54 486.80, 969.97 484.84, 971.81 481.94 C 973.65 479.03, 974.92 477.44, 976.04 475.19 C 977.17 472.94, 977.45 471.74, 977.43 470.69 C 977.41 469.64, 977.06 469.35, 975.93 469.94 C 974.80 470.52, 973.86 471.47, 971.78 473.61 C 969.70 475.75, 968.56 477.84, 965.54 480.64 C 962.51 483.45, 960.42 484.98, 956.65 487.63 C 952.89 490.29, 950.76 491.71, 946.70 493.93 C 942.65 496.14, 940.34 497.27, 936.39 498.69 C 932.45 500.11, 930.34 500.52, 926.97 501.03 C 923.61 501.54, 922.10 501.43, 919.55 501.25 C 917.01 501.06, 915.80 500.93, 914.27 500.11 C 912.73 499.29, 912.18 498.71, 911.88 497.17 C 911.57 495.62, 911.73 494.66, 912.73 492.38 C 913.74 490.11, 914.57 488.54, 916.92 485.79 C 919.28 483.03, 921.15 481.35, 924.52 478.62 C 927.89 475.89, 929.99 474.34, 933.78 472.14 C 937.56 469.95, 939.90 468.99, 943.45 467.64 C 947.01 466.29, 948.73 465.86, 951.55 465.39 C 954.36 464.93, 955.47 464.94, 957.52 465.32 C 959.57 465.69, 960.28 466.48, 961.80 467.27 C 963.32 468.06, 963.92 468.59, 965.12 469.27 C 966.32 469.94, 966.97 470.65, 967.80 470.67 C 968.62 470.68, 969.25 470.26, 969.25 469.36" style="stroke: black; fill: black;"/><path d="M 1001.12,471.40 C 1000.32 471.76, 999.94 472.47, 998.73 473.93 C 997.53 475.39, 996.61 476.45, 995.11 478.70 C 993.61 480.95, 992.90 482.70, 991.22 485.18 C 989.54 487.66, 988.43 488.92, 986.70 491.09 C 984.97 493.25, 983.91 494.31, 982.57 496.00 C 981.23 497.70, 980.32 498.61, 980.01 499.56 C 979.69 500.51, 979.99 500.92, 981.01 500.75 C 982.02 500.57, 983.23 500.00, 985.09 498.69 C 986.95 497.39, 988.27 496.37, 990.30 494.24 C 992.33 492.10, 993.35 490.57, 995.23 488.03 C 997.11 485.50, 998.27 483.99, 999.69 481.55 C 1001.11 479.12, 1001.71 477.76, 1002.32 475.87 C 1002.93 473.99, 1002.97 473.01, 1002.73 472.12 C 1002.49 471.23, 1001.92 471.04, 1001.12 471.40" style="stroke: black; fill: black;"/><path d="M 994.32,480.71 C 995.42 480.30, 996.37 479.11, 998.32 477.46 C 1000.27 475.82, 1001.34 474.42, 1004.06 472.48 C 1006.78 470.53, 1008.69 469.25, 1011.93 467.73 C 1015.16 466.21, 1016.97 465.70, 1020.21 464.86 C 1023.46 464.02, 1025.29 463.76, 1028.13 463.54 C 1030.96 463.31, 1032.43 463.33, 1034.38 463.72 C 1036.33 464.12, 1037.00 464.44, 1037.89 465.50 C 1038.78 466.57, 1038.90 467.24, 1038.82 469.05 C 1038.74 470.85, 1038.30 472.04, 1037.50 474.52 C 1036.69 477.01, 1036.14 478.66, 1034.80 481.46 C 1033.45 484.27, 1032.36 485.92, 1030.78 488.53 C 1029.20 491.15, 1028.11 492.37, 1026.89 494.53 C 1025.68 496.69, 1025.22 497.83, 1024.71 499.34 C 1024.20 500.84, 1024.21 501.41, 1024.33 502.06 C 1024.45 502.71, 1024.75 502.81, 1025.33 502.57 C 1025.91 502.32, 1026.17 501.96, 1027.23 500.83 C 1028.28 499.71, 1029.13 498.92, 1030.60 496.92 C 1032.07 494.92, 1032.93 493.54, 1034.58 490.85 C 1036.22 488.15, 1037.33 486.45, 1038.84 483.45 C 1040.35 480.45, 1041.35 478.79, 1042.12 475.86 C 1042.89 472.93, 1043.03 471.29, 1042.68 468.80 C 1042.33 466.31, 1041.85 465.16, 1040.37 463.41 C 1038.90 461.67, 1037.84 460.86, 1035.33 460.09 C 1032.82 459.32, 1031.03 459.32, 1027.82 459.56 C 1024.61 459.79, 1022.77 460.34, 1019.27 461.27 C 1015.77 462.20, 1013.85 462.66, 1010.33 464.22 C 1006.80 465.78, 1004.65 466.99, 1001.66 469.06 C 998.66 471.12, 997.13 472.43, 995.36 474.53 C 993.60 476.63, 993.04 478.30, 992.84 479.54 C 992.63 480.77, 993.22 481.13, 994.32 480.71" style="stroke: black; fill: black;"/><path d="M 1092.27,467.31 C 1091.99 466.57, 1091.26 466.17, 1090.23 465.49 C 1089.19 464.80, 1088.63 464.41, 1087.07 463.89 C 1085.51 463.37, 1084.32 463.11, 1082.42 462.87 C 1080.53 462.63, 1079.70 462.57, 1077.60 462.70 C 1075.49 462.82, 1074.29 462.90, 1071.90 463.51 C 1069.50 464.12, 1068.14 464.46, 1065.63 465.75 C 1063.11 467.05, 1061.74 468.09, 1059.31 469.99 C 1056.89 471.89, 1055.60 473.02, 1053.51 475.25 C 1051.43 477.48, 1050.33 478.75, 1048.90 481.14 C 1047.47 483.52, 1046.87 484.82, 1046.36 487.18 C 1045.84 489.55, 1045.85 490.77, 1046.33 492.94 C 1046.81 495.12, 1047.35 496.31, 1048.75 498.04 C 1050.16 499.76, 1051.12 500.48, 1053.33 501.56 C 1055.54 502.64, 1056.92 503.18, 1059.82 503.44 C 1062.71 503.70, 1064.56 503.58, 1067.83 502.86 C 1071.10 502.14, 1072.74 501.33, 1076.17 499.84 C 1079.61 498.35, 1081.51 497.40, 1085.00 495.42 C 1088.48 493.44, 1090.46 492.30, 1093.61 489.95 C 1096.75 487.60, 1098.28 486.17, 1100.72 483.66 C 1103.16 481.16, 1104.22 479.80, 1105.80 477.45 C 1107.39 475.09, 1108.04 473.90, 1108.63 471.91 C 1109.22 469.92, 1109.32 468.59, 1108.74 467.49 C 1108.17 466.39, 1107.08 466.06, 1105.76 466.42 C 1104.44 466.77, 1103.56 467.55, 1102.14 469.26 C 1100.72 470.98, 1099.99 472.32, 1098.67 474.98 C 1097.34 477.63, 1096.68 479.55, 1095.50 482.54 C 1094.32 485.54, 1093.57 487.21, 1092.76 489.94 C 1091.95 492.68, 1091.76 494.00, 1091.46 496.22 C 1091.16 498.45, 1091.10 499.38, 1091.27 501.09 C 1091.44 502.80, 1091.73 503.55, 1092.31 504.78 C 1092.89 506.01, 1093.34 506.59, 1094.18 507.23 C 1095.02 507.86, 1095.83 508.09, 1096.49 507.95 C 1097.16 507.81, 1097.49 507.13, 1097.49 506.53 C 1097.50 505.92, 1096.92 505.56, 1096.50 504.93 C 1096.08 504.30, 1095.76 504.17, 1095.41 503.36 C 1095.05 502.55, 1094.74 502.15, 1094.73 500.88 C 1094.72 499.60, 1094.85 498.87, 1095.34 496.97 C 1095.84 495.08, 1096.28 493.91, 1097.20 491.40 C 1098.12 488.90, 1098.62 487.22, 1099.92 484.45 C 1101.23 481.67, 1102.44 480.06, 1103.72 477.53 C 1105.01 474.99, 1105.64 473.64, 1106.35 471.79 C 1107.07 469.94, 1107.20 469.10, 1107.30 468.27 C 1107.41 467.45, 1107.29 467.23, 1106.86 467.66 C 1106.43 468.09, 1106.04 468.93, 1105.14 470.43 C 1104.25 471.93, 1103.80 473.02, 1102.38 475.16 C 1100.96 477.31, 1100.22 478.75, 1098.05 481.16 C 1095.88 483.56, 1094.48 484.95, 1091.53 487.20 C 1088.58 489.44, 1086.66 490.55, 1083.31 492.38 C 1079.95 494.22, 1078.01 495.12, 1074.75 496.38 C 1071.49 497.64, 1069.92 498.20, 1067.02 498.68 C 1064.11 499.16, 1062.61 498.99, 1060.22 498.78 C 1057.83 498.58, 1056.76 498.33, 1055.06 497.67 C 1053.36 497.01, 1052.74 496.61, 1051.73 495.50 C 1050.72 494.40, 1050.33 493.61, 1050.01 492.14 C 1049.70 490.66, 1049.62 489.86, 1050.13 488.13 C 1050.65 486.41, 1051.25 485.45, 1052.59 483.50 C 1053.93 481.56, 1054.92 480.39, 1056.84 478.43 C 1058.76 476.46, 1059.98 475.37, 1062.18 473.69 C 1064.38 472.01, 1065.67 471.18, 1067.85 470.03 C 1070.04 468.88, 1071.10 468.51, 1073.09 467.94 C 1075.08 467.37, 1076.09 467.23, 1077.80 467.19 C 1079.52 467.14, 1080.08 467.39, 1081.66 467.70 C 1083.24 468.01, 1084.27 468.41, 1085.71 468.73 C 1087.16 469.05, 1087.71 469.21, 1088.89 469.30 C 1090.06 469.40, 1090.91 469.59, 1091.59 469.19 C 1092.26 468.79, 1092.54 468.05, 1092.27 467.31" style="stroke: black; fill: black;"/><path d="M 1138.13,471.91 C 1137.29 472.05, 1136.48 472.52, 1135.45 473.68 C 1134.41 474.85, 1133.78 475.84, 1132.95 477.74 C 1132.13 479.64, 1131.70 480.96, 1131.32 483.17 C 1130.94 485.38, 1130.83 486.61, 1131.06 488.77 C 1131.30 490.93, 1131.61 492.13, 1132.50 493.97 C 1133.39 495.80, 1133.97 496.66, 1135.51 497.96 C 1137.04 499.26, 1138.06 499.75, 1140.18 500.48 C 1142.30 501.21, 1143.67 501.72, 1146.11 501.60 C 1148.55 501.47, 1151.16 500.70, 1152.38 499.85 C 1153.59 498.99, 1153.41 497.97, 1152.18 497.31 C 1150.94 496.64, 1148.37 496.73, 1146.20 496.52 C 1144.04 496.31, 1143.00 496.57, 1141.35 496.25 C 1139.70 495.94, 1138.99 495.72, 1137.96 494.94 C 1136.93 494.16, 1136.68 493.62, 1136.20 492.34 C 1135.71 491.06, 1135.52 490.15, 1135.55 488.53 C 1135.58 486.91, 1135.87 486.02, 1136.34 484.24 C 1136.81 482.46, 1137.37 481.34, 1137.91 479.63 C 1138.46 477.92, 1138.74 477.02, 1139.09 475.70 C 1139.43 474.37, 1139.82 473.75, 1139.63 473.00 C 1139.44 472.24, 1138.97 471.78, 1138.13 471.91" style="stroke: black; fill: black;"/><path d="M 1189.45,475.40 C 1188.96 475.00, 1188.65 474.51, 1187.15 474.76 C 1185.65 475.02, 1184.45 475.04, 1181.94 476.68 C 1179.43 478.31, 1178.19 479.85, 1174.59 482.94 C 1171.00 486.03, 1168.71 488.04, 1163.97 492.13 C 1159.22 496.22, 1156.23 498.74, 1150.87 503.40 C 1145.51 508.06, 1142.31 510.68, 1137.17 515.42 C 1132.02 520.17, 1129.53 522.77, 1125.15 527.11 C 1120.77 531.45, 1118.44 533.69, 1115.27 537.11 C 1112.10 540.54, 1110.93 541.85, 1109.29 544.23 C 1107.66 546.62, 1107.34 547.94, 1107.10 549.03 C 1106.87 550.12, 1107.24 550.32, 1108.11 549.69 C 1108.99 549.06, 1109.70 548.07, 1111.50 545.89 C 1113.30 543.70, 1114.08 542.22, 1117.10 538.75 C 1120.12 535.29, 1122.33 532.94, 1126.61 528.56 C 1130.89 524.18, 1133.36 521.57, 1138.48 516.85 C 1143.60 512.13, 1146.80 509.53, 1152.21 504.96 C 1157.61 500.39, 1160.64 497.88, 1165.51 494.00 C 1170.39 490.11, 1172.78 488.17, 1176.59 485.52 C 1180.40 482.87, 1182.20 482.27, 1184.57 480.73 C 1186.94 479.20, 1187.43 478.64, 1188.44 477.84 C 1189.46 477.04, 1189.43 477.23, 1189.63 476.74 C 1189.83 476.25, 1189.95 475.80, 1189.45 475.40" style="stroke: black; fill: black;"/><path d="M 1239.92,469.01 C 1239.21 468.48, 1238.29 468.26, 1236.43 468.17 C 1234.57 468.07, 1233.44 467.78, 1230.63 468.52 C 1227.83 469.26, 1225.94 470.14, 1222.39 471.85 C 1218.84 473.57, 1216.66 474.86, 1212.86 477.12 C 1209.06 479.38, 1207.07 480.66, 1203.39 483.15 C 1199.70 485.64, 1197.56 487.05, 1194.44 489.56 C 1191.31 492.07, 1189.44 493.31, 1187.76 495.71 C 1186.08 498.11, 1185.88 499.60, 1186.03 501.57 C 1186.18 503.55, 1186.81 504.47, 1188.52 505.59 C 1190.23 506.72, 1191.55 507.37, 1194.56 507.20 C 1197.57 507.03, 1199.58 506.18, 1203.59 504.74 C 1207.59 503.31, 1210.01 502.12, 1214.60 500.02 C 1219.19 497.93, 1221.87 496.64, 1226.55 494.26 C 1231.23 491.87, 1233.89 490.47, 1237.99 488.08 C 1242.08 485.70, 1244.24 484.47, 1247.01 482.32 C 1249.77 480.17, 1250.93 478.89, 1251.81 477.34 C 1252.68 475.79, 1252.29 474.85, 1251.39 474.57 C 1250.49 474.30, 1249.06 474.73, 1247.31 475.97 C 1245.56 477.21, 1244.19 478.50, 1242.64 480.76 C 1241.10 483.01, 1240.50 484.63, 1239.60 487.22 C 1238.70 489.82, 1238.22 491.36, 1238.14 493.74 C 1238.06 496.13, 1238.61 498.07, 1239.20 499.16 C 1239.79 500.24, 1240.50 500.11, 1241.09 499.16 C 1241.69 498.21, 1241.53 496.40, 1242.16 494.41 C 1242.80 492.42, 1243.21 491.30, 1244.29 489.21 C 1245.37 487.12, 1246.31 486.02, 1247.57 483.95 C 1248.84 481.88, 1249.78 480.58, 1250.62 478.85 C 1251.45 477.12, 1251.89 475.96, 1251.76 475.31 C 1251.62 474.65, 1251.29 474.72, 1249.92 475.57 C 1248.55 476.43, 1247.59 477.56, 1244.91 479.58 C 1242.23 481.59, 1240.44 483.22, 1236.53 485.67 C 1232.61 488.12, 1229.95 489.52, 1225.32 491.84 C 1220.70 494.16, 1217.98 495.40, 1213.41 497.29 C 1208.84 499.17, 1206.32 500.18, 1202.47 501.26 C 1198.61 502.35, 1196.68 502.36, 1194.13 502.72 C 1191.58 503.08, 1190.83 503.30, 1189.71 503.09 C 1188.59 502.87, 1188.30 502.64, 1188.52 501.63 C 1188.74 500.63, 1189.21 499.94, 1190.82 498.04 C 1192.43 496.14, 1193.71 494.60, 1196.57 492.13 C 1199.43 489.67, 1201.54 488.16, 1205.13 485.73 C 1208.72 483.31, 1210.74 482.06, 1214.51 480.01 C 1218.28 477.96, 1220.49 476.84, 1223.97 475.50 C 1227.46 474.15, 1229.35 474.01, 1231.92 473.29 C 1234.50 472.57, 1235.24 472.39, 1236.85 471.90 C 1238.46 471.41, 1239.37 471.42, 1239.98 470.84 C 1240.60 470.26, 1240.63 469.55, 1239.92 469.01" style="stroke: black; fill: black;"/></svg>